<?xml version="1.0" encoding="UTF-8"?>
<svg id="Layer_2" data-name="Layer 2" xmlns="http://www.w3.org/2000/svg" viewBox="0 0 105.79 85.56">
  <g id="Cake">
    <g>
      <path d="M92.54,14.69c3.9,3.53,7.48,7.63,9.49,12.55.57,1.39,1,2.84,1.28,4.32.03.16.27.09.24-.07-.99-5.28-3.97-9.9-7.58-13.79-1.04-1.11-2.13-2.17-3.25-3.2-.12-.11-.3.07-.18.18h0Z" style="fill: #231f20;"/>
      <path d="M71.97.25c3.26.88,6.07,2.81,8.71,4.85.76.59,1.51,1.18,2.27,1.77.13.1.3-.08.18-.18-2.66-2.08-5.31-4.28-8.4-5.71-.87-.4-1.76-.73-2.68-.98-.16-.04-.22.2-.07.24h0Z" style="fill: #231f20;"/>
      <path d="M85.02,34.7c5.77-2.59,12.07-4.12,18.42-3.77.16,0,.16-.24,0-.25-6.4-.35-12.74,1.2-18.55,3.81-.15.07-.02.28.13.22h0Z" style="fill: #231f20;"/>
      <path d="M5.12,63.57c-1.76,1.1-3.62,2.44-4.57,4.34-.46.9-.65,1.91-.48,2.91.06.37.2,1.23.51,1.51.35.31,1.06.34,1.5.3,1.26-.12,2.37-.92,3.42-1.57.32-.2.64-.39.97-.57.31-.17.47-.36.7-.63.49-.56,1.01-1.1,1.53-1.63,1.95-1.95,4.13-3.66,6.49-5.09,9.1-5.56,19.95-6.68,30.14-9.06,1.47-.34,2.93-.71,4.38-1.12.67-.19,1.38-.35,2.03-.61.88-.35,1.71-.76,2.61-1.07,3.07-1.05,6.25-1.68,8.85-3.76.13-.1-.05-.28-.18-.18-2.38,1.91-5.29,2.58-8.13,3.49-1.35.43-2.62,1.1-3.97,1.5-1.21.36-2.42.69-3.64,1-4.88,1.24-9.84,2.1-14.75,3.2s-9.39,2.33-13.76,4.39c-2.25,1.06-4.4,2.32-6.4,3.81-.99.73-1.93,1.52-2.84,2.35-.99.92-1.84,1.96-2.81,2.9-.32.31-.79.51-1.17.74-.32.2-.65.4-.97.6-.68.41-1.39.83-2.18.99-.37.08-.8.11-1.17,0-.57-.18-.7-.63-.84-1.15-.17-.66-.19-1.34-.04-2.01.55-2.44,2.89-4.13,4.89-5.38.14-.08.01-.3-.13-.22h0Z" style="fill: #231f20;"/>
      <path d="M31.15,34.01c-2.96,3.03-5.93,6.06-8.94,9.04-.86.85-1.73,1.7-2.6,2.54-.12.11.06.29.18.18,3.05-2.95,6.03-5.96,9-8.99.85-.86,1.69-1.73,2.54-2.6.11-.12-.06-.29-.18-.18h0Z" style="fill: #231f20;"/>
      <path d="M69.76.45c-6.75,4.12-12.99,9.01-18.89,14.27-1.69,1.51-3.36,3.05-5.01,4.61-.12.11.06.29.18.18,5.75-5.44,11.75-10.63,18.24-15.17,1.83-1.28,3.7-2.5,5.61-3.67.14-.08.01-.3-.13-.22h0Z" style="fill: #231f20;"/>
      <path d="M1.52,73.31c1.6,1.35,1.36,3.71,2.27,5.45.19.36.43.69.74.96.41.35.93.5,1.36.8,1.27.9.52,2.74-.03,3.84-.04.08,0,.16.07.18,2.94,1.04,6.12,1.29,9.19.72,3.26-.62,6.08-2.4,9.18-3.47s6.49-1.6,9.79-2.09c3.47-.52,6.92-1.08,10.37-1.71,6.9-1.24,13.77-2.63,20.64-4,3.19-.64,6.29-1.41,9.25-2.8s5.83-3,9.15-3.39c1.78-.21,3.58-.22,5.34-.55,1.57-.29,3.1-.8,4.52-1.53.73-.38,1.43-.82,2.09-1.32.28-.21.54-.44.81-.67.6-.5,1.09-.55,1.85-.39,1.63.35,3.19.26,4.71-.47.15-.07.02-.28-.13-.22-.79.38-1.63.61-2.51.65s-1.65-.2-2.5-.31c-.57-.08-1,.07-1.45.43-.64.5-1.24,1.03-1.93,1.46-2.73,1.71-5.75,2.26-8.91,2.49-1.62.12-3.23.28-4.79.77-1.39.43-2.71,1.05-4.02,1.68-1.43.69-2.84,1.42-4.32,2s-3.11,1.03-4.71,1.39c-3.34.76-6.72,1.36-10.08,2.02s-6.78,1.34-10.17,1.97-6.96,1.26-10.45,1.81c-3.22.5-6.47.89-9.64,1.66-1.73.42-3.42.96-5.05,1.67-1.75.76-3.45,1.65-5.28,2.21-3.55,1.09-7.4.97-10.89-.26l.07.18c.48-.94.99-2.14.66-3.21-.37-1.21-1.84-1.29-2.51-2.28-1.22-1.79-.77-4.38-2.52-5.86-.12-.1-.3.07-.18.18h0Z" style="fill: #231f20;"/>
      <path d="M103.32,33.06c.04,2.47.37,4.89.92,7.29s.97,4.93,1.12,7.48.33,5.03-.02,7.52-1.35,4.95-2.16,7.36c-.05.15.19.22.24.07.8-2.41,1.79-4.83,2.16-7.36s.19-4.91.04-7.35-.47-4.89-1.03-7.32-.98-5.08-1.02-7.69c0-.16-.25-.16-.25,0h0Z" style="fill: #231f20;"/>
      <path d="M74.52,39.36c-1.62,1.02-2.38,2.72-3.31,4.31-.49.83-1.06,1.65-1.92,2.14-.55.32-1.14.38-1.75.49-.76.13-1.51.25-2.27.37-5.53.84-11.1,1.26-16.67,1.63-2.76.18-5.52.36-8.28.58-1.23.1-2.44.1-3.58.56-.9.36-1.76.81-2.58,1.33-2.06,1.32-3.8,3.08-5.29,5s-3.21,3.13-5.32,4.08c-2.34,1.04-4.84,1.67-7.28,2.45-1.16.37-2.31.78-3.43,1.26-.29.13-.58.28-.88.4-.38.15-.69.15-1.09.15-.81,0-1.62-.02-2.43-.06-.16,0-.16.24,0,.25.67.03,1.34.05,2.02.05.53,0,1.06.09,1.54-.14,1.11-.54,2.27-.98,3.43-1.38,2.14-.73,4.34-1.29,6.47-2.06,1.92-.7,3.8-1.58,5.36-2.91.96-.82,1.67-1.81,2.47-2.77.85-1.01,1.76-1.96,2.77-2.8.87-.73,1.82-1.38,2.82-1.92,1.11-.6,2.17-1,3.43-1.11,2.83-.24,5.66-.44,8.49-.62,5.46-.36,10.91-.73,16.33-1.47,1.63-.22,3.27-.45,4.88-.77.93-.19,1.7-.8,2.27-1.54,1.37-1.76,1.94-4.03,3.92-5.28.14-.09.01-.3-.13-.22h0Z" style="fill: #231f20;"/>
      <path d="M9.91,63.59c-1.97.46-4.31,1.25-6.24.24-.45-.24-.99-.5-.8-1.06.15-.47.51-.85.87-1.17.47-.41,1.01-.74,1.56-1.04.35-.19.5-.27.74-.57.21-.27.4-.56.54-.87.1-.22.11-.48.2-.68.11-.24.38-.31.61-.42,1.01-.47,2.05-.88,3.06-1.34.73-.33,1.65-.69,2.22-1.28.35-.36.54-.96.77-1.4.32-.61.66-1.22,1-1.83,1.34-2.36,2.83-4.62,4.33-6.88l-.2.03,1,1c.06.06.15.04.2-.03,1.64-2.38,4.57-2.85,7.19-3.47.63-.15,1.24-.36,1.88-.48.6-.12,1.09-.38,1.47-.86.83-1.05.42-2.66.32-3.89-.12-1.46-.27-3.1.48-4.43.39-.7,1.03-1.27,1.57-1.85.62-.66,1.24-1.31,1.88-1.95,2.31-2.35,4.72-4.6,7.21-6.77,5-4.35,10.32-8.32,15.73-12.15,2.66-1.89,5.35-3.74,8.03-5.59,1.41-.98,2.81-2.1,4.43-2.71,1.4-.53,2.85-.53,4.3-.19.67.16,1.74.33,2.22.87.36.4.12.87-.13,1.26-.32.51-1.07,1.18-.98,1.84.06.44.49.55.84.74.68.39,1.33.83,2.04,1.18,1.31.65,2.63.78,3.95.07l-.19-.11c.16,1.49,1.76,1.72,2.98,1.77.87.04,1.73-.01,2.6,0,.69,0,1.53-.02,2.14.34.86.51.37,1.61.02,2.29-.04.08,0,.16.07.18,2.77,1,4.72,4.81,3.76,7.65-.44,1.32-1.82,2.2-3.09,2.57-1.38.4-2.87.37-4.28.2-1.7-.21-3.37-.64-4.99-1.18-.1-.03-.17.07-.15.15.12.56.87,1.57,1.59,1.22.86-.42-1.27-1.31-1.43-1.37-.1-.04-.17.07-.15.15.35,1.8,1.27,3.49,1.15,5.37-.01.16.24.16.25,0,.13-1.9-.8-3.61-1.16-5.43l-.15.15c.39.16.84.32,1.18.59.22.17.36.32.02.33-.55.02-.95-.61-1.05-1.07l-.15.15c2.96.97,6.54,1.92,9.61.91,1.23-.4,2.49-1.27,3-2.51.57-1.38.25-3.15-.31-4.47-.68-1.61-1.9-3.05-3.57-3.65l.07.18c.3-.6.69-1.41.4-2.08-.22-.51-.77-.72-1.28-.81-1.66-.32-3.39.07-5.06-.2-.83-.14-1.67-.49-1.77-1.43,0-.09-.1-.16-.19-.11-1.61.87-3.1.32-4.57-.55-.29-.17-.57-.34-.86-.52-.27-.16-.65-.29-.87-.51-.33-.32-.03-.74.19-1.05.35-.53.98-1.13.96-1.82-.03-.87-1.18-1.14-1.83-1.33-1.23-.37-2.52-.59-3.81-.39-1.5.24-2.83,1-4.05,1.85-2.76,1.91-5.52,3.81-8.27,5.74-5.32,3.73-10.58,7.58-15.56,11.76-2.56,2.15-5.05,4.39-7.44,6.73-1.23,1.21-2.44,2.44-3.61,3.7-.98,1.05-1.79,1.95-1.99,3.42-.22,1.62.1,3.27.17,4.89.04,1.08-.33,2.2-1.54,2.45-.7.15-1.39.35-2.08.51-2.7.64-5.66,1.14-7.34,3.58l.2-.03-1-1c-.06-.06-.15-.04-.2.03-1.76,2.64-3.49,5.29-5,8.08-.38.69-.69,1.72-1.33,2.19-.48.35-1.02.62-1.56.87-1.34.64-2.73,1.16-4.07,1.82-.04.02-.06.07-.06.11-.04.64-.42,1.45-.93,1.87-.29.24-.7.38-1.02.58-.29.18-.56.37-.83.58-.46.37-1.61,1.46-1.12,2.13.69.95,2.31,1.19,3.38,1.16,1.35-.04,2.65-.42,3.95-.72.16-.04.09-.28-.07-.24h0Z" style="fill: #231f20;"/>
      <g style="opacity: .44;">
        <g>
          <path d="M74.19,28.75l-.15.03c-3.38-4.54-7.38-9.54-12.38-12.54-1,0-4-2-3,4,1.62,4.88,3.91,9.09,4.71,13.72l-2.71.28c-2-7-9-14-3-22,6,1,12,4,15,10,1,1,3,1,3,1,0-7-7-13-13-15,0-1,1-2,1-2,3,0,3-2,5-2,1.96-.98,3.93-.04,4.69,3.24,4.14,5.21,6.21,12,5.7,18.64h-.22c.15,3.95,3.03,7.48,4.35,11.32.62,1.79.91,3.68,1.19,5.56l.9,6.09c.4,2.69.8,5.38,1.08,8.08.17,1.6.29,3.24-.12,4.8-.4,1.56-1.43,3.04-2.95,3.57-.31.11-.65.18-.96.07-.39-.15-.62-.55-.78-.94-.98-2.36-.41-5.04-.08-7.59,1.11-8.63-.91-17.63-5.62-24.96-.68-1.06-1.44-2.15-1.65-3.37Z" style="fill: #231f20;"/>
          <path d="M63.37,33.96c.18,1.07.29,2.16.29,3.28,0,1-1,2-2,2-8,0-14-5-22-5-2.34.47-3.59,2.26-4.25,4.44l-2.16-.34c.76-2.68.53-5.66,3.41-7.1,7-3,13,0,19,3h5l2.71-.28Z" style="fill: #231f20;"/>
          <path d="M35.41,38.68c-.75,2.46-.75,5.44-.75,7.56,0,1-1,2-2,2-7,2-13,4-16,11-2,3-5,3-8,1,2-2,3-5,7-5,3-7,10-9,16-14,.84-.84,1.29-1.85,1.59-2.9l2.16.34Z" style="fill: #231f20;"/>
        </g>
        <g>
          <path d="M74.04,28.78c-3.38-4.54-7.38-9.54-12.38-12.54-1,0-4-2-3,4,1.62,4.88,3.91,9.09,4.71,13.72.18,1.07.29,2.16.29,3.28,0,1-1,2-2,2-8,0-14-5-22-5-2.34.47-3.59,2.26-4.25,4.44-.75,2.46-.75,5.44-.75,7.56,0,1-1,2-2,2-7,2-13,4-16,11-2,3-5,3-8,1,2-2,3-5,7-5,3-7,10-9,16-14,.84-.84,1.29-1.85,1.59-2.9.76-2.68.53-5.66,3.41-7.1,7-3,13,0,19,3h5c-2-7-9-14-3-22,6,1,12,4,15,10,1,1,3,1,3,1,0-7-7-13-13-15,0-1,1-2,1-2,3,0,3-2,5-2,1.96-.98,3.93-.04,4.69,3.24,0,.06.03.12.04.18" style="fill: none; stroke: #231f20; stroke-miterlimit: 10; stroke-width: .05px;"/>
          <path d="M72.53,6.5c.28.32.56.65.82.98,4.14,5.21,6.21,12,5.7,18.64" style="fill: none; stroke: #231f20; stroke-miterlimit: 10; stroke-width: .05px;"/>
          <path d="M78.87,24.87c-.05.42-.06.84-.04,1.26.15,3.94,3.03,7.47,4.35,11.31.62,1.79.91,3.68,1.19,5.56l.9,6.09c.4,2.69.8,5.38,1.08,8.08.17,1.6.29,3.24-.12,4.8-.4,1.56-1.43,3.04-2.95,3.57-.31.11-.65.18-.96.07-.39-.15-.62-.55-.78-.94-.98-2.36-.41-5.04-.08-7.59,1.11-8.63-.91-17.63-5.62-24.96-.68-1.06-1.44-2.15-1.65-3.37-.03-.18-.05-.36-.06-.54" style="fill: none; stroke: #231f20; stroke-miterlimit: 10; stroke-width: .05px;"/>
        </g>
      </g>
      <path d="M75.03,38.64c.73-.75,1.52-1.45,2.37-2.07.24-.18.48-.35.73-.51.13-.09,0-.31-.13-.22-.89.59-1.73,1.25-2.5,1.98-.22.21-.43.42-.64.63-.11.12.06.29.18.18h0Z" style="fill: #231f20;"/>
      <path d="M82.17,26.79c-.69,2.13.39,4.39-.34,6.51-.05.15.19.22.24.07.73-2.12-.35-4.39.34-6.51.05-.15-.19-.22-.24-.07h0Z" style="fill: #231f20;"/>
      <path d="M84.45,34.61l-2.04,1.28c-.14.09-.01.3.13.22l2.04-1.28c.14-.09.01-.3-.13-.22h0Z" style="fill: #231f20;"/>
      <path d="M72.44,43.5c1.98-.99,3.8-2.29,5.37-3.85.45-.45.88-.92,1.28-1.4.1-.12-.07-.3-.18-.18-1.41,1.69-3.09,3.15-4.96,4.31-.53.33-1.08.63-1.64.91-.14.07-.02.29.13.22h0Z" style="fill: #231f20;"/>
      <path d="M11.84,79.72c2.11-2.49,5.86-1.01,8.6-1.54,1.6-.31,2.83-1.45,4.27-2.15,1.58-.77,3.3-1.22,5.05-1.35.16-.01.16-.26,0-.25-1.31.1-2.6.37-3.83.82s-2.35,1.13-3.48,1.83c-1.28.79-2.59,1.03-4.08,1-1.24-.03-2.47-.17-3.7,0-1.14.16-2.25.58-3.01,1.48-.1.12.07.3.18.18h0Z" style="fill: #231f20;"/>
      <path d="M39.31,71.89c2.62-.89,5.3-1.59,8.03-2.09s5.64-.81,8.46-1.17c.16-.02.16-.27,0-.25-2.79.36-5.6.65-8.37,1.15s-5.51,1.21-8.18,2.11c-.15.05-.09.29.07.24h0Z" style="fill: #231f20;"/>
      <path d="M59.08,72.58c.7-1.53,1.84-2.82,3.27-3.71s3.06-1.17,4.73-1.38c1.41-.17,2.93-.32,4.16-1.09,1.44-.9,1.84-2.62,3.05-3.73,1.44-1.33,3.43-1.86,5.28-2.35.16-.04.09-.28-.07-.24-1.61.42-3.27.88-4.65,1.83-.61.42-1.15.93-1.57,1.55-.54.79-.9,1.69-1.63,2.34-1.28,1.13-3.1,1.28-4.72,1.47s-3.12.46-4.52,1.27c-1.56.9-2.81,2.28-3.56,3.91-.07.15.15.27.22.13h0Z" style="fill: #231f20;"/>
      <path d="M73.02,66.37c2.08-.1,4.14-.39,6.17-.86.16-.04.09-.28-.07-.24-2,.46-4.05.75-6.1.85-.16,0-.16.26,0,.25h0Z" style="fill: #231f20;"/>
      <path d="M90.15,54.54c1.13-.27,2.44-.63,3.09-1.68.19-.3.28-.65.39-.99s.25-.64.44-.93c.36-.55.85-1,1.37-1.38.6-.44,1.25-.79,1.9-1.14.14-.08.02-.29-.13-.22-1.11.6-2.28,1.24-3.08,2.24-.19.24-.36.49-.5.77-.16.31-.25.65-.36.98-.21.63-.62,1.1-1.2,1.43-.61.35-1.31.53-1.99.7-.16.04-.09.28.07.24h0Z" style="fill: #231f20;"/>
      <path d="M64.55,58.03c2.05-1.06,4.45-.94,6.57-1.8.57-.23,1.1-.54,1.58-.93.12-.1-.05-.28-.18-.18-1.76,1.47-4.22,1.46-6.34,2.03-.61.16-1.2.37-1.75.66-.14.07-.02.29.13.22h0Z" style="fill: #231f20;"/>
      <path d="M42.43,43.99c1.2-.56,2.32-1.27,3.34-2.12.29-.24.57-.49.84-.75.12-.11-.06-.29-.18-.18-.94.9-2,1.68-3.14,2.32-.32.18-.65.35-.99.51-.15.07-.02.28.13.22h0Z" style="fill: #231f20;"/>
      <path d="M52.57,45.13c.95-1.61,1.7-3.33,2.22-5.12.04-.15-.2-.22-.24-.07-.51,1.77-1.25,3.48-2.19,5.06-.08.14.13.26.22.13h0Z" style="fill: #231f20;"/>
      <path d="M41.3,39.13l1.82-1.86.52-.53c.11-.12-.06-.29-.18-.18l-1.82,1.86-.52.53c-.11.12.06.29.18.18h0Z" style="fill: #231f20;"/>
      <path d="M21.56,57l2.43-3.45c.09-.13-.12-.26-.22-.13l-2.43,3.45c-.09.13.12.26.22.13h0Z" style="fill: #231f20;"/>
      <path d="M20.81,67.92c.16,0,.16-.25,0-.25s-.16.25,0,.25h0Z" style="fill: #231f20;"/>
      <path d="M7.62,62.52l1.19-.99.34-.28c.05-.04.05-.13,0-.18-.05-.05-.12-.04-.18,0l-1.19.99-.34.28c-.05.04-.05.13,0,.18.05.05.12.04.18,0h0Z" style="fill: #231f20;"/>
      <path d="M63.06,39.61c.62-1.67,1.38-3.29,2.29-4.82.08-.14-.13-.26-.22-.13-.92,1.55-1.69,3.19-2.31,4.88-.06.15.19.22.24.07h0Z" style="fill: #231f20;"/>
      <path d="M68.2,39.95l2.55-.77c.15-.05.09-.29-.07-.24l-2.55.77c-.15.05-.09.29.07.24h0Z" style="fill: #231f20;"/>
      <path d="M65.12,42.26l.13,2.81c0,.16.26.16.25,0l-.13-2.81c0-.16-.26-.16-.25,0h0Z" style="fill: #231f20;"/>
      <path d="M47.49,25.02c.16,0,.16-.25,0-.25s-.16.25,0,.25h0Z" style="fill: #231f20;"/>
      <path d="M45.84,28.05l-.64,2.68c-.04.16.2.22.24.07l.64-2.68c.04-.16-.2-.22-.24-.07h0Z" style="fill: #231f20;"/>
      <path d="M54.36,31.34l1.5-2.45c.08-.14-.13-.26-.22-.13l-1.5,2.45c-.08.14.13.26.22.13h0Z" style="fill: #231f20;"/>
      <path d="M48.32,22.8l1.78,2.18.51.63c.04.05.13.04.18,0,.05-.05.04-.12,0-.18l-1.78-2.18-.51-.63c-.04-.05-.13-.04-.18,0-.05.05-.04.12,0,.18h0Z" style="fill: #231f20;"/>
      <path d="M80.21,13.24c.89.69,1.73,1.44,2.53,2.24.23.23.45.46.66.69.11.12.29-.06.18-.18-.76-.83-1.58-1.61-2.44-2.33-.25-.21-.49-.41-.75-.6-.05-.04-.12-.05-.18,0-.04.04-.05.14,0,.18h0Z" style="fill: #231f20;"/>
      <path d="M80.08,10.72l1.91-.77c.06-.03.11-.08.09-.15-.02-.06-.09-.11-.15-.09l-1.91.77c-.06.03-.11.08-.09.15.02.06.09.11.15.09h0Z" style="fill: #231f20;"/>
      <path d="M84.73,13.53c1.18.4,2.33.9,3.43,1.49.14.08.27-.14.13-.22-1.12-.61-2.29-1.11-3.49-1.52-.15-.05-.22.19-.07.24h0Z" style="fill: #231f20;"/>
      <path d="M1.66,69.64c.16,0,.16-.25,0-.25s-.16.25,0,.25h0Z" style="fill: #231f20;"/>
      <path d="M1.55,69.29c-.03.18,0,.36.06.52s.17.31.31.42c.09.07.18.12.28.16.06.02.14-.02.15-.09.02-.07-.02-.13-.09-.15,0,0-.02,0-.03,0,0,0,0,0-.01,0,.03.01.02,0,.01,0-.02,0-.04-.02-.05-.03-.03-.02-.07-.04-.1-.06,0,0-.03-.03,0,0,0,0-.01-.01-.02-.02-.01-.01-.03-.02-.04-.04-.03-.03-.05-.05-.08-.08,0,0,0,0,0-.01,0-.01.02.02,0,0,0,0-.01-.01-.02-.02-.01-.02-.02-.03-.03-.05-.02-.03-.04-.07-.05-.1,0,0,0-.02-.01-.02.02.03,0,0,0,0,0-.02-.01-.04-.02-.06-.01-.04-.02-.07-.03-.11,0,0,0-.02,0-.03,0-.02,0,.03,0,.01,0,0,0-.01,0-.02,0-.02,0-.04,0-.06s0-.04,0-.06c0-.01,0-.02,0-.03,0,0,0,0,0-.01,0-.02,0,.03,0,0,0-.03,0-.06-.01-.1-.02-.03-.04-.05-.07-.06-.06-.01-.14.02-.15.09h0Z" style="fill: #231f20;"/>
      <path d="M2.24,68.68c.16,0,.16-.25,0-.25s-.16.25,0,.25h0Z" style="fill: #231f20;"/>
      <path d="M2.96,68.63l1.9.99c.06.03.14.02.17-.04.03-.06.02-.14-.04-.17l-1.9-.99c-.06-.03-.14-.02-.17.04-.03.06-.02.14.04.17h0Z" style="fill: #231f20;"/>
      <path d="M4.53,67.53c.16,0,.16-.25,0-.25s-.16.25,0,.25h0Z" style="fill: #231f20;"/>
      <path d="M4.83,68.07c.08.06.15.12.21.2.02.02.03.04.05.06-.02-.02,0,0,0,.01,0,.01.02.02.02.03.03.04.05.08.08.12s.05.08.07.13c0,.01,0,.02.01.03,0-.02,0,0,0,.01,0,.02.02.04.02.07.03.09.05.19.07.28,0-.03,0,0,0,.02,0,.01,0,.03,0,.04,0,.03,0,.05,0,.08,0,.06,0,.11,0,.17,0,.07.06.13.12.12.07,0,.12-.06.12-.12.04-.43-.11-.85-.37-1.19-.07-.09-.15-.17-.24-.24-.05-.04-.13-.05-.18,0-.04.04-.06.13,0,.18h0Z" style="fill: #231f20;"/>
      <path d="M4.53,68.68c.16,0,.16-.25,0-.25s-.16.25,0,.25h0Z" style="fill: #231f20;"/>
      <path d="M4.95,67.81l1.54-1.28.44-.37c.05-.04.04-.13,0-.18-.05-.05-.12-.04-.18,0l-1.54,1.28-.44.37c-.05.04-.04.13,0,.18.05.05.12.04.18,0h0Z" style="fill: #231f20;"/>
      <path d="M5.68,66.58c.16,0,.16-.25,0-.25s-.16.25,0,.25h0Z" style="fill: #231f20;"/>
      <path d="M5.89,66.08c.93-.18,1.89-.19,2.82-.04.07.01.13-.02.15-.09.02-.06-.02-.14-.09-.15-.98-.16-1.98-.14-2.95.04-.16.03-.09.27.07.24h0Z" style="fill: #231f20;"/>
      <path d="M7.6,65.81c.16,0,.16-.25,0-.25s-.16.25,0,.25h0Z" style="fill: #231f20;"/>
      <path d="M7.15,66.34c-.63.47-.95,1.28-.84,2.05.03.22.1.42.19.62.07.14.29.02.22-.13-.31-.61-.21-1.37.17-1.93.11-.15.24-.29.39-.4.05-.04.08-.11.04-.17-.03-.05-.12-.09-.17-.04h0Z" style="fill: #231f20;"/>
      <path d="M3.39,67.53c.16,0,.16-.25,0-.25s-.16.25,0,.25h0Z" style="fill: #231f20;"/>
      <path d="M3.06,67.02c-.29-.1-.62-.03-.88.13s-.46.41-.55.71c-.05.17-.05.35,0,.52.02.06.09.11.15.09s.1-.09.09-.15c0-.02,0-.03-.01-.05,0,0,0-.02,0-.02h0s0-.02,0,0c0,0,0-.09,0-.1,0-.03,0-.07,0-.1,0-.02,0,0,0,0,0,0,0-.02,0-.02,0-.02,0-.04.01-.06,0-.03.02-.06.03-.09,0-.02.01-.03.02-.05h0s0-.02,0,0c0,0,.01-.02.01-.03.03-.06.06-.11.1-.16,0,0,0-.01.01-.02,0,0,.01-.03,0,0,0-.01.02-.03.03-.04.02-.03.05-.05.07-.07s.05-.04.07-.06c0,0,.01,0,.02-.01,0,0,.02-.02,0,0,.01-.01.03-.02.05-.03.06-.04.11-.07.17-.1,0,0,.01,0,.02,0-.03,0,0,0,0,0,.02,0,.03-.01.05-.02.03-.01.06-.02.09-.03.02,0,.04,0,.06-.01h0s.01,0,0,0c0,0,.02,0,.03,0,.04,0,.07,0,.11,0,.02,0,.04,0,.06,0,0,0,.02,0,.02,0-.02,0-.02,0,0,0,0,0,.01,0,.02,0,.04,0,.08.02.11.03.06.02.14-.02.15-.09.02-.07-.02-.13-.09-.15h0Z" style="fill: #231f20;"/>
      <path d="M30.58,55.28c.16,0,.16-.25,0-.25s-.16.25,0,.25h0Z" style="fill: #231f20;"/>
      <path d="M32.11,55.06c1.36.08,2.73-.23,3.91-.91.14-.08.01-.3-.13-.22-1.15.65-2.47.95-3.79.87-.16-.01-.16.24,0,.25h0Z" style="fill: #231f20;"/>
      <path d="M35.17,52.02c.16,0,.16-.25,0-.25s-.16.25,0,.25h0Z" style="fill: #231f20;"/>
      <path d="M35.12,52.06c-.1.57-.19,1.18-.02,1.75.14.46.5.85.96,1,.25.08.52.06.76-.06.14-.07.02-.29-.13-.22-.35.17-.75.01-1.02-.24-.35-.33-.44-.81-.43-1.28,0-.3.05-.6.1-.9.01-.07-.02-.13-.09-.15-.06-.02-.14.02-.15.09h0Z" style="fill: #231f20;"/>
      <path d="M33.83,53.17c.16,0,.16-.25,0-.25s-.16.25,0,.25h0Z" style="fill: #231f20;"/>
      <path d="M36.51,51.06c.16,0,.16-.25,0-.25s-.16.25,0,.25h0Z" style="fill: #231f20;"/>
      <path d="M36.59,51.77c.43.78.97,1.51,1.59,2.16.18.19.36.37.55.54.12.11.3-.07.18-.18-.65-.59-1.23-1.26-1.71-2-.14-.21-.27-.43-.39-.65-.08-.14-.29-.01-.22.13h0Z" style="fill: #231f20;"/>
      <path d="M36.32,52.21c.16,0,.16-.25,0-.25s-.16.25,0,.25h0Z" style="fill: #231f20;"/>
      <path d="M35.94,52.6c.16,0,.16-.25,0-.25s-.16.25,0,.25h0Z" style="fill: #231f20;"/>
      <path d="M35.4,53.01l-.14.62c-.02.1.09.2.18.14.95-.58,1.87-1.23,2.73-1.93.25-.2.49-.4.72-.61.12-.11-.06-.28-.18-.18-.83.73-1.7,1.4-2.62,2.01-.26.17-.52.34-.79.5l.18.14.14-.62c.04-.16-.21-.22-.24-.07h0Z" style="fill: #231f20;"/>
      <path d="M34.22,52.21c.16,0,.16-.25,0-.25s-.16.25,0,.25h0Z" style="fill: #231f20;"/>
      <path d="M37.85,52.98c.16,0,.16-.25,0-.25s-.16.25,0,.25h0Z" style="fill: #231f20;"/>
      <path d="M37.65,53.49c.86.05,1.74-.14,2.5-.55.22-.11.42-.25.61-.39.05-.04.08-.11.04-.17-.03-.05-.12-.09-.17-.04-.85.65-1.92.97-2.99.91-.16,0-.16.24,0,.25h0Z" style="fill: #231f20;"/>
      <path d="M46.85,51.06c.16,0,.16-.25,0-.25s-.16.25,0,.25h0Z" style="fill: #231f20;"/>
      <path d="M49.73,50.87c.16,0,.16-.25,0-.25s-.16.25,0,.25h0Z" style="fill: #231f20;"/>
      <path d="M49.15,51.26c.16,0,.16-.25,0-.25s-.16.25,0,.25h0Z" style="fill: #231f20;"/>
      <path d="M46.28,51.83h2.49c.16,0,.16-.25,0-.25h-2.49c-.16,0-.16.25,0,.25h0Z" style="fill: #231f20;"/>
      <path d="M43.98,50.87c.16,0,.16-.25,0-.25s-.16.25,0,.25h0Z" style="fill: #231f20;"/>
      <path d="M42.58,52.58l3.45,1.72c.14.07.27-.14.13-.22l-3.45-1.72c-.14-.07-.27.14-.13.22h0Z" style="fill: #231f20;"/>
      <path d="M41.88,50.49l5.74-.59c.16-.02.16-.27,0-.25l-5.74.59c-.16.02-.16.27,0,.25h0Z" style="fill: #231f20;"/>
      <path d="M45.9,50.87c.16,0,.16-.25,0-.25s-.16.25,0,.25h0Z" style="fill: #231f20;"/>
      <path d="M48.58,50.49c.16,0,.16-.25,0-.25s-.16.25,0,.25h0Z" style="fill: #231f20;"/>
      <path d="M53.97,50.1l1.53-.38c.06-.02.11-.09.09-.15s-.09-.1-.15-.09l-1.53.38c-.06.02-.11.09-.09.15s.09.1.15.09h0Z" style="fill: #231f20;"/>
      <path d="M86.22,28.79l1.72-2.3c.04-.05,0-.14-.04-.17-.06-.04-.13,0-.17.04l-1.72,2.3c-.04.05,0,.14.04.17.06.04.13,0,.17-.04h0Z" style="fill: #231f20;"/>
      <path d="M86.11,28.09c.16,0,.16-.25,0-.25s-.16.25,0,.25h0Z" style="fill: #231f20;"/>
      <path d="M89.56,26.36c.16,0,.16-.25,0-.25s-.16.25,0,.25h0Z" style="fill: #231f20;"/>
      <path d="M99.9,11.81c.16,0,.16-.25,0-.25s-.16.25,0,.25h0Z" style="fill: #231f20;"/>
      <path d="M96.14,22.86c1.5,2.06,2.72,4.31,3.64,6.69l.23-.1c-1.49-2.15-1.77-4.82-2.61-7.24-.2-.58-.44-1.16-.72-1.7-.15-.29-.53-1.12-.99-.77-.4.31,0,1.08.12,1.42.26.76.52,1.52.78,2.28.58,1.7,1.16,3.39,1.74,5.09l.09-.15c-.62.19-.93-.96-1.11-1.36-.28-.63-.59-1.25-.93-1.86-.66-1.19-1.43-2.32-2.28-3.38-.08-.1-.25,0-.21.12.56,1.6,1.52,3,2.48,4.38l.17-.17c-1.61-1.21-1.83-3.57-3.6-4.63-.1-.06-.2.04-.18.14.32,1.6.81,3.17,1.46,4.67l.2-.15c-.66-.78-1.32-1.55-1.98-2.33-.07-.08-.22-.02-.21.09.14,1.44.61,2.83,1.38,4.05l.11-.19c-.72-.08-1.11-.81-1.37-1.41-.25-.56-.48-1.12-.98-1.51-.09-.07-.21.05-.18.14.48,1.79,1.19,3.5,2.12,5.09.07.13.26.04.23-.1-.39-1.72-1.26-3.29-2.51-4.53-.08-.08-.26,0-.21.12.58,1.49,1.16,2.98,1.73,4.47l.09-.15c-.51.14-.91-.31-1.17-.69-.3-.43-.53-.91-.79-1.37-.56-.98-1.11-1.96-1.67-2.94-.07-.12-.22-.05-.23.06-.17,1.74.69,3.34,1.5,4.82.07.12.28.04.23-.1-.53-1.36-1.19-2.66-1.99-3.88-.09-.13-.3,0-.22.13.78,1.2,1.44,2.48,1.96,3.82l.23-.1c-.8-1.44-1.63-2.99-1.47-4.69l-.23.06c.65,1.14,1.3,2.29,1.95,3.43.39.69.96,1.95,1.97,1.68.06-.02.11-.09.09-.15-.58-1.49-1.16-2.98-1.73-4.47l-.21.12c1.22,1.21,2.06,2.74,2.44,4.42l.23-.1c-.92-1.58-1.62-3.27-2.09-5.03l-.18.14c1.03.79.93,2.78,2.48,2.95.1.01.15-.11.11-.19-.75-1.19-1.21-2.53-1.34-3.93l-.21.09c.66.78,1.32,1.55,1.98,2.33.1.12.25-.03.2-.15-.64-1.48-1.12-3.03-1.43-4.61l-.18.14c1.75,1.05,1.98,3.43,3.6,4.63.1.07.24-.07.17-.17-.95-1.36-1.9-2.74-2.46-4.32l-.21.12c.97,1.2,1.82,2.49,2.53,3.86.34.65.62,1.33.93,2,.19.43.56.97,1.1.8.06-.02.11-.09.09-.15-.47-1.37-.94-2.74-1.4-4.12-.23-.67-.46-1.34-.68-2s-.5-1.3-.67-1.96c-.03-.13-.12-.6.25-.4.1.06.17.23.23.33.15.26.29.53.42.81.25.54.45,1.1.63,1.67.34,1.1.6,2.22.93,3.32.36,1.21.81,2.41,1.53,3.45.07.11.28.04.23-.1-.92-2.4-2.15-4.67-3.66-6.75-.09-.13-.31,0-.22.13h0Z" style="fill: #231f20;"/>
      <path d="M84.46,26.5c1.09,1.53,2.18,3.06,3.26,4.59.09.13.31,0,.22-.13-1.09-1.53-2.18-3.06-3.26-4.59-.09-.13-.31,0-.22.13h0Z" style="fill: #231f20;"/>
      <path d="M84.66,27.07c.88,1.21,1.65,2.49,2.3,3.83.07.14.29.02.22-.13-.65-1.34-1.42-2.62-2.3-3.83-.09-.13-.31,0-.22.13h0Z" style="fill: #231f20;"/>
      <path d="M83.14,27.41l1.16,3.83c.05.15.29.09.24-.07l-1.16-3.83c-.05-.15-.29-.09-.24.07h0Z" style="fill: #231f20;"/>
      <path d="M83.62,28.28c.16,0,.16-.25,0-.25s-.16.25,0,.25h0Z" style="fill: #231f20;"/>
      <path d="M84.27,27.96c.15,2.34.52,4.67,1.12,6.94.04.16.28.09.24-.07-.59-2.25-.96-4.55-1.11-6.87,0-.16-.26-.16-.25,0h0Z" style="fill: #231f20;"/>
      <path d="M83.7,25.34c.57,1.02,1.15,2.04,1.72,3.06.08.14.29.01.22-.13-.57-1.02-1.15-2.04-1.72-3.06-.08-.14-.29-.01-.22.13h0Z" style="fill: #231f20;"/>
      <path d="M83.05,23.87c.16,0,.16-.25,0-.25s-.16.25,0,.25h0Z" style="fill: #231f20;"/>
      <path d="M86.08,24.61l4.98,1.16c.16.04.22-.2.07-.24l-4.98-1.16c-.16-.04-.22.2-.07.24h0Z" style="fill: #231f20;"/>
      <path d="M85.7,24.8c1.81.54,3.69.83,5.58.86.16,0,.16-.25,0-.25-1.87-.03-3.72-.32-5.51-.85-.15-.05-.22.2-.07.24h0Z" style="fill: #231f20;"/>
      <path d="M83.81,25.21c.16,0,.16-.25,0-.25s-.16.25,0,.25h0Z" style="fill: #231f20;"/>
      <path d="M86.98,27.28l1.34,1.64.38.47c.04.05.13.04.18,0,.05-.05.04-.12,0-.18l-1.34-1.64-.38-.47c-.04-.05-.13-.04-.18,0-.05.05-.04.12,0,.18h0Z" style="fill: #231f20;"/>
      <path d="M86.77,27.45c.83,1.21,1.66,2.43,2.49,3.64.09.13.31,0,.22-.13-.83-1.21-1.66-2.43-2.49-3.64-.09-.13-.31,0-.22.13h0Z" style="fill: #231f20;"/>
      <path d="M94.73,22.72c.16,0,.16-.25,0-.25s-.16.25,0,.25h0Z" style="fill: #231f20;"/>
      <path d="M96.92,28.41l1.34,2.68c.07.14.29.02.22-.13l-1.34-2.68c-.07-.14-.29-.02-.22.13h0Z" style="fill: #231f20;"/>
      <path d="M80.94,17.37l2.75-.29c.33-.03.71-.04.95-.31.17-.18.2-.44.16-.67-.12-.69-.74-1.19-1.24-1.61-.61-.51-1.29-.94-2-1.3l-.03.23c.39-.14.8-.16,1.2-.05.34.1.62.38.98.42.62.06.87-.73,1.45-.82s1.24.29,1.8.5,1.16.32,1.75.08c.66-.27,1.26-.87,2.02-.78.16.02.16-.23,0-.25-.64-.08-1.18.31-1.72.6-.3.17-.62.31-.97.32-.33,0-.65-.09-.95-.2-.56-.2-1.13-.53-1.74-.54-.26,0-.52.07-.74.22-.25.17-.43.51-.73.6-.24.07-.46-.11-.66-.22-.17-.09-.35-.16-.54-.21-.41-.09-.83-.06-1.22.08-.09.03-.13.18-.03.23.62.31,1.21.67,1.76,1.1.48.38,1.07.82,1.3,1.41.11.27.14.62-.15.79s-.78.15-1.12.18l-2.27.24c-.16.02-.16.27,0,.25h0Z" style="fill: #231f20;"/>
      <path d="M47.46,46.64c.75-.24,1.48-.56,2.16-.96.29-.17.61-.35.83-.61.24-.27.27-.61.23-.95-.05-.41-.09-.79,0-1.2s.23-.77.4-1.13c.29-.61.58-1.45,1.36-1.52.38-.04.76,0,1.08-.23.25-.19.39-.5.24-.79-.08-.14-.29-.02-.22.13.19.34-.32.59-.58.62-.32.04-.66,0-.96.13-.57.24-.83.91-1.07,1.42-.3.63-.57,1.32-.55,2.03.01.34.15.71.05,1.05s-.45.53-.73.71c-.72.45-1.49.8-2.29,1.05-.15.05-.09.29.07.24h0Z" style="fill: #231f20;"/>
      <path d="M22.19,56.23c1.94-.58,3.67-1.67,5.32-2.81.76-.53,1.64-1.03,2.2-1.79.05-.07.14-.28.23-.29.1,0,.17.19.18.25.05.2.04.44.02.64-.04.41-.16.82-.35,1.19-.43.84-1.19,1.5-2.11,1.73-.16.04-.09.28.07.24.86-.22,1.59-.78,2.08-1.53.24-.37.41-.78.51-1.21.08-.38.16-.9-.01-1.27-.06-.14-.17-.28-.33-.3-.21-.03-.31.15-.42.3-.31.46-.75.81-1.2,1.13-.91.65-1.83,1.29-2.79,1.87-1.09.66-2.23,1.24-3.46,1.6-.15.05-.09.29.07.24h0Z" style="fill: #231f20;"/>
      <path d="M62.83,29.3c.09-1.59-1.09-2.94-.96-4.52.06-.7.5-1.41,1.21-1.59.64-.16,1.1.29,1.51.71.34.35.71.74,1.22.8.37.05.73-.08,1.07.13.26.16.44.41.61.66.37.54.72,1.04,1.28,1.4.15.1.33.17.47.29.17.15.2.34.19.56-.02.35-.1.71-.23,1.04-.16.4-.4.72-.66,1.06-.17.22-.18.49.06.66.3.21.77.23,1.11.3.48.1.97.19,1.45.29.16.03.22-.21.07-.24-.44-.09-.88-.18-1.32-.26-.21-.04-.42-.08-.64-.13-.17-.03-.43-.05-.56-.18-.17-.16.1-.39.2-.52.12-.15.22-.31.32-.48.17-.31.3-.64.37-.99.07-.31.13-.68.03-.98s-.4-.44-.67-.6c-.34-.21-.64-.48-.88-.79-.2-.26-.36-.54-.55-.79-.17-.22-.36-.43-.6-.55-.32-.16-.63-.1-.98-.11-.62-.02-1.01-.58-1.42-.97s-.89-.67-1.46-.56-1.06.6-1.29,1.13c-.34.79-.13,1.71.13,2.49.3.9.72,1.78.67,2.75,0,.16.24.16.25,0h0Z" style="fill: #231f20;"/>
      <path d="M67.19,31.92c1.36-.28,2.78-.3,4.15-.05.16.03.22-.21.07-.24-1.42-.26-2.87-.25-4.28.05-.16.03-.09.27.07.24h0Z" style="fill: #231f20;"/>
      <path d="M66.16,34.62c-.38-1.87-.37-3.81.01-5.67l-.21.06c.44.41.89.82,1.33,1.23.18.17.37.39.62.47s.51.03.76.04c.99.03,1.97.32,2.82.82.49.29.94.65,1.33,1.06.11.12.29-.06.18-.18-.66-.71-1.49-1.25-2.4-1.58-.45-.17-.92-.28-1.4-.33-.25-.03-.49-.04-.74-.04-.12,0-.25.01-.37,0-.17-.02-.28-.12-.41-.24-.51-.47-1.02-.95-1.53-1.42-.06-.06-.19-.04-.21.06-.4,1.91-.4,3.89-.01,5.81.03.16.27.09.24-.07h0Z" style="fill: #231f20;"/>
      <path d="M43.68,25.33c.26-1.59,1.66-2.92,3.28-3.04.72-.06,1.55.01,1.87-.79.17-.43.14-1.61.86-1.5.47.07.75.61,1.12.87.33.23.75.35,1.08.07.12-.1-.05-.28-.18-.18-.39.33-.9-.2-1.15-.46s-.58-.57-.97-.55c-.71.03-.77.85-.89,1.38-.09.38-.25.69-.65.81s-.83.07-1.25.12c-.76.1-1.47.44-2.05.94-.67.58-1.15,1.39-1.29,2.27-.03.16.21.23.24.07h0Z" style="fill: #231f20;"/>
      <path d="M38.27,44.63c1.1-1.63,2.2-3.26,3.3-4.89l.4-.6c.13-.19.26-.42.48-.51.39-.14.84.16,1.18.31.6.28,1.25.34,1.89.19.71-.17,1.34-.59,1.75-1.19.09-.13-.13-.26-.22-.13-.4.59-1.03.97-1.73,1.11-.34.06-.69.07-1.03,0-.37-.08-.7-.27-1.04-.41-.3-.13-.66-.23-.97-.07s-.52.55-.72.85l-1.66,2.46-1.87,2.76c-.09.13.13.26.22.13h0Z" style="fill: #231f20;"/>
      <path d="M35.26,52.72c.56.88,1.19,1.71,1.88,2.49.08.09.21.01.21-.09.05-.94.1-1.87.15-2.81l-.23.06c.32.47.64.95.97,1.42l.48.71c.13.19.24.41.42.55.27.22.61.1.75-.2.18-.39.1-.83.06-1.24-.06-.64-.11-1.28-.17-1.92l-.21.09c.85.86,1.64,1.76,2.39,2.71.1.13.28-.05.18-.18-.74-.95-1.54-1.85-2.39-2.71-.07-.07-.22-.02-.21.09.06.63.11,1.26.17,1.89.02.26.07.52.05.78,0,.16-.04.39-.17.51-.2.17-.39-.13-.49-.27-.17-.25-.35-.51-.52-.76-.36-.53-.72-1.05-1.08-1.58-.07-.1-.23-.06-.23.06-.05.94-.1,1.87-.15,2.81l.21-.09c-.68-.76-1.3-1.58-1.85-2.44-.09-.14-.3-.01-.22.13h0Z" style="fill: #231f20;"/>
      <path d="M41.68,49.53c.16,0,.16-.25,0-.25s-.16.25,0,.25h0Z" style="fill: #231f20;"/>
      <path d="M43.98,49.72c.16,0,.16-.25,0-.25s-.16.25,0,.25h0Z" style="fill: #231f20;"/>
      <path d="M44.92,50.06c1.31.49,2.54,1.21,3.61,2.1.31.26.6.53.89.81.11.11.29-.06.18-.18-1.02-1.02-2.2-1.87-3.5-2.49-.36-.18-.74-.34-1.12-.48-.15-.06-.22.18-.07.24h0Z" style="fill: #231f20;"/>
      <path d="M48,49.34c.16,0,.16-.25,0-.25s-.16.25,0,.25h0Z" style="fill: #231f20;"/>
      <path d="M50.49,49.34c.16,0,.16-.25,0-.25s-.16.25,0,.25h0Z" style="fill: #231f20;"/>
      <path d="M24.64,42.83c.16,0,.16-.25,0-.25s-.16.25,0,.25h0Z" style="fill: #231f20;"/>
      <path d="M24.13,42.6c-.27-.17-.58-.24-.89-.21-.11.01-.17.13-.09.21.38.41.99.9,1.55.48.26-.2.26-.5.19-.79-.09-.4-.2-.8-.31-1.2l-.15.15c.71.15,1.38.4,2.02.73.1.05.21-.03.18-.14-.2-.87-.51-1.7-.92-2.49l-.17.17c.95.52,1.89,1.04,2.84,1.56.09.05.22-.03.18-.14-.33-.96-.81-1.86-1.41-2.67l-.17.17c.91.39,1.82.79,2.73,1.18.15.06.27-.15.13-.22-.91-.39-1.82-.79-2.73-1.18-.1-.04-.25.06-.17.17.59.8,1.06,1.68,1.38,2.61l.18-.14c-.95-.52-1.89-1.04-2.84-1.56-.11-.06-.23.06-.17.17.4.77.7,1.58.9,2.43l.18-.14c-.66-.34-1.36-.6-2.08-.76-.09-.02-.18.06-.15.15.08.3.15.6.23.9.06.24.22.6,0,.8-.42.4-.96-.13-1.25-.43l-.09.21c.28-.03.53.03.76.18.14.09.26-.13.13-.22h0Z" style="fill: #231f20;"/>
      <path d="M14.81,55.7c-1.67.02-3.27.69-4.48,1.83-.61.58-1.13,1.29-1.46,2.07s.04,1.15.67,1.61c1.18.88,2.81,1.13,4.21.69,1.75-.56,2.63-2.15,3.47-3.66,2.02-3.66,5.11-6.56,8.95-8.23,2.1-.92,4.3-1.42,6.5-2.01.7-.19,1.45-.46,1.92-1.04.54-.67.43-1.53.38-2.34-.16-2.59.24-5.42,1.43-7.76.65-1.28,1.65-2,3.06-2.25s2.86-.18,4.25.13c.16.04.22-.21.07-.24-1.78-.41-3.93-.53-5.63.23s-2.34,2.63-2.8,4.26c-.57,1.98-.72,4-.59,6.05.04.59.05,1.19-.3,1.69-.29.41-.73.65-1.19.83-.87.33-1.81.49-2.7.73-3.76,1-7.3,2.53-10.12,5.28-1.27,1.24-2.36,2.66-3.24,4.21-.93,1.65-1.82,3.51-3.83,3.99-.94.22-1.95.13-2.84-.25-.43-.19-.96-.46-1.25-.84-.47-.6-.08-1.25.28-1.8,1.14-1.77,3.16-2.88,5.26-2.91.16,0,.16-.25,0-.25h0Z" style="fill: #231f20;"/>
      <path d="M44.27,34.8c4.08.69,7.64,2.98,11.64,3.94,1.87.45,3.85.62,5.73.15.67-.17,1.39-.38,1.74-1.03.4-.74.38-1.8.36-2.62-.09-4.17-2.35-7.82-3.87-11.57-.39-.95-.73-1.92-.98-2.91-.24-.94-.5-2.03-.16-2.98.39-1.11,1.63-1.49,2.7-1.26,1,.21,1.83.89,2.58,1.55,3.09,2.73,6.08,5.64,8.64,8.89s4.48,6.64,5.97,10.35,2.39,7.39,2.82,11.24c.21,1.91.29,3.84.24,5.76-.06,2.04-.34,4.06-.5,6.09-.11,1.44-.38,3.54.64,4.76s2.57.37,3.38-.6c.92-1.1,1.24-2.57,1.35-3.96.17-1.99.02-4.03-.25-6-.15-1.07-.35-2.13-.6-3.18-.04-.16-.28-.09-.24.07.5,2.13.8,4.31.87,6.5.06,1.71.06,3.54-.59,5.15-.33.82-.88,1.61-1.67,2.06-1.1.63-2.11.16-2.49-.99-.3-.9-.26-1.91-.22-2.85.04-1.04.15-2.07.26-3.1.79-7.44-.19-14.9-3.11-21.8-1.42-3.36-3.26-6.52-5.5-9.4-2.47-3.19-5.37-6.03-8.36-8.73-1.13-1.02-2.43-2.23-4.08-2.12-1.43.09-2.27,1.17-2.27,2.56,0,1.83.78,3.73,1.48,5.39.78,1.87,1.71,3.67,2.44,5.57s1.31,3.99,1.25,6.08c-.02.52-.04,1.09-.2,1.59-.22.69-.74.97-1.39,1.16-.99.29-2.02.39-3.05.35-4.16-.15-7.81-2.37-11.68-3.64-.93-.3-1.87-.55-2.83-.71-.16-.03-.22.21-.07.24h0Z" style="fill: #231f20;"/>
      <path d="M70.9,19.58c.62,1.06,1.47,1.97,2.51,2.62.47.3,2.09,1.37,2.52.58.2-.36.02-.93-.06-1.29-.12-.62-.29-1.23-.5-1.82-.4-1.15-.95-2.24-1.62-3.25-1.34-2.02-3.17-3.73-5.3-4.89-1.13-.61-2.31-.95-3.52-1.36-.78-.26-1.59-.67-1.91-1.48-.35-.9.23-1.74.96-2.23.59-.4,1.29-.61,1.95-.89s1.2-.66,1.78-1.03c.64-.41,1.32-.82,2.1-.86s1.57.33,2.17.86c1.21,1.06,1.63,2.65,2.11,4.13s1.16,2.83,1.83,4.21c1.46,2.98,2.41,6.16,2.67,9.48.12,1.57,0,3.17.27,4.73s.9,2.85,1.52,4.21c3.1,6.67,4.24,13.86,5.26,21.07.02.16.26.09.24-.07-.91-6.37-1.83-12.84-4.27-18.84-.59-1.46-1.34-2.85-1.9-4.32-.62-1.62-.76-3.23-.8-4.95-.06-3.17-.62-6.28-1.79-9.23-.58-1.47-1.35-2.86-2.01-4.3s-.97-2.93-1.6-4.35c-.5-1.13-1.31-2.2-2.49-2.67-1.1-.44-2.15-.12-3.12.47-.55.34-1.07.73-1.64,1.02-.68.35-1.42.55-2.09.91-.88.48-1.73,1.4-1.48,2.48.28,1.19,1.52,1.69,2.56,2,1.3.39,2.53.87,3.69,1.57,2.5,1.53,4.52,3.82,5.72,6.49.32.7.58,1.43.77,2.18.09.35.17.7.23,1.06.03.17.11.38.07.54-.11.52-.57.39-.89.27-1.59-.59-2.9-1.73-3.75-3.19-.08-.14-.3-.01-.22.13h0Z" style="fill: #231f20;"/>
      <path d="M49.05,31.54l5.2,2.08c1.4.56,2.9,1.27,4.45,1.03.84-.13,2.44-.75,1.73-1.81-.52-.77-.92-1.47-1.28-2.33s-.72-1.74-1.07-2.62c-1.3-3.25-2.69-6.68-2.33-10.26.08-.83.26-1.65.56-2.43.32-.86.8-1.88,1.61-2.38,1.58-.99,3.86.4,5.28,1.12,1.76.9,3.6,1.73,5.26,2.8,1.55,1,2.91,2.39,3.32,4.24.03.16.28.09.24-.07-.7-3.24-3.93-4.76-6.61-6.13-1.57-.81-3.15-1.74-4.84-2.29-1.42-.46-2.76-.3-3.66.98-1.9,2.71-1.69,6.38-.87,9.42.49,1.8,1.19,3.53,1.88,5.26.61,1.51,1.12,3.25,2.1,4.56.22.3.56.56.2.97-.15.18-.4.31-.6.42-.45.23-.97.32-1.47.33-1.01.02-1.98-.34-2.91-.71-2.04-.8-4.07-1.63-6.11-2.44-.15-.06-.21.18-.07.24h0Z" style="fill: #231f20;"/>
      <path d="M49.37,31.57c-3.19-.99-6.65-2.01-10.01-1.25-2.41.54-4.79,2.07-5.77,4.42-.63,1.52-.37,3.19-.78,4.76s-1.48,2.72-2.68,3.69c-2.58,2.09-5.62,3.55-8.36,5.42-2.94,2.02-5.4,4.53-7.07,7.71-.07.14.14.27.22.13,1.54-2.93,3.76-5.33,6.45-7.25,2.52-1.79,5.27-3.22,7.8-4.98,1.09-.76,2.15-1.6,2.93-2.68.86-1.19,1.1-2.5,1.2-3.94.11-1.62.41-3.05,1.47-4.32.9-1.08,2.13-1.86,3.44-2.35,3.62-1.34,7.56-.2,11.08.89.15.05.22-.19.07-.24h0Z" style="fill: #231f20;"/>
    </g>
  </g>
</svg>