<?xml version="1.0" encoding="UTF-8"?>
<svg id="Layer_2" data-name="Layer 2" xmlns="http://www.w3.org/2000/svg" viewBox="0 0 122.26 156.77">
  <g id="Coffee">
    <g>
      <path d="M67.69,50.87c-7.21-.88-14.53-.49-21.7.56s-13.79,2.61-20.37,4.9c-5.06,1.77-10.66,4.66-12.08,10.31-1.57,6.27,3.93,10.96,8.77,13.74,11.46,6.57,25.35,7.86,38.31,7.59,6.33-.13,12.69-.67,18.88-2.03,5.82-1.28,11.94-3.28,16.68-7.02,4.1-3.23,8.28-9.51,4.9-14.63-1.52-2.31-4.03-4.01-6.36-5.41-2.66-1.59-5.5-2.87-8.36-4.05-1.26-.52-2.52-1.02-3.79-1.51-.15-.06-.21.18-.07.24,5.4,2.12,11.12,4.26,15.64,8,2.26,1.87,4.07,4.2,3.9,7.28s-1.9,5.77-3.89,7.92-4.43,3.68-7.01,4.97c-2.71,1.35-5.57,2.38-8.49,3.18-6.02,1.66-12.27,2.39-18.5,2.69-12.53.6-25.77-.17-37.4-5.26-2.87-1.26-5.74-2.77-8.19-4.73-2.26-1.82-4.29-4.23-4.89-7.14s.56-6.07,2.55-8.31c1.85-2.09,4.35-3.51,6.89-4.6,2.73-1.16,5.59-2,8.44-2.79,3.32-.92,6.67-1.71,10.06-2.35,6.96-1.31,14.08-2.03,21.17-1.71,1.63.07,3.26.21,4.88.41.16.02.16-.23,0-.25h0Z" style="fill: #231f20;"/>
      <path d="M68.4,51.24c4.8.86,9.56,1.9,14.28,3.13.16.04.22-.2.07-.24-4.72-1.23-9.48-2.28-14.28-3.13-.16-.03-.22.21-.07.24h0Z" style="fill: #231f20;"/>
      <path d="M97.98,90.71c-2.49,7.52-4.97,15.26-9.51,21.84-2.33,3.37-5.28,6.21-8.53,8.7-3.06,2.34-6.42,4.31-10,5.75-4.15,1.67-8.54,2.61-12.99,2.98-.16.01-.16.26,0,.25,7.92-.66,15.46-3.25,21.94-7.9,3.23-2.31,6.27-4.99,8.7-8.15s4.4-6.89,6.01-10.63c1.79-4.17,3.2-8.47,4.63-12.77.05-.15-.19-.22-.24-.07h0Z" style="fill: #231f20;"/>
      <path d="M101.42,72.42c-.07,4.51-.81,8.97-1.96,13.33-.04.16.2.22.24.07,1.15-4.37,1.89-8.86,1.97-13.39,0-.16-.25-.16-.25,0h0Z" style="fill: #231f20;"/>
      <path d="M13.22,75.23c-.03,2.77.48,5.48,1.07,8.17.53,2.41,1.08,4.81,1.66,7.21,1.14,4.71,2.45,9.4,4.27,13.89s3.95,8.39,6.87,11.99c1.6,1.97,3.38,3.78,5.46,5.23,2.21,1.54,4.6,2.93,6.99,4.17,1.23.64,2.5,1.21,3.82,1.64,1.45.47,2.96.73,4.45,1.03s2.99.77,4.49,1.19c1.34.38,2.68.62,4.07.38.16-.03.09-.27-.07-.24-2.7.46-5.37-.94-7.96-1.48-1.31-.27-2.63-.49-3.92-.84s-2.54-.83-3.75-1.41c-2.28-1.09-4.48-2.42-6.62-3.76s-4.19-3.09-5.93-5.08c-6.21-7.11-9.29-16.27-11.56-25.28-.63-2.51-1.2-5.03-1.77-7.55-.69-3.05-1.35-6.13-1.32-9.27,0-.16-.25-.16-.25,0h0Z" style="fill: #231f20;"/>
      <path d="M100.23,85.44c.16,0,.16-.25,0-.25s-.16.25,0,.25h0Z" style="fill: #231f20;"/>
      <path d="M100.16,85.16c3.08-1.85,6.23-3.72,9.72-4.69,1.73-.48,3.87-.98,5.54-.06.81.45,1.41,1.23,1.47,2.18s-.35,1.84-.8,2.63c-1.57,2.76-3.69,5.28-5.91,7.53s-4.68,4.24-7.33,5.95c-3.02,1.94-6.27,3.5-9.67,4.64-.15.05-.09.29.07.24,6.44-2.14,12.34-5.82,17.11-10.65,1.2-1.21,2.33-2.5,3.37-3.84s2.07-2.69,2.82-4.18c.68-1.34.93-2.97-.23-4.13s-2.9-1.23-4.44-1c-4.31.66-8.16,2.96-11.84,5.17-.14.08-.01.3.13.22h0Z" style="fill: #231f20;"/>
      <path d="M103.23,74.7c2.2-1.02,4.63-1.39,7.04-1.3s4.66.64,6.63,1.97c3.72,2.51,5.53,7.01,5.03,11.41s-3.48,8.26-6.82,11.25-7.19,5.75-11.3,7.76c-2.37,1.16-4.85,1.99-7.39,2.7s-5.09,1.4-7.49,2.5c-.15.07-.02.28.13.22,2.38-1.09,4.92-1.77,7.43-2.48,2.34-.66,4.65-1.42,6.86-2.45,4.34-2.02,8.3-4.83,11.87-8.01,3.34-2.97,6.31-6.6,6.93-11.17.58-4.3-.98-8.71-4.41-11.43-3.98-3.15-10.14-3.28-14.62-1.19-.15.07-.02.28.13.22h0Z" style="fill: #231f20;"/>
      <path d="M116.31,81.22c.16,0,.16-.25,0-.25s-.16.25,0,.25h0Z" style="fill: #231f20;"/>
      <path d="M115.95,81.04c1.35,1.62,1.69,3.82,1.36,5.86-.35,2.18-1.47,4.12-2.79,5.85-.8,1.05-1.68,2.03-2.56,3.02-.11.12.07.3.18.18,2.96-3.29,6.27-7.22,5.42-11.98-.21-1.14-.68-2.21-1.42-3.1-.1-.12-.28.05-.18.18h0Z" style="fill: #231f20;"/>
      <path d="M15.81,95.85c-5.21,4.29-10.61,8.76-13.65,14.94C.79,113.58-.04,116.64,0,119.76s.94,6.37,2.31,9.26c2.76,5.81,7.37,10.76,12.78,14.19,5.68,3.6,12.25,5.68,18.73,7.31,12.93,3.26,26.55,4.18,39.74,2.01,6.51-1.07,12.9-2.91,18.94-5.57s11.49-5.88,15.55-10.83c6.86-8.37,8.32-20.69,3.88-30.52-.57-1.26-1.24-2.47-1.99-3.62-.09-.13-.3,0-.22.13,5.98,9.15,5.9,21.67.21,30.94-3.24,5.26-8.28,9.03-13.69,11.84-5.75,2.99-11.95,5.13-18.27,6.53-12.78,2.83-26.16,2.58-38.96,0-6.4-1.28-12.87-3.02-18.82-5.76s-11.13-6.77-14.92-12.11S-.87,121.55.85,114.99c1.69-6.46,6.4-11.49,11.31-15.75,1.26-1.09,2.54-2.15,3.83-3.21.12-.1-.05-.28-.18-.18h0Z" style="fill: #231f20;"/>
      <path d="M98.53,94.52c2.03.71,3.96,1.68,5.75,2.86.13.09.26-.13.13-.22-1.81-1.2-3.76-2.17-5.81-2.89-.15-.05-.22.19-.07.24h0Z" style="fill: #231f20;"/>
      <path d="M30.27,152.84c.16,0,.16-.25,0-.25s-.16.25,0,.25h0Z" style="fill: #231f20;"/>
      <path d="M19.55,146.84c.16,0,.16-.25,0-.25s-.16.25,0,.25h0Z" style="fill: #231f20;"/>
      <path d="M20.41,146.2c2.23.67,4.44,1.4,6.63,2.18.15.05.22-.19.07-.24-2.19-.78-4.41-1.51-6.63-2.18-.15-.05-.22.19-.07.24h0Z" style="fill: #231f20;"/>
      <path d="M19.04,145.71c6.01,4.11,12.92,6.66,19.97,8.33,7.75,1.85,15.74,2.76,23.71,2.73,4.43-.02,8.87-.37,13.15-1.56.15-.04.09-.28-.07-.24-3.83,1.07-7.8,1.46-11.77,1.54s-7.89-.1-11.81-.49c-7.53-.76-15.1-2.26-22.19-4.94-3.82-1.44-7.49-3.27-10.86-5.57-.13-.09-.26.13-.13.22h0Z" style="fill: #231f20;"/>
      <path d="M107.92,135.77c-3.51,3.61-7.04,7.25-11.06,10.29-4.09,3.09-8.66,5.24-13.53,6.83-2.76.9-5.57,1.64-8.37,2.38-.16.04-.09.28.07.24,4.99-1.32,10.01-2.64,14.7-4.83s8.61-5.23,12.3-8.67c2.09-1.95,4.09-4,6.08-6.05.11-.12-.06-.29-.18-.18h0Z" style="fill: #231f20;"/>
      <path d="M20.37,113.32c-3.34,3.73-4.65,9.05-3.64,13.94.29,1.38.76,2.71,1.42,3.96.07.14.29.02.22-.13-2.28-4.35-2.25-9.75-.12-14.15.61-1.25,1.38-2.41,2.3-3.44.11-.12-.07-.3-.18-.18h0Z" style="fill: #231f20;"/>
      <path d="M100.75,116.08c.57,6.12-1.47,12.36-5.43,17.04-1.13,1.33-2.41,2.53-3.82,3.56-.13.09,0,.31.13.22,5.03-3.69,8.39-9.45,9.25-15.61.24-1.72.28-3.47.12-5.2-.01-.16-.27-.16-.25,0h0Z" style="fill: #231f20;"/>
      <path d="M29.66,70.81c8.98-4.01,18.82-6.32,28.68-6.06,4.89.13,9.77.89,14.43,2.37,1.94.62,3.85,1.35,5.78,2.01,1.64.56,3.28,1.17,4.83,1.96,1.73.88,3.36,1.98,4.69,3.39,1.59,1.68,2.67,3.73,3.33,5.93.05.15.29.09.24-.07-1.09-3.65-3.36-6.62-6.6-8.62-3.07-1.89-6.57-2.81-9.92-4.06-9.4-3.51-19.7-3.95-29.52-2.13-5.54,1.02-10.93,2.76-16.07,5.06-.15.07-.02.28.13.22h0Z" style="fill: #231f20;"/>
      <path d="M42.34,37.37c-1.34-1.11-3.09-1.85-4.86-1.53-.8.14-1.57.5-2.17,1.05-.66.61-1,1.43-1.24,2.28-.26.93-.61,2.03-.09,2.93.08.14.3.01.22-.13-.44-.77-.17-1.7.04-2.49s.49-1.65,1.1-2.27c1.11-1.15,2.83-1.43,4.32-1.01.92.25,1.76.74,2.5,1.35.12.1.3-.07.18-.18h0Z" style="fill: #231f20;"/>
      <path d="M36.69,37.8c-.77,2.13-.44,4.45.5,6.47s2.55,4.01,4.69,4.87c1.43.58,2.96.98,4.43,1.44.15.05.22-.19.07-.24-1.23-.39-2.47-.76-3.7-1.18s-2.2-.97-3.09-1.87c-1.55-1.56-2.67-3.62-3-5.81-.18-1.22-.08-2.47.34-3.63.05-.15-.19-.22-.24-.07h0Z" style="fill: #231f20;"/>
      <path d="M42.73,32.46c-1.65-1.16-3.79-1.02-5.59-.31-1.07.42-2.05,1.01-3.03,1.61-.8.49-1.66.99-2.15,1.83-.52.88-.6,1.99-.68,2.99-.09,1.14-.07,2.29.07,3.42.27,2.12,1.01,4.19,2.27,5.93s2.93,3.04,4.92,3.74c.15.05.22-.19.07-.24-3.61-1.27-6.03-4.62-6.82-8.28-.44-2.03-.48-4.28-.04-6.32.25-1.14.9-1.85,1.86-2.47.81-.53,1.64-1.04,2.5-1.48,1.99-1.02,4.51-1.6,6.48-.21.13.09.26-.12.13-.22h0Z" style="fill: #231f20;"/>
      <path d="M44.15,30.88c-.21,6.73-.12,13.81,3.18,19.87.08.14.29.02.22-.13-3.28-6.03-3.35-13.06-3.15-19.75,0-.16-.25-.16-.25,0h0Z" style="fill: #231f20;"/>
      <path d="M99.85,32.06c.28,9.3-2.9,18.21-6.6,26.6-.06.15.15.27.22.13,3.72-8.43,6.91-17.38,6.63-26.73,0-.16-.25-.16-.25,0h0Z" style="fill: #231f20;"/>
      <path d="M97.01,53.88c3.77.85,7.42,2.58,10.08,5.43,1.4,1.51,2.63,3.42,2.76,5.53s-1.01,4.1-2.48,5.57c-1.57,1.58-3.59,2.65-5.76,3.11-.16.03-.09.27.07.24,1.96-.41,3.8-1.32,5.31-2.64s2.82-3.11,3.09-5.14c.56-4.18-3.22-7.85-6.48-9.81-2.01-1.2-4.22-2.02-6.49-2.54-.16-.04-.22.21-.07.24h0Z" style="fill: #231f20;"/>
      <path d="M44.63,30.96c7.85,5.65,17.81,5.7,27.08,5.46,2.67-.07,5.35-.16,8.02-.14.16,0,.16-.25,0-.25-9.23-.06-18.86,1.24-27.8-1.68-2.56-.84-4.98-2.04-7.17-3.61-.13-.09-.26.12-.13.22h0Z" style="fill: #231f20;"/>
      <path d="M72,22.93c.34,1.9-.35,3.79-1.41,5.36-.09.13.13.26.22.13,1.09-1.63,1.79-3.58,1.43-5.55-.03-.16-.27-.09-.24.07h0Z" style="fill: #231f20;"/>
      <path d="M70.11,26.27c.17-1.48-.14-2.89-.97-4.14s-1.93-2.2-2.95-3.24-1.91-2.11-2.42-3.46c-.41-1.09-1.06-3.04-.13-4.03.7-.75,1.54-.31,1.92.47.35.69.48,1.47.71,2.2.03.09.14.12.21.06,1.33-1.19.98-2.93.5-4.45-.28-.88-.64-1.77-.77-2.69-.1-.69-.06-1.42,0-2.12.13-1.45.45-3.69,1.91-4.43,1.06-.54,2.26.13,2.97.94.58.66,1.14,1.89.85,2.79-.39,1.23-2.97.03-3.79-.11-.06-.01-.14.02-.15.09-.31,1.47.19,2.81.82,4.13.35.73.72,1.46.95,2.24.1.33.29.82.23,1.16-.07.4-.59.85-.8,1.21-1.81,3.04.37,6.04,2.27,8.4.1.13.28-.05.18-.18-1.05-1.31-2.17-2.7-2.67-4.33-.24-.77-.31-1.58-.13-2.37.1-.43.26-.84.47-1.22.1-.19.22-.37.34-.54.09-.12.5-.54.57-.71.15-.4-.09-1.1-.21-1.49-.19-.63-.47-1.23-.75-1.82-.67-1.41-1.35-2.82-1.02-4.42l-.15.09c.73.13,1.44.39,2.16.54.49.1,1.13.23,1.58-.08.49-.34.44-1.03.36-1.54-.16-1.01-.65-1.89-1.46-2.53-.71-.56-1.68-.91-2.56-.55-.69.28-1.15.91-1.45,1.56-.72,1.53-.95,3.49-.77,5.16.23,2.2,2.46,5.21.36,7.09l.21.06c-.31-.98-.51-2.94-1.74-3.23-1.36-.32-1.86,1.26-1.81,2.29.07,1.34.55,2.74,1.27,3.87.92,1.44,2.24,2.55,3.41,3.77,1.5,1.57,2.46,3.32,2.2,5.55-.02.16.23.16.25,0h0Z" style="fill: #231f20;"/>
      <path d="M90.65,13.56c.16,0,.16-.25,0-.25s-.16.25,0,.25h0Z" style="fill: #231f20;"/>
      <path d="M70.19,19.92c.9,1.23,1.91,2.66,1.73,4.27-.02.16.23.16.25,0,.14-1.27-.45-2.46-1.13-3.49-.2-.31-.42-.61-.63-.9-.09-.13-.31,0-.22.13h0Z" style="fill: #231f20;"/>
      <path d="M69.58,25.7c.15,1.15.09,2.32-.17,3.45-.24,1.04-.62,2.11-.35,3.19.02.1.18.13.23.03.64-1.48,1.28-2.96,1.92-4.44.06-.15-.15-.27-.22-.13-.64,1.48-1.28,2.96-1.92,4.44l.23.03c-.28-1.09.16-2.18.39-3.23s.28-2.22.14-3.33c-.02-.16-.27-.16-.25,0h0Z" style="fill: #231f20;"/>
      <path d="M46.44,32.29c-.75-.43-1.6-.96-1.98-1.77-.51-1.11.35-2.03,1.22-2.62,1.54-1.05,3.22-1.94,4.92-2.71,3.58-1.63,7.42-2.68,11.33-3.1,2.16-.23,4.33-.27,6.5-.12.16.01.16-.24,0-.25-4.31-.3-8.65.17-12.81,1.36-2.03.58-4.01,1.34-5.91,2.25-.98.47-1.93.98-2.86,1.54-.79.47-1.68.94-2.28,1.66-1.39,1.66.34,3.18,1.75,3.98.14.08.27-.14.13-.22h0Z" style="fill: #231f20;"/>
      <path d="M77.65,36.54c4.06-.38,8.08-1.06,12.03-2.05,1.99-.5,3.97-1.07,5.92-1.74,1.34-.46,2.78-1.05,3.54-2.33.63-1.06.73-2.4.36-3.56-.42-1.32-1.4-2.17-2.68-2.67-1.86-.72-3.89-1.15-5.83-1.57s-3.9-.74-5.88-.97c-4.59-.54-9.24-.58-13.84-.13-.16.02-.16.27,0,.25,7.54-.74,15.2-.16,22.53,1.77,1.57.41,3.58.73,4.7,2.02.93,1.06,1.19,2.65.76,3.98-.53,1.61-2.04,2.37-3.54,2.89-1.78.62-3.59,1.15-5.41,1.63-4.15,1.08-8.39,1.82-12.66,2.22-.16.01-.16.26,0,.25h0Z" style="fill: #231f20;"/>
      <path d="M52.17,33.05c2.79-1.03,5.58-2.13,8.4-3.07s5.6-1.58,8.51-1.3c.16.02.16-.23,0-.25-2.87-.28-5.71.37-8.42,1.26-2.88.94-5.71,2.07-8.56,3.12-.15.06-.08.3.07.24h0Z" style="fill: #231f20;"/>
      <path d="M72.4,28.67c6.9-.25,13.82,1.16,20.06,4.11.14.07.27-.15.13-.22-6.29-2.97-13.24-4.4-20.19-4.15-.16,0-.16.26,0,.25h0Z" style="fill: #231f20;"/>
      <path d="M40.22,148.56c5.83,1.97,12.14,2.33,18.17,1.06.16-.03.09-.27-.07-.24-5.98,1.26-12.24.89-18.03-1.06-.15-.05-.22.19-.07.24h0Z" style="fill: #231f20;"/>
      <path d="M52.84,127.54c.1-2.77-2.16-4.79-4.16-6.36-2.58-2.03-5.15-4.06-7.5-6.35-4.67-4.57-8.63-10.4-9.14-17.09-.29-3.77.63-7.6-.41-11.3-.04-.15-.28-.09-.24.07.97,3.43.23,6.97.36,10.47.11,3.05.97,6.02,2.3,8.75,2.82,5.78,7.62,10.23,12.58,14.17,2.41,1.91,6.09,4.13,5.96,7.65,0,.16.24.16.25,0h0Z" style="fill: #231f20;"/>
      <path d="M33.12,100.49c-1.03.8-2.28,1.38-3.6,1.4-1.2.01-2.4-.51-3.13-1.48-.35-.47-.58-1.03-.6-1.62-.02-.82.6-1.34,1.39-1.35.66,0,1.29.32,1.85.63.49.28.95.61,1.39.96,1.67,1.33,3.1,3.05,5.1,3.92.95.41,2.2.72,3.1.03s.66-1.89.03-2.69c-.71-.9-1.91-1.37-3.05-1.27-1.27.11-2.41.83-3.21,1.8-.1.12.07.3.18.18.79-.96,1.92-1.68,3.19-1.74,1.14-.05,2.35.51,2.93,1.52.35.61.45,1.4-.12,1.92s-1.37.5-2.06.32c-1.08-.27-2.05-.88-2.91-1.57-1.67-1.33-3.1-3.04-5.09-3.93-.89-.4-2.23-.6-2.79.43-.5.9.03,2.12.65,2.82.79.89,1.96,1.37,3.14,1.36,1.37-.02,2.66-.61,3.73-1.43.13-.1,0-.31-.13-.22h0Z" style="fill: #231f20;"/>
      <path d="M31.83,91.85c-.49.47-.99.93-1.5,1.38-.26.22-.52.44-.78.66-.21.17-.53.43-.82.29-.2-.1-.24-.35-.23-.55,0-.26.07-.5.14-.75.16-.59.36-1.17.72-1.67.34-.45.86-.82,1.44-.87.6-.05,1.09.3,1.49.72s.8.89,1.13,1.38.59,1.04.59,1.64c0,.26-.09.7-.44.64-.32-.05-.54-.44-.71-.68-.47-.65-.93-1.31-1.4-1.96-.09-.13-.31,0-.22.13.48.67.96,1.34,1.43,2.01.19.27.39.57.7.71.26.11.55.04.72-.2s.18-.56.15-.84c-.03-.33-.13-.64-.26-.93-.29-.63-.74-1.17-1.19-1.69-.41-.48-.89-1-1.54-1.13s-1.26.13-1.73.54c-.51.45-.81,1.09-1.01,1.73-.16.51-.41,1.18-.18,1.7.12.28.41.42.71.36.38-.07.69-.39.97-.63.69-.57,1.35-1.17,1.99-1.8.12-.11-.06-.29-.18-.18h0Z" style="fill: #231f20;"/>
      <path d="M50.96,127.08c-3.41-.4-5.24-3.68-5.85-6.74s-.43-6.56.39-9.7c1.61-6.16,5.56-11.39,10.39-15.43,2.76-2.3,5.85-4.5,9.34-5.49.15-.04.09-.29-.07-.24-3.22.92-6.05,2.84-8.64,4.9s-4.91,4.39-6.85,7.04c-3.93,5.39-6.15,12.34-4.81,19,.64,3.19,2.57,6.51,6.1,6.92.16.02.16-.23,0-.25h0Z" style="fill: #231f20;"/>
      <path d="M49.17,127.1c-3.95-.41-5.92-4.33-6.71-7.78s-.88-6.82-.27-10.18,1.91-6.41,4.06-8.96c2.38-2.83,5.67-4.8,8.79-6.71,3.68-2.25,7.62-4.26,11.96-4.75l-.06-.23c-.9.41-1.8.81-2.71,1.22-.15.07-.02.28.13.22.9-.41,1.8-.81,2.71-1.22.11-.05.06-.25-.06-.23-3.94.45-7.56,2.12-10.95,4.1s-6.96,4.08-9.6,7c-4.67,5.17-5.72,12.76-4.33,19.39.78,3.71,2.79,7.95,7.04,8.39.16.02.16-.23,0-.25h0Z" style="fill: #231f20;"/>
      <path d="M24.16,85.31c4.27-1.31,7.09,3.38,9.78,5.76s6.29,2.74,9.77,3.16c2.13.26,4.28.6,6.21,1.59.14.07.27-.14.13-.22-3.37-1.73-7.25-1.48-10.86-2.27-2-.44-3.78-1.25-5.3-2.64-1.43-1.31-2.59-2.91-4.13-4.11s-3.65-2.13-5.67-1.5c-.15.05-.09.29.07.24h0Z" style="fill: #231f20;"/>
      <path d="M27.05,86.63c.25.83.34,1.69.27,2.56-.06.73-.2,1.72-.86,2.17-.28.19-.66.27-.98.15-.37-.14-.51-.51-.51-.88s.11-.7.22-1.04c.14-.43.27-.86.41-1.29.27-.85.57-1.69.8-2.56.19-.72.3-1.49.14-2.23-.13-.61-.44-1.23-.97-1.6-.19-.13-.48-.23-.68-.06-.22.2-.07.51.04.72.69,1.37,2.03,2.61,1.97,4.25,0,.16.24.16.25,0,.06-1.42-.9-2.55-1.61-3.69-.09-.14-.18-.29-.26-.44s-.23-.35-.25-.53c-.03-.32.38-.08.49.02.14.12.27.26.37.41.43.63.52,1.41.44,2.16-.1.87-.41,1.7-.68,2.53s-.57,1.68-.81,2.54c-.16.56-.25,1.29.24,1.73.44.39,1.15.29,1.59-.06.62-.49.79-1.36.87-2.1.11-.95.01-1.92-.26-2.84-.05-.15-.29-.09-.24.07h0Z" style="fill: #231f20;"/>
      <path d="M38.18,121.7c-1.2-3.96-2.72-7.89-5.15-11.26-1.09-1.51-2.35-2.9-3.8-4.09-.7-.57-1.44-1.09-2.21-1.55-.83-.49-1.73-.87-2.51-1.45-1.06-.78-1.77-1.95-2.46-3.05s-1.31-2.17-1.9-3.28c-.07-.14-.25-.03-.23.1.28,2.01.61,4.07,1.53,5.91.42.84.99,1.62,1.7,2.24.86.75,1.99,1.17,2.73,2.06s1.05,1.93,1.67,2.85c.5.74,1.18,1.27,1.97,1.67,1.79.9,4.02,1.19,5.11,3.07.66,1.13,1,2.42,1.62,3.57s1.45,2.29,2.36,3.28c.11.12.29-.06.18-.18-.85-.93-1.6-1.95-2.22-3.05-.56-1.01-.93-2.08-1.41-3.13-.83-1.84-2.36-2.53-4.15-3.21-.96-.37-1.95-.76-2.7-1.48s-1.15-1.79-1.67-2.7c-.5-.86-1.15-1.47-1.98-2-.99-.63-1.86-1.29-2.51-2.28-1.29-1.97-1.67-4.4-1.99-6.68l-.23.1c.96,1.82,1.99,3.7,3.29,5.31,1.23,1.51,3.1,2.13,4.67,3.2,3.28,2.26,5.69,5.57,7.41,9.13,1.09,2.24,1.91,4.6,2.64,6.98.05.15.29.09.24-.07h0Z" style="fill: #231f20;"/>
      <path d="M100.41,81.46c-.7,3.41-1.62,6.78-2.73,10.07-.05.15.19.22.24.07,1.12-3.3,2.03-6.66,2.73-10.07.03-.16-.21-.22-.24-.07h0Z" style="fill: #231f20;"/>
      <path d="M67.99,126.07c1.35-2.59,3.11-4.92,4.95-7.18s3.77-4.6,5.67-6.88,3.83-4.47,5.96-6.51c1.98-1.9,3.99-3.78,5.39-6.17,1.54-2.64,2.41-5.6,3.15-8.54.04-.16-.2-.22-.24-.07-.68,2.72-1.47,5.44-2.81,7.92s-3.31,4.44-5.34,6.37c-4.25,4.06-7.88,8.72-11.59,13.26-1.97,2.41-3.89,4.89-5.34,7.66-.07.14.14.27.22.13h0Z" style="fill: #231f20;"/>
      <path d="M91.62,89.26c.36,2.76.58,5.53.67,8.31,0,.16.26.16.25,0-.09-2.78-.31-5.55-.67-8.31-.02-.16-.27-.16-.25,0h0Z" style="fill: #231f20;"/>
      <path d="M89.3,95.69c1.72-1.49,3.35-3.09,4.88-4.77.43-.48.86-.96,1.28-1.45.1-.12-.07-.3-.18-.18-1.48,1.73-3.05,3.38-4.72,4.93-.47.44-.95.87-1.44,1.29-.12.11.06.28.18.18h0Z" style="fill: #231f20;"/>
      <path d="M91.47,91.9c.94,1.2,1.77,2.49,2.48,3.84.08.14.29.02.22-.13-.56-1.06-1.2-2.09-1.9-3.06-.2-.28-.41-.55-.62-.82-.1-.13-.27.05-.18.18h0Z" style="fill: #231f20;"/>
      <path d="M93.44,91.98c-1.79.64-3.56,1.34-5.3,2.1-.15.06-.02.28.13.22,1.72-.76,3.47-1.45,5.24-2.08.15-.05.09-.3-.07-.24h0Z" style="fill: #231f20;"/>
      <path d="M85.79,92.68c-.25-.66-.53-1.3-.85-1.93-.03-.06-.11-.08-.17-.04-.55.3-.15,1.19-.01,1.61.24.75.55,1.47.91,2.17.04.08.17.08.22,0,.16-.31,0-.64-.28-.82-.31-.19-.67-.11-.94.11-.68.55-.79,1.63-.57,2.41.03.11.17.11.23.03.51-.68.99-1.39,1.45-2.11.09-.14-.13-.26-.22-.13-.64.99-1.36,2.28-.66,3.43.06.09.2.07.23-.03.35-1.08.55-2.19.6-3.32h-.25c.12,1.1.26,2.43,1.12,3.24.33.32.85.3.97-.2s-.15-1.02-.35-1.46c-.31-.66-.71-1.28-1.18-1.84-.07-.08-.22-.02-.21.09.04.62.49,1.04.97,1.37.65.44,1.37.81,2.05,1.2.06.03.14.02.17-.04.41-.8-.64-1.54-1.15-1.98-.59-.51-1.41-1.36-2.27-1.02-.09.04-.12.13-.06.21.63.77,1.87.78,2.47-.02.14-.19.25-.41.3-.64.04-.17.1-.53-.01-.67-.12-.15-.42-.08-.57,0-.25.12-.43.35-.62.54-.49.5-1.16.79-1.86.82l.09.21c1.12-1.29,2.38-2.82,2.23-4.65,0-.11-.13-.16-.21-.09-1.17.98-1.86,2.48-1.84,4.01,0,.1.1.15.19.11,1.76-.82,3.87-1.76,5.77-.79.14.07.27-.14.13-.22-1.99-1.01-4.17-.07-6.02.79l.19.11c-.01-1.47.64-2.89,1.77-3.83l-.21-.09c.15,1.76-1.07,3.23-2.16,4.47-.07.08-.03.22.09.21.55-.03,1.09-.19,1.55-.5.23-.15.42-.34.61-.54s.44-.49.75-.37l-.09-.09c.1.58-.22,1.22-.77,1.46s-1.22.05-1.6-.41l-.06.21c.74-.29,1.46.47,1.97.91.28.24.57.49.83.76.24.25.52.62.34.97l.17-.04c-.62-.36-1.24-.7-1.85-1.07-.47-.29-1.01-.69-1.05-1.29l-.21.09c.43.52.8,1.09,1.1,1.7.14.28.28.58.36.89.05.19.09.52-.09.66-.28.22-.64-.31-.77-.51-.17-.26-.29-.54-.39-.83-.19-.59-.27-1.21-.33-1.83-.02-.16-.24-.16-.25,0-.05,1.11-.25,2.2-.59,3.25l.23-.03c-.66-1.07.07-2.27.66-3.18l-.22-.13c-.46.72-.94,1.43-1.45,2.11l.23.03c-.17-.61-.12-1.3.21-1.84.14-.23.38-.47.67-.48.26,0,.59.28.45.56h.22c-.3-.59-.56-1.2-.78-1.82-.1-.3-.2-.6-.29-.91-.06-.21-.16-.57.08-.7l-.17-.04c.31.61.58,1.24.82,1.87.06.15.3.08.24-.07h0Z" style="fill: #231f20;"/>
      <path d="M90.46,85.03c.33-.25.65-.5.96-.77.29-.25.65-.5.88-.81.14-.2.14-.5-.14-.57s-.53.14-.72.29c-.55.44-.9,1.08-1.33,1.63-.47.61-1.05,1.14-1.69,1.56-.35.23-.73.43-1.11.59s-.89.39-1.29.14v.22c1.05-.79,2.17-1.48,3.36-2.04.17-.08.36-.21.55-.14.12.05.21.16.31.24.21.16.46.27.71.32.49.1.99.02,1.41-.25.05-.03.08-.11.04-.17-.63-.91-1.76.18-2.55-.07l.07.18c.4-.65.54-1.42.41-2.17-.02-.09-.15-.12-.21-.06-.51.59-.86,1.28-1.04,2.03h.24c-.08-.45-.29-.86-.6-1.19-.19-.2-.7-.7-1.01-.52-.33.2-.02.7.13.9.27.36.65.61,1.09.72l.07-.24c-1.35-.33-2.76-.33-4.11-.01-.09.02-.12.14-.06.21,1.19,1.16,2.95.75,4.37.34l-.14-.18c-.47.91-.88,1.85-1.21,2.82-.04.11.09.19.18.14.92-.54,1.5-1.53,1.52-2.6l-.19.11c1.04.58,1.48,1.75,1.65,2.87.1.65.13,1.31.17,1.97s.1,1.37.15,2.06c.01.16.26.16.25,0-.05-.75-.11-1.5-.16-2.25-.05-.67-.08-1.35-.2-2.02-.19-1.12-.69-2.27-1.73-2.84-.08-.05-.19.01-.19.11-.02.98-.56,1.88-1.4,2.38l.18.14c.32-.95.72-1.87,1.18-2.76.05-.09-.03-.21-.14-.18-1.33.38-3,.81-4.12-.28l-.06.21c1.31-.31,2.67-.31,3.98.01.16.04.22-.2.07-.24-.32-.08-.6-.24-.82-.47-.1-.11-.19-.23-.26-.36-.08-.14-.14-.4.12-.26.56.31.94.87,1.05,1.49.02.12.21.12.24,0,.17-.71.5-1.37.97-1.92l-.21-.06c.12.69-.02,1.39-.38,1.98-.04.07,0,.16.07.18.45.14.88-.04,1.3-.18.34-.12.86-.21,1.1.14l.04-.17c-.49.31-1.12.34-1.64.07-.22-.11-.38-.35-.61-.43-.25-.08-.51.08-.73.18-1.19.56-2.31,1.25-3.36,2.04-.07.06-.09.16,0,.22.52.33,1.18.02,1.68-.21.59-.26,1.14-.61,1.64-1.02s.94-.91,1.32-1.44.74-1.16,1.32-1.46c.08-.04.32-.15.26.08-.02.08-.15.17-.21.23-.16.15-.33.3-.5.45-.35.3-.71.6-1.08.88-.13.1,0,.31.13.22h0Z" style="fill: #231f20;"/>
      <path d="M94.83,82.34c.37-.35.79-.64,1.24-.87.27-.14.63-.33.94-.18.22.11.37.32.48.52.46.82.36,1.85-.19,2.59h.22c-.5-.87.23-1.93-.28-2.84s-1.64-.27-2.3.15c-.35.22-.85.5-1.04.88-.12.25-.09.62.27.62.2,0,.38-.17.54-.27.28-.19.56-.37.83-.56.56-.37,1.11-.74,1.67-1.11l-.15-.2c-.99.85-1.87,1.81-2.64,2.86-.09.12.1.24.2.15l2.25-2.08-.2-.15c-.68,1.08-1.04,2.32-1.04,3.59,0,.09.11.16.19.11.93-.63.8-1.89,1.14-2.84.25-.72.82-1.01,1.46-1.36.52-.29,1.01-.7,1.04-1.33,0-.1-.11-.15-.19-.11-.9.42-1.72.98-2.45,1.65l.2.15c.43-.71.68-1.5.74-2.33,0-.12-.14-.16-.21-.09-.63.56-.98,1.36-.97,2.2l.21-.09c-.57-.55-1.24-1.11-2.08-.98-.15.02-.1.24.03.25,1.32.09,2.57.68,3.46,1.67.14.15.27.3.32.5.05.25-.17.32-.37.25-.35-.12-.41-.58-.54-.88-.16-.4-.55-.81-1.01-.59-.23.11-.4.35-.56.54-.2.23-.4.47-.58.72-.39.52-.75,1.06-1.07,1.63-.62,1.09-1.1,2.27-1.42,3.48-.37,1.4-.53,2.86-.47,4.31,0,.16.26.16.25,0-.11-2.81.62-5.62,2.07-8.03.37-.61.78-1.19,1.23-1.73.2-.24.53-.76.87-.7.44.08.5.61.65.96.16.37.55.72.98.52.51-.23.15-.8-.1-1.08-.93-1.08-2.29-1.72-3.7-1.82l.03.25c.74-.12,1.34.44,1.83.91.08.07.21.02.21-.09,0-.78.32-1.5.9-2.03l-.21-.09c-.05.79-.29,1.53-.7,2.2-.08.12.09.25.2.15.72-.66,1.52-1.2,2.4-1.61l-.19-.11c-.05.75-.85,1.06-1.41,1.37-.47.26-.82.6-1.03,1.1-.36.89-.2,2.23-1.08,2.84l.19.11c0-1.23.34-2.42,1-3.47.08-.12-.09-.25-.2-.15l-2.25,2.08.2.15c.76-1.04,1.63-1.97,2.6-2.81.11-.09-.03-.27-.15-.2-.78.52-1.56,1.04-2.35,1.56-.09.06-.17.12-.26.17-.06.04-.13.08-.19.12l-.22-.04c-.08-.17.29-.44.39-.52.34-.27.7-.5,1.09-.7s.93-.53,1.32-.17c.25.23.33.62.34.95.02.72-.29,1.43.1,2.1.05.09.16.07.22,0,.64-.88.71-2.19.04-3.08-.34-.45-.76-.56-1.28-.35-.6.25-1.15.61-1.63,1.06-.12.11.06.29.18.18h0Z" style="fill: #231f20;"/>
      <path d="M97.79,88.88c.08-.8,0-1.61-.22-2.38-.02-.07-.12-.12-.18-.07-.36.25-.5.67-.5,1.09,0,.54.22,1.03.28,1.56.11,1.04-.76,1.81-1.06,2.74-.04.12.12.21.21.12.99-.98,1.72-2.19,2.14-3.52.03-.1-.06-.17-.15-.15-.45.1-.84.35-1.12.73-.1.13.12.25.22.13.8-1.03,1.48-2.15,2.05-3.32.05-.1-.03-.21-.14-.18-.45.12-.77.48-.95.9-.22.52-.22,1.09-.3,1.64-.09.61-.39,1.11-.62,1.67s-.38,1.17-.44,1.78c-.01.14.21.16.25.03.14-.47.28-.94.42-1.4.11-.37.28-.81-.06-1.11-.14-.12-.31-.2-.45-.31-.15-.12-.28-.27-.39-.43-.22-.33-.34-.72-.33-1.13,0-.12-.18-.18-.23-.06-.43.85.29,1.61.89,2.12l.06-.21c-1.75.7-3.25,1.97-4.22,3.59-.08.14.13.26.22.13.94-1.56,2.38-2.8,4.07-3.47.08-.03.13-.14.06-.21-.5-.43-1.22-1.09-.85-1.82l-.23-.06c0,.72.34,1.42.93,1.83.15.1.36.18.43.36.1.21-.05.51-.11.72-.14.47-.28.94-.42,1.4l.25.03c.05-.57.19-1.13.4-1.65s.5-.99.61-1.54.08-1.07.24-1.59c.13-.43.41-.85.86-.96l-.14-.18c-.56,1.18-1.25,2.29-2.05,3.32l.22.13c.24-.32.58-.53.97-.61l-.15-.15c-.41,1.29-1.12,2.46-2.07,3.41l.21.12c.28-.86,1.03-1.55,1.08-2.49.03-.54-.19-1.04-.27-1.57-.06-.41,0-.92.36-1.18l-.18-.07c.22.75.29,1.53.21,2.31-.02.16.23.16.25,0h0Z" style="fill: #231f20;"/>
      <path d="M95.67,97.18c.03-.82.32-1.61.83-2.25l-.21-.12c-.47,1.68-1.31,3.26-2.45,4.59-.28.32-.58.63-.91.89-.09.07-.93.68-.95.37,0-.13.34-.39.43-.48.17-.15.35-.29.53-.42.33-.25.66-.48.97-.76.55-.5.98-1.14,1.25-1.83.14-.36.24-.74.3-1.13s.03-.73.03-1.1c0-.11.02-.47.22-.38.14.07.11.36.1.48-.06.49-.17.97-.26,1.46-.16.92-.29,1.85-.58,2.75-.14.45-.32.92-.61,1.3-.13.17-.28.33-.46.44-.15.1-.43.24-.62.14-.25-.14.16-.63.26-.79.14-.24.29-.47.43-.71.3-.48.59-.97.89-1.45.04-.06,0-.17-.07-.18-1.08-.18-2.18,0-3.14.52l.15.2c.62-.79,1.7-1.09,2.63-.75l.03-.25c-.69-.07-1.58-.07-2.17.35-.4.29-.61.89-.26,1.31.19.23.48.26.75.21.37-.07.74-.22,1.09-.37.29-.13.7-.27.91-.53s.13-.67.1-.98c-.07-.87-.19-1.91.55-2.54l-.21-.06c.11.64.02,1.32-.27,1.91-.06.13-.13.26-.22.38-.13.18-.32-.05-.43-.16-.22-.21-.44-.42-.62-.67s-.32-.5-.4-.78c-.1-.36-.06-.73.01-1.09.11-.57.28-1.19.05-1.75-.2-.47-.75-.84-1.26-.62-.15.06-.08.3.07.24.29-.12.6,0,.81.23.24.28.27.68.24,1.03-.06.69-.35,1.34-.16,2.04.16.59.57,1.08,1.01,1.49.16.15.38.45.63.4s.4-.4.5-.6c.32-.65.42-1.38.3-2.1-.02-.1-.14-.11-.21-.06-.57.48-.7,1.25-.68,1.95.01.44.11.88.08,1.32-.01.26-.17.37-.39.48-.18.1-.37.19-.56.27-.21.09-.42.17-.63.23-.2.06-.44.15-.65.1-.34-.09-.38-.53-.25-.8.17-.33.58-.47.92-.54.44-.09.9-.09,1.35-.05.15.01.16-.2.03-.25-1.01-.37-2.21-.04-2.88.81-.08.11.02.27.15.2.9-.49,1.94-.67,2.95-.5l-.07-.18c-.32.52-.64,1.04-.95,1.56-.15.25-.3.49-.45.74-.11.18-.31.41-.31.64,0,.41.49.45.78.35.38-.12.68-.41.9-.73.59-.85.8-1.96.98-2.96.11-.59.21-1.19.31-1.78.07-.39.25-.9.11-1.3-.1-.27-.43-.4-.64-.16-.24.28-.12.77-.13,1.1-.03.97-.38,1.92-.96,2.69-.62.82-1.56,1.28-2.27,2-.18.19-.5.58-.1.74.36.15.78-.18,1.05-.38.9-.67,1.61-1.61,2.19-2.55s1.07-2.04,1.38-3.15c.03-.11-.13-.22-.21-.12-.56.69-.87,1.53-.9,2.42,0,.16.24.16.25,0h0Z" style="fill: #231f20;"/>
      <path d="M59.93,128.08c-.19-2.72.74-5.31,2-7.68,1.18-2.21,2.58-4.32,4.09-6.32,3.06-4.05,6.82-7.64,11.33-10.04,2.47-1.32,5.13-2.25,7.89-2.69.08-.01.11-.12.07-.18-1.1-1.86-3.68-1.98-5.58-1.74-2.39.29-4.68,1.31-6.71,2.59-3.65,2.31-6.58,5.75-8.35,9.69-.99,2.2-1.6,4.54-1.82,6.94-.01.16.24.16.25,0,.73-8.22,6.61-16.22,14.68-18.57,2.17-.63,5.92-1.13,7.31,1.21l.07-.18c-10.35,1.67-18.29,9.86-23.19,18.68-1.41,2.54-2.51,5.34-2.3,8.3.01.16.26.16.25,0h0Z" style="fill: #231f20;"/>
      <path d="M62.2,124.76c.23-3.72-.24-7.47-1.37-11.02s-2.8-6.98-5.24-9.67c-1.19-1.32-2.86-2.52-4.72-2.04l.1.23c1.92-.86,4.18-1.82,6.32-1.26s3.27,2.51,3.84,4.46c.62,2.13.61,4.37.61,6.57s-.01,4.57-.02,6.85c0,.16.25.16.25,0,0-2.02.01-4.04.02-6.05,0-1.85.05-3.72-.22-5.56-.43-3.01-1.94-6.45-5.4-6.67-1.93-.13-3.81.67-5.53,1.44-.13.06-.04.26.1.23,1.87-.48,3.53.85,4.67,2.19s2.09,2.88,2.91,4.43c1.63,3.06,2.72,6.42,3.2,9.85.28,1.99.35,4.01.23,6.02-.01.16.24.16.25,0h0Z" style="fill: #231f20;"/>
      <path d="M61.74,117.61c1.41-8.24,4.45-16.18,8.92-23.25,1.28-2.03,2.68-3.98,4.19-5.85.1-.12-.08-.3-.18-.18-5.26,6.54-9.21,14.11-11.55,22.17-.67,2.32-1.21,4.67-1.62,7.04-.03.16.21.22.24.07h0Z" style="fill: #231f20;"/>
      <path d="M72.48,88.3c.95,1.14,2.53,1.4,3.92,1.14.8-.15,1.58-.44,2.3-.8.65-.33,1.18-.77,1.62-1.34.5-.65.91-1.39,1.59-1.88.13-.09,0-.31-.13-.22-1.09.78-1.53,2.16-2.66,2.9-.64.42-1.4.72-2.13.94s-1.55.33-2.32.19-1.5-.5-2.01-1.11c-.1-.12-.28.05-.18.18h0Z" style="fill: #231f20;"/>
      <path d="M69.75,47.67c2.56-2.16,5.22-4.21,7.97-6.13,1.3-.91,2.6-1.82,3.98-2.6,1.25-.7,3.19-1.79,4.59-.91l-.03-.2c-5.11,4.69-11.18,8.3-17.74,10.55l.1.23c4.79-2.56,9.63-5.14,14.87-6.66,1.11-.32,2.43-.83,3.6-.65.47.07.98.3,1.02.83.05.68-.69,1.08-1.23,1.3-1.27.52-2.61.93-3.91,1.38-1.39.49-2.78.99-4.18,1.46-3.04,1.03-6.24,1.91-9.46,1.39v.24c2.52-.63,5.07-1.14,7.64-1.53,1.3-.2,2.61-.36,3.93-.49,1.23-.12,2.49-.29,3.73-.22s2.43.43,3.18,1.4c.16.21.33.47.39.73.14.63-.29.81-.76.95-.66.2-1.35.31-2.03.38-2.39.25-4.79-.14-7.12-.62-2.65-.55-5.28-1.24-7.99-1.46v.25c4.49-.37,8.46,2.08,11.89,4.69.44.33.94.65,1.34,1.04.21.2.17.29-.09.44-.23.13-.5.17-.76.17-.89.02-1.83-.36-2.63-.72-1.63-.73-3.07-1.83-4.45-2.94-1.54-1.25-3.06-2.55-4.77-3.56-.12-.07-.26.1-.15.2,1.1.91,2.18,1.85,3.25,2.81.51.46,1.01.92,1.51,1.39.55.51,1.34,1.19,1.06,2.03-.05.15.19.22.24.07.19-.57-.05-1.09-.41-1.54-.48-.6-1.11-1.11-1.68-1.62-1.24-1.13-2.51-2.24-3.8-3.31l-.15.2c2.46,1.45,4.48,3.49,6.82,5.11,1.09.75,2.25,1.41,3.51,1.81.91.29,2.36.68,2.97-.34.03-.04.02-.12-.02-.15-3.94-3.1-8.38-6.47-13.69-6.03-.16.01-.16.24,0,.25,5.31.44,10.54,2.85,15.92,1.97.72-.12,2.38-.26,2.26-1.33-.1-.95-1.04-1.71-1.85-2.08-1.14-.52-2.43-.49-3.66-.4-1.42.1-2.84.25-4.25.43-3.19.41-6.35,1.01-9.46,1.79-.11.03-.13.22,0,.24,3.05.49,6.08-.23,8.97-1.18,1.52-.5,3.02-1.05,4.53-1.58s2.94-.93,4.33-1.54c.7-.31,1.59-.99,1.17-1.86-.37-.76-1.48-.79-2.2-.68-1.42.2-2.84.68-4.19,1.13s-2.79,1.01-4.15,1.6c-3.16,1.36-6.2,2.98-9.24,4.6-.12.07-.04.27.1.23,6.61-2.26,12.71-5.89,17.85-10.61.06-.06.04-.16-.03-.2-1.21-.77-2.72-.14-3.89.41-1.59.75-3.04,1.77-4.48,2.77-2.93,2.03-5.76,4.19-8.48,6.49-.12.1.05.28.18.18h0Z" style="fill: #231f20;"/>
      <path d="M71.43,46.34c3.73-2.48,7.78-5.33,9.15-9.83.03-.11-.09-.18-.18-.14-2.21.97-3.79,2.83-5.31,4.64-1.92,2.26-3.83,4.53-5.75,6.79l.18.18c1.25-1.52,2.49-3.04,3.64-4.63.61-.84,1.19-1.69,1.73-2.57.42-.7.84-1.44.92-2.27.11-1.14-.65-2.49-1.95-2.31-.67.09-1.1.55-1.35,1.15-.38.93-.64,1.93-.95,2.88-.79,2.41-1.57,4.81-2.36,7.22-.05.16.18.21.24.07.77-1.96,1.52-3.93,2.15-5.93.45-1.42,1.35-3.55.36-4.94-.53-.74-1.84-1.18-2.56-.45-.52.53-.45,1.49-.5,2.17-.09,1.08-.18,2.16-.26,3.24-.16,2.02-.31,4.11.58,5.99.06.12.23.05.23-.06.13-2.26,0-4.53-.41-6.76-.21-1.14-.48-2.29-.85-3.38-.18-.51-.48-1.18-1.13-1.14-.69.05-.99.78-.97,1.38.03,1.07.43,2.21.68,3.24.57,2.37,1.23,4.71,1.96,7.03.05.15.29.09.24-.07-.75-2.48-1.54-4.99-2.82-7.26-.6-1.07-1.32-2.08-2.19-2.95-.76-.77-1.77-1.77-2.94-1.51-.08.02-.11.12-.07.18,2.43,4.17,4.98,8.27,7.67,12.28l.2-.15c-1.97-2.26-3.31-4.99-5.29-7.24s-4.9-3.73-8.07-3.46c-.11,0-.17.13-.09.21,1.87,1.94,3.76,3.88,5.86,5.58s4.48,2.97,6.94,4.12l.1-.23c-2.4-.85-4.72-1.93-6.9-3.26-1.88-1.14-3.67-2.84-5.85-3.37-.56-.13-1.6-.36-1.9.33-.27.61.33,1.31.77,1.65,1.77,1.4,4.08,2.32,6.18,3.08,2.54.92,5.16,1.57,7.78,2.21l.03-.25c-2.95-.07-5.79-.58-8.62-1.37-2.24-.63-4.74-1.3-6.92-.11-.1.05-.07.2.03.23,5.02,1.5,10.31,1.98,15.52,1.41l-.06-.23c-4.62,2.15-10.24-1.4-14.6,1.7-.08.06-.09.21.03.23,1.37.23,2.74.47,4.11.7,1.07.18,2.12.45,3.13-.1.5-.27.96-.61,1.47-.87.59-.29,1.21-.51,1.84-.69,1.25-.35,2.54-.53,3.83-.7l-.03-.25c-1.98.82-3.85,1.87-5.57,3.16-.11.09-.05.25.1.23,2.2-.35,4.21-1.41,5.74-3.03l-.21-.12c-.46,1.13-.92,2.26-1.37,3.39-.02.06.03.14.09.15.91.22,2.18.44,2.96-.25.33-.29.46-.69.52-1.12.08-.63-.11-1.58.57-1.92l-.18-.14c-.84,2.29,1.13,4.54,3.51,4.06.08-.02.11-.12.07-.18-.73-1.47-1.55-2.88-2.46-4.23-.09-.13-.31,0-.22.13.91,1.36,1.73,2.77,2.46,4.23l.07-.18c-2.2.44-3.96-1.66-3.2-3.75.04-.11-.09-.18-.18-.14-.84.41-.58,1.5-.71,2.25-.27,1.49-2.04,1.28-3.15,1.01l.09.15c.46-1.13.92-2.26,1.37-3.39.05-.12-.13-.21-.21-.12-1.5,1.59-3.46,2.63-5.63,2.97l.1.23c1.7-1.27,3.54-2.32,5.51-3.13.12-.05.12-.27-.03-.25-2.17.29-4.42.6-6.35,1.72-.6.35-1.15.81-1.87.87-.66.06-1.34-.12-1.99-.23-1.37-.23-2.74-.47-4.11-.7l.03.23c4.33-3.08,9.98.45,14.6-1.7.11-.05.06-.25-.06-.23-5.19.57-10.45.09-15.45-1.4l.03.23c2.38-1.3,5.14-.3,7.55.36,2.57.71,5.21,1.09,7.87,1.15.14,0,.17-.21.03-.25-4.04-.99-8.14-2-11.82-3.99-.84-.45-1.97-.95-2.53-1.75-.11-.15-.24-.33-.24-.52,0-.18.22-.54.41-.63.22-.11.73,0,.92.04.52.09,1.02.27,1.5.49,1.84.85,3.42,2.24,5.17,3.26,2.03,1.18,4.16,2.16,6.38,2.94.13.05.22-.17.1-.23-2.51-1.18-4.9-2.46-7.06-4.22-2.04-1.66-3.87-3.55-5.69-5.44l-.09.21c3.34-.29,6.17,1.29,8.25,3.8,1.79,2.17,3.08,4.7,4.94,6.82.09.11.28-.03.2-.15-2.68-4.01-5.24-8.11-7.67-12.28l-.07.18c1.27-.28,2.53,1.2,3.28,2.08s1.4,1.9,1.93,2.95c1.06,2.07,1.75,4.3,2.43,6.51l.24-.07c-.58-1.83-1.11-3.67-1.58-5.52-.23-.89-.45-1.78-.65-2.67-.16-.68-.98-3.46.51-3.04.8.22.97,1.71,1.15,2.42.23.9.42,1.82.56,2.74.29,1.91.36,3.84.25,5.77l.23-.06c-.89-1.88-.7-3.98-.54-5.99.09-1.08.18-2.16.26-3.24.05-.56-.02-1.45.42-1.87.32-.31.78-.34,1.19-.24,2.31.58,1.1,3.78.63,5.27-.64,2.05-1.4,4.05-2.19,6.05l.24.07c.7-2.13,1.39-4.26,2.09-6.39.36-1.1.7-2.22,1.08-3.31.21-.61.45-1.17,1.15-1.34.57-.14,1.11.12,1.44.58.68.95.3,2.12-.21,3.06s-1.07,1.73-1.64,2.56c-1.25,1.78-2.62,3.47-4,5.14-.1.12.07.3.18.18,1.86-2.2,3.73-4.4,5.59-6.6,1.56-1.85,3.15-3.79,5.42-4.79l-.18-.14c-1.35,4.43-5.36,7.24-9.04,9.68-.13.09,0,.31.13.22h0Z" style="fill: #231f20;"/>
      <path d="M87.17,54.18c2.76-1.92,4.17-5.06,5.41-8.08,1.46-3.56,3.03-7.44,2.1-11.34l-.24.07c1.6,4.02,2.69,8.39,2.17,12.74-.45,3.76-2.15,7.43-5.15,9.82-.13.1.05.28.18.18,5.04-4.02,6.08-10.93,4.86-16.92-.41-2.01-1.05-3.97-1.81-5.88-.06-.15-.28-.09-.24.07.9,3.8-.62,7.58-2.03,11.05-1.22,3-2.61,6.18-5.36,8.09-.13.09,0,.31.13.22h0Z" style="fill: #231f20;"/>
      <path d="M28.54,71.02c-2.29,1.15-4.49,2.49-6.56,4-.58.42-1.14.86-1.7,1.3-.13.1.05.28.18.18,1.98-1.59,4.1-3.01,6.31-4.26.62-.35,1.26-.69,1.9-1.01.14-.07.02-.29-.13-.22h0Z" style="fill: #231f20;"/>
      <path d="M58.05,73.32c1.5-1.21,3.32-2.1,5.22-2.46,1.09-.2,2.08,0,2.95.69.71.56,1.3,1.3,1.68,2.12,1.86,3.92-1.76,7.49-4.75,9.49-.89.59-1.82,1.12-2.79,1.56-.88.41-1.8.75-2.5,1.45-.11.11.06.29.18.18.75-.74,1.77-1.08,2.7-1.53s1.89-1,2.77-1.6c1.6-1.1,3.19-2.43,4.18-4.13s1.27-3.64.47-5.43c-.73-1.63-2.32-3.23-4.23-3.13-1.1.06-2.21.44-3.2.87s-1.99,1.04-2.86,1.74c-.13.1.05.28.18.18h0Z" style="fill: #231f20;"/>
      <path d="M57.33,72.35c-2.04-2.3-5.6-3.05-8.11-1.05-1.15.92-1.86,2.26-1.9,3.74-.04,1.86.81,3.65,1.54,5.33.88,2.02,1.86,3.99,3.04,5.86.09.14.3.01.22-.13-.93-1.47-1.74-3.01-2.47-4.58s-1.53-3.23-1.91-4.94c-.36-1.62-.1-3.26,1.04-4.51.98-1.08,2.39-1.7,3.85-1.68,1.74.02,3.38.87,4.53,2.16.11.12.28-.06.18-.18h0Z" style="fill: #231f20;"/>
      <path d="M57.18,72.72l.75,1.1c.04.05.11.08.17.04.05-.03.08-.11.04-.17l-.75-1.1c-.04-.05-.11-.08-.17-.04-.05.03-.08.11-.04.17h0Z" style="fill: #231f20;"/>
      <path d="M46.48,70.07c-1.67.77-2.69,2.39-3.35,4.04-.76,1.91-1.17,4.09-.53,6.09.32.98.87,1.87,1.66,2.53.12.1.3-.07.18-.18-1.44-1.21-2-3.13-1.89-4.96s.79-3.85,1.86-5.39c.56-.82,1.29-1.5,2.2-1.92.15-.07.02-.28-.13-.22h0Z" style="fill: #231f20;"/>
      <path d="M42.8,71.11c-1.3.85-2.09,2.24-2.68,3.64-.18.44-.35.89-.52,1.34-.06.15.19.22.24.07.54-1.44,1.1-2.92,2.17-4.06.28-.29.58-.56.92-.78.13-.09,0-.3-.13-.22h0Z" style="fill: #231f20;"/>
      <path d="M40.04,75.67c.16,0,.16-.25,0-.25s-.16.25,0,.25h0Z" style="fill: #231f20;"/>
      <path d="M79.02,72.18c.98.76,1.74,1.8,2.17,2.96.12.33.21.67.28,1.01.03.16.27.09.24-.07-.24-1.25-.85-2.42-1.71-3.35-.25-.26-.51-.51-.8-.73-.13-.1-.3.08-.18.18h0Z" style="fill: #231f20;"/>
      <path d="M80.2,80.59s-.02.03-.04.05c0,0,0,0,0,.01,0,.01,0-.01,0,0,0,0-.01.02-.02.03-.03.03-.05.06-.08.09-.05.06-.11.12-.16.18-.11.12-.23.23-.35.34-.03.03-.07.06-.1.09-.02.01-.04.03-.06.04,0,0,0,0-.01,0,0,0,.02-.02,0,0-.01,0-.02.02-.03.02-.03.02-.05.04-.06.07,0,.03,0,.07.01.1s.04.05.07.06.07,0,.1-.01c.27-.21.52-.44.75-.7.07-.08.13-.16.19-.24.02-.02.02-.07.01-.1s-.03-.06-.06-.07c-.03-.02-.06-.02-.1-.01s-.05.03-.07.06h0Z" style="fill: #231f20;"/>
      <path d="M72.66,82.19c.74-.92,1.48-1.86,1.94-2.95s.54-2.23.29-3.34c-.14-.63-.39-1.22-.73-1.76-.09-.14-.3-.01-.22.13.75,1.18,1.02,2.66.71,4.03s-1.26,2.61-2.16,3.73c-.1.12.08.3.18.18h0Z" style="fill: #231f20;"/>
      <path d="M58.38,77.17c.57-.55,1.21-1.03,1.89-1.42.35-.2.72-.38,1.1-.54.25-.1.65-.27.91-.1.34.23.03.88-.11,1.15-.2.36-.46.68-.73.99-.54.63-1.13,1.22-1.74,1.78s-1.25,1.1-1.9,1.63c-.33.27-.66.54-.98.8-.35.29-.7.62-1.08.87-.41.26-.81-.17-1.03-.5-.21-.31-.34-.65-.47-1-.24-.69-.45-1.48-.26-2.21.23-.85,1.03-1.29,1.83-1.48.47-.12.97-.17,1.46-.13.38.03,1.05.31.81.82l.23.06c.06-.59.35-1.11.8-1.48.12-.1-.05-.28-.18-.18-.51.42-.81,1.01-.87,1.66-.01.12.18.17.23.06.15-.31.05-.68-.21-.9-.32-.28-.78-.3-1.18-.3-.87.01-1.83.22-2.51.79s-.81,1.39-.69,2.2c.07.45.2.89.35,1.31.14.37.3.74.55,1.06.22.28.58.63.97.55.2-.04.36-.17.51-.3.23-.18.45-.37.67-.55.79-.64,1.58-1.28,2.36-1.95s1.49-1.33,2.16-2.07c.58-.63,1.32-1.4,1.38-2.3.03-.41-.23-.69-.63-.7-.43-.01-.87.22-1.25.4-.95.45-1.82,1.06-2.58,1.79-.12.11.06.29.18.18h0Z" style="fill: #231f20;"/>
    </g>
  </g>
</svg>