<?xml version="1.0" encoding="UTF-8"?>
<svg id="Layer_2" data-name="Layer 2" xmlns="http://www.w3.org/2000/svg" viewBox="0 0 117.6 195.26">
  <g id="Drinks">
    <g>
      <path d="M14.02,45.69c1.69,14.34,3.61,28.65,5.74,42.93.6,4.05,1.23,8.09,1.87,12.13.03.16.27.09.24-.07-2.26-14.28-4.3-28.59-6.12-42.93-.51-4.02-1-8.04-1.48-12.06-.02-.16-.27-.16-.25,0h0Z" style="fill: #231f20;"/>
      <path d="M22.45,102.64c1.86,2,2.13,4.87,2.51,7.45.46,3.13.92,6.26,1.38,9.39.92,6.26,1.84,12.52,2.77,18.79.52,3.54,1.04,7.09,1.57,10.63.02.16.26.09.24-.07-1.88-12.77-3.76-25.54-5.64-38.32-.41-2.77-.64-5.9-2.65-8.05-.11-.12-.29.06-.18.18h0Z" style="fill: #231f20;"/>
      <path d="M32.17,149.79c1.2-.15,2.39.2,3.32.97.46.39.87.84,1.27,1.29s.77.88,1.11,1.35c.38.54.71,1.12.88,1.76.04.16.28.09.24-.07-.32-1.18-1.11-2.15-1.91-3.05s-1.66-1.87-2.87-2.29c-.65-.23-1.35-.3-2.03-.21-.16.02-.16.27,0,.25h0Z" style="fill: #231f20;"/>
      <path d="M41.18,155.51c1.88-.84,4.08-.86,5.99-.12.54.21,1.06.49,1.54.82.13.09.26-.13.13-.22-1.75-1.2-3.98-1.64-6.06-1.24-.59.11-1.17.3-1.72.54-.15.07-.02.28.13.22h0Z" style="fill: #231f20;"/>
      <path d="M25.34,100.68c5.6,3.81,8.71,10.19,10.22,16.62,1.85,7.93,1.37,16.17,2.13,24.23.43,4.57,1.33,9.08,2.23,13.58.03.16.27.09.24-.07-.85-4.24-1.7-8.49-2.15-12.79s-.52-8.39-.73-12.59c-.36-7.25-1.19-14.65-4.71-21.13-1.73-3.19-4.1-6.02-7.11-8.08-.13-.09-.26.13-.13.22h0Z" style="fill: #231f20;"/>
      <path d="M57.19,108.6c3.17-2.38,7.59-4.25,11.57-2.99,1.18.37,2.22,1.04,3.1,1.9.12.11.29-.06.18-.18-1.53-1.5-3.53-2.31-5.67-2.36s-4.25.57-6.16,1.49c-1.11.53-2.16,1.18-3.15,1.92-.13.1,0,.31.13.22h0Z" style="fill: #231f20;"/>
      <path d="M40.02,105.95c1.88-.96,4.06-.84,6.09-.53s4.16.58,5.92,1.64c.14.08.26-.13.13-.22-.91-.54-1.92-.87-2.95-1.11s-2.16-.43-3.24-.59c-2.04-.29-4.19-.38-6.07.58-.14.07-.02.29.13.22h0Z" style="fill: #231f20;"/>
      <path d="M83.22,47.75c-1.25,7.99-2.37,16-3.35,24.02-.49,4.01-.95,8.02-1.37,12.03-.21,1.97-.41,3.93-.6,5.9-.2,2.07-.3,4.18-.72,6.22s-1.39,4.1-2.21,6.09c-.89,2.14-1.77,4.28-2.66,6.43-.06.15.18.21.24.07.79-1.91,1.58-3.82,2.37-5.74s1.61-3.63,2.18-5.51.69-3.71.87-5.58c.19-2.05.39-4.1.61-6.15.83-8.1,1.8-16.19,2.91-24.26.62-4.49,1.28-8.97,1.98-13.45.02-.16-.22-.23-.24-.07h0Z" style="fill: #231f20;"/>
      <path d="M14.83,44.01c3.48,2.95,8.01,4.04,12.43,4.68,5.32.76,10.7,1.18,16.07,1.38,5.65.21,11.28.07,16.93-.19,2.77-.13,5.54-.25,8.3-.38,2.54-.13,5.1-.3,7.6-.84,1.6-.35,5.02-.94,5.16-3.11.07-.96-.68-1.69-1.48-2.08-1.21-.59-2.62-.47-3.81-1.1-.14-.07-.27.14-.13.22.98.51,2.07.55,3.12.84s2.34,1.14,2,2.4c-.28,1.03-1.47,1.57-2.38,1.88-1.12.39-2.28.67-3.45.88-2.49.45-5.03.58-7.55.7s-5.17.24-7.76.36c-10.39.47-20.75.3-31.08-1-4.85-.61-9.95-1.56-13.79-4.81-.12-.1-.3.07-.18.18h0Z" style="fill: #231f20;"/>
      <path d="M9.82,62.04c.16,0,.16-.25,0-.25s-.16.25,0,.25h0Z" style="fill: #231f20;"/>
      <path d="M26.33,40.17c13.15-1.31,26.44-1.02,39.54.78,3.73.51,7.44,1.14,11.14,1.89.16.03.22-.21.07-.24-12.98-2.61-26.24-3.82-39.48-3.41-3.76.12-7.52.36-11.26.74-.16.02-.16.27,0,.25h0Z" style="fill: #231f20;"/>
      <path d="M17.26,61.61c7.26,4.7,15.58,7.72,24.17,8.76,4.76.58,9.58.52,14.35.01,4.39-.47,8.79-1.24,13.02-2.52,4.47-1.36,8.77-3.35,12.41-6.31.12-.1-.05-.28-.18-.18-6.68,5.42-15.43,7.55-23.8,8.6-9.01,1.13-18.12.56-26.76-2.3-4.61-1.52-9-3.63-13.08-6.27-.14-.09-.26.13-.13.22h0Z" style="fill: #231f20;"/>
      <path d="M27.62,109.48c1.07,5.32,1.94,10.68,2.6,16.06.32,2.62.58,5.25.82,7.88.22,2.44.48,4.92,1.33,7.24.76,2.1,2,4.03,3.82,5.36.13.1.25-.12.13-.22-3.96-2.9-4.63-8.09-5.04-12.62-.45-5.05-1.05-10.08-1.84-15.09-.46-2.91-.99-5.8-1.57-8.69-.03-.16-.27-.09-.24.07h0Z" style="fill: #231f20;"/>
      <path d="M41.32,148.46l3.7.77c.16.03.22-.21.07-.24l-3.7-.77c-.16-.03-.22.21-.07.24h0Z" style="fill: #231f20;"/>
      <path d="M42.96,131.67c2.41,7.29,4.25,14.71,5.76,22.24.74,3.7,1.66,7.31,2.75,10.93.54,1.78,1.06,3.57,1.44,5.4s.5,3.79.84,5.67c.69,3.84,2.92,7.15,3.95,10.89.04.15.28.09.24-.07-.92-3.37-2.85-6.37-3.7-9.76-.45-1.78-.53-3.63-.83-5.44s-.78-3.64-1.3-5.43c-1.05-3.6-2.11-7.15-2.86-10.83s-1.53-7.62-2.48-11.39c-1.04-4.14-2.23-8.24-3.57-12.29-.05-.15-.29-.09-.24.07h0Z" style="fill: #231f20;"/>
      <path d="M117.16,135.23c-3.57,6.55-5.61,13.75-7.79,20.85-1.09,3.58-2.11,7.17-4.03,10.41-1.77,3-3.91,5.76-5.62,8.8-2.04,3.64-3.66,7.51-4.84,11.5-.05.15.2.22.24.07,1.08-3.65,2.52-7.19,4.33-10.55,1.68-3.14,3.81-5.97,5.68-8.98.86-1.38,1.63-2.82,2.24-4.33.7-1.74,1.22-3.55,1.78-5.34,1.1-3.54,2.13-7.11,3.31-10.63,1.34-4.01,2.89-7.96,4.92-11.68.08-.14-.14-.27-.22-.13h0Z" style="fill: #231f20;"/>
      <path d="M58.83,187.96c4.23,3.19,8.77,6.54,14.19,7.16,2.8.32,5.7-.02,8.46-.49,2.4-.41,4.8-1.06,6.92-2.28,1.14-.66,2.16-1.49,3.03-2.48.94-1.07,1.79-2.32,3.21-2.77.15-.05.09-.29-.07-.24-1.03.33-1.78,1.05-2.47,1.85-.79.91-1.53,1.81-2.49,2.54-1.96,1.5-4.35,2.34-6.74,2.87-2.72.6-5.61.96-8.4.87s-5.53-.94-8.04-2.24c-2.67-1.38-5.09-3.19-7.48-4.99-.13-.1-.25.12-.13.22h0Z" style="fill: #231f20;"/>
      <path d="M53.22,156.31c2.24.87,4.5,1.77,6.64,2.85,1.11.56,1.64,1.37,1.92,2.57s.47,2.31.66,3.48c.76,4.71,1.06,9.48,1.19,14.24.07,2.69.09,5.39.11,8.09,0,.16.25.16.25,0-.04-5.07-.07-10.14-.47-15.19-.19-2.41-.46-4.82-.84-7.2-.2-1.23-.4-2.47-.71-3.68-.22-.86-.59-1.62-1.33-2.13-1.04-.73-2.36-1.18-3.52-1.68-1.27-.55-2.55-1.08-3.84-1.58-.15-.06-.21.18-.07.24h0Z" style="fill: #231f20;"/>
      <path d="M64.84,162.1c1.98,0,4.12.22,5.8,1.37,1.83,1.26,2.5,3.43,2.7,5.55.45,4.81-.31,9.76-.98,14.51-.39,2.73-.79,5.46-1.08,8.21-.02.16.23.16.25,0,.55-5.3,1.56-10.55,1.98-15.87.19-2.45.34-4.98.02-7.43-.25-1.91-.93-3.8-2.51-5-1.74-1.33-4.06-1.58-6.18-1.58-.16,0-.16.25,0,.25h0Z" style="fill: #231f20;"/>
      <path d="M78.16,164.52c2.91-.55,6.12-1.13,8.86.36.14.08.27-.14.13-.22-2.8-1.53-6.07-.95-9.05-.39-.16.03-.09.27.07.24h0Z" style="fill: #231f20;"/>
      <path d="M89.57,167.88l-1.64,22.59c-.01.16.24.16.25,0l1.64-22.59c.01-.16-.24-.16-.25,0h0Z" style="fill: #231f20;"/>
      <path d="M92.11,164.56c1.65-.76,3.64-.68,5.23.2.14.08.27-.14.13-.22-1.3-.72-2.84-.93-4.29-.61-.41.09-.81.23-1.2.41-.15.07-.02.28.13.22h0Z" style="fill: #231f20;"/>
      <path d="M96.97,168.21c-.86,5.81-2.42,11.51-4.63,16.95-.06.15.18.21.24.07,2.21-5.44,3.76-11.14,4.63-16.95.02-.16-.22-.23-.24-.07h0Z" style="fill: #231f20;"/>
      <path d="M103.51,160.06c.93-1.08,2.13-1.91,3.47-2.4.38-.14.76-.25,1.16-.33.16-.03.09-.27-.07-.24-1.42.3-2.76.97-3.86,1.92-.31.27-.61.56-.88.88-.1.12.07.3.18.18h0Z" style="fill: #231f20;"/>
      <path d="M59.54,183.3l2.68,1.66c.14.08.26-.13.13-.22l-2.68-1.66c-.14-.08-.26.13-.13.22h0Z" style="fill: #231f20;"/>
      <path d="M66.57,187.75c1.08.58,2.25.99,3.46,1.2.16.03.22-.21.07-.24-1.19-.21-2.34-.61-3.4-1.18-.14-.08-.27.14-.13.22h0Z" style="fill: #231f20;"/>
      <path d="M74.75,189.48c3.11.49,6.19-.35,9.16-1.18.15-.04.09-.28-.07-.24-2.92.82-5.97,1.66-9.02,1.18-.16-.02-.23.22-.07.24h0Z" style="fill: #231f20;"/>
      <path d="M88.58,187.4c.16,0,.16-.25,0-.25s-.16.25,0,.25h0Z" style="fill: #231f20;"/>
      <path d="M89.67,186.87l1.4-.89c.06-.04.08-.11.04-.17-.04-.06-.11-.08-.17-.04l-1.4.89c-.06.04-.08.11-.04.17.04.06.11.08.17.04h0Z" style="fill: #231f20;"/>
      <path d="M99.44,187.65c.16,0,.16-.25,0-.25s-.16.25,0,.25h0Z" style="fill: #231f20;"/>
      <path d="M95.61,186.25c.16,0,.16-.25,0-.25s-.16.25,0,.25h0Z" style="fill: #231f20;"/>
      <path d="M109.15,116.99c-11.93-5.98-25.25-10.04-38.71-9.37-3.78.19-7.53.76-11.18,1.73-.16.04-.09.28.07.24,13.01-3.45,26.73-1.53,39.21,3.05,3.58,1.32,7.08,2.86,10.49,4.57.14.07.27-.14.13-.22h0Z" style="fill: #231f20;"/>
      <path d="M42.23,124.42c.69,5.25,3.05,10.04,6.9,13.68s8.79,5.97,13.83,7.48c5.45,1.63,11.16,2.36,16.83,2.53,5.3.16,10.65-.18,15.88-1.08,7.32-1.27,14.73-4.07,19.91-9.59.64-.68,1.23-1.39,1.78-2.14.1-.13-.12-.25-.22-.13-4.75,6.36-12.34,9.79-19.94,11.31-5.02,1.01-10.18,1.42-15.3,1.4-5.59-.02-11.22-.58-16.65-1.94-5.13-1.29-10.2-3.33-14.36-6.65s-6.92-7.65-8.04-12.73c-.16-.71-.28-1.42-.37-2.14-.02-.16-.27-.16-.25,0h0Z" style="fill: #231f20;"/>
      <path d="M42.51,123.73c.24-1.46.5-3.02,1.45-4.21.47-.59,1.08-1.05,1.67-1.51s1.24-.96,1.87-1.44c2.43-1.85,4.91-3.64,7.6-5.1,1.56-.85,3.18-1.57,4.87-2.13.15-.05.09-.29-.07-.24-3.03.99-5.82,2.54-8.46,4.31-1.32.89-2.61,1.83-3.88,2.8-.62.47-1.24.95-1.86,1.43s-1.25.94-1.77,1.53c-1.1,1.24-1.4,2.9-1.66,4.49-.03.16.21.23.24.07h0Z" style="fill: #231f20;"/>
      <path d="M47.51,133.82c.41-2.42,2.26-4.18,4.05-5.7s3.73-2.91,5.76-4.13c4.06-2.42,8.54-4.16,13.2-5.03s9.9-.82,14.73.26,9.36,3.24,13.39,6.18,8.69,6.74,9.16,12.09c.01.16.26.16.25,0-.4-4.6-3.87-8.08-7.3-10.81-4.06-3.21-8.46-5.79-13.45-7.21-9.63-2.74-20-1.26-28.74,3.52-2.4,1.31-4.67,2.86-6.77,4.61-1.96,1.63-4.06,3.52-4.51,6.15-.03.16.21.22.24.07h0Z" style="fill: #231f20;"/>
      <path d="M107.74,138.38c.12.97.08,1.95-.12,2.9-.03.16.21.22.24.07.21-.97.26-1.98.13-2.97,0-.07-.05-.12-.12-.12-.06,0-.13.06-.12.12h0Z" style="fill: #231f20;"/>
      <path d="M56.54,131.4c.99,3.57,2.34,7.04,4,10.36.07.14.29.02.22-.13-1.65-3.3-2.99-6.75-3.98-10.3-.04-.15-.28-.09-.24.07h0Z" style="fill: #231f20;"/>
      <path d="M73.29,127.15l.11,17.87c0,.16.25.16.25,0l-.11-17.87c0-.16-.25-.16-.25,0h0Z" style="fill: #231f20;"/>
      <path d="M90.97,131.31c-1.44,4.34-2.87,8.69-4.31,13.03-.05.15.19.22.24.07,1.44-4.34,2.87-8.69,4.31-13.03.05-.15-.19-.22-.24-.07h0Z" style="fill: #231f20;"/>
      <path d="M78.32,122.94c2.38-1.09,5.18-1.13,7.61-.19.69.27,1.35.62,1.96,1.04.13.09.26-.12.13-.22-2.21-1.53-5.02-2.08-7.65-1.56-.75.15-1.48.39-2.17.7-.15.07-.02.28.13.22h0Z" style="fill: #231f20;"/>
      <path d="M97.23,128.68c1.14.16,2.26.49,3.29,1,.14.07.27-.15.13-.22-1.06-.51-2.19-.86-3.35-1.02-.07,0-.13.02-.15.09-.02.06.02.14.09.15h0Z" style="fill: #231f20;"/>
      <path d="M61.22,126.47c1.47-1.65,3.6-2.67,5.8-2.8.62-.04,1.24,0,1.86.1.16.03.22-.21.07-.24-2.24-.38-4.61.17-6.47,1.48-.53.37-1.01.8-1.43,1.28-.11.12.07.3.18.18h0Z" style="fill: #231f20;"/>
      <path d="M47.81,142.89c6.37,5.08,13.81,8.78,21.69,10.84,3.94,1.03,7.99,1.65,12.05,1.84,4.33.2,8.81.03,13-1.18,2.44-.7,4.7-1.84,6.93-3.02,2.4-1.28,4.76-2.62,7.09-4.02.14-.08.01-.3-.13-.22-1.98,1.19-3.99,2.34-6.02,3.44s-4.11,2.23-6.3,3.03c-4.13,1.52-8.64,1.84-13.01,1.76-8.1-.15-16.16-2.04-23.5-5.45-4.15-1.93-8.07-4.35-11.64-7.2-.12-.1-.3.08-.18.18h0Z" style="fill: #231f20;"/>
      <path d="M30.4,82.65c2.46,3.67,5.02,7.26,7.7,10.76.75.98,1.51,1.95,2.27,2.92.1.13.28-.05.18-.18-3.49-4.41-6.81-8.96-9.94-13.63-.09-.13-.31,0-.22.13h0Z" style="fill: #231f20;"/>
      <path d="M31.7,81.73l8.91-3.26c.15-.05.09-.3-.07-.24l-8.91,3.26c-.15.05-.09.3.07.24h0Z" style="fill: #231f20;"/>
      <path d="M42.77,79l5.71,7.13,1.62,2.02c.1.13.28-.05.18-.18l-5.71-7.13-1.62-2.02c-.1-.13-.28.05-.18.18h0Z" style="fill: #231f20;"/>
      <path d="M42.31,95.22c2.74-1.38,5.42-2.87,8.03-4.49.14-.08.01-.3-.13-.22-2.61,1.62-5.29,3.12-8.03,4.49-.14.07-.02.29.13.22h0Z" style="fill: #231f20;"/>
      <path d="M49.01,87.44c.16,0,.16-.25,0-.25s-.16.25,0,.25h0Z" style="fill: #231f20;"/>
      <path d="M60.34,94.01c-.55.13-1.12.29-1.57.65-.53.42-.66,1.05-.58,1.7.15,1.25.78,2.53,2.01,3.01.56.22,1.2.25,1.76,0,.59-.25,1.01-.77,1.32-1.31.35-.62.59-1.32.57-2.04-.01-.61-.23-1.22-.59-1.72-.87-1.19-2.5-1.57-3.82-.92-.14.07-.02.29.13.22,1.07-.53,2.42-.31,3.25.56.38.4.64.91.74,1.45.12.63-.01,1.29-.27,1.87-.23.54-.56,1.08-1.04,1.43s-1.03.45-1.59.33c-1.18-.25-1.9-1.32-2.15-2.44-.14-.64-.2-1.38.32-1.87.42-.4,1.03-.55,1.57-.69.16-.04.09-.28-.07-.24h0Z" style="fill: #231f20;"/>
      <path d="M53.99,95.05c1.56,2.73,3.13,5.47,4.26,8.42.03.08.11.12.18.07,2.84-1.51,5.58-3.22,8.17-5.12.13-.09,0-.31-.13-.22-2.6,1.9-5.33,3.61-8.17,5.12l.18.07c-1.14-2.97-2.71-5.73-4.29-8.48-.08-.14-.3-.01-.22.13h0Z" style="fill: #231f20;"/>
      <path d="M64.47,89.55l3.15,5.22c.25.42.51.83.75,1.25.13.23.24.48.19.74-.04.21-.17.39-.31.55-.31.36-.66.68-.99,1.02-.37.38-.75.76-1.12,1.14-.11.12.06.29.18.18.6-.61,1.19-1.21,1.79-1.82.45-.46.9-.97.62-1.65-.14-.33-.35-.64-.54-.94l-.67-1.11-1.32-2.18-1.52-2.52c-.08-.14-.3-.01-.22.13h0Z" style="fill: #231f20;"/>
      <path d="M54.72,93.28c1.32-1.04,2.85-1.76,4.37-2.45.83-.37,1.66-.75,2.49-1.12s1.64-.78,2.52-.99c.16-.04.09-.28-.07-.24-.87.21-1.68.61-2.5.98-.86.39-1.72.77-2.57,1.16-1.54.7-3.08,1.43-4.42,2.49-.13.1.05.28.18.18h0Z" style="fill: #231f20;"/>
      <path d="M74.64,74.83c-.8.25-1.6.53-2.38.83-.66.26-1.48.48-2.06.9s-.46,1.06-.4,1.67c.09.87.18,1.75.27,2.62.18,1.7.38,3.4.62,5.1.12.87.26,1.74.41,2.6.11.65.2,1.35.63,1.88.85,1.04,2.44.88,3.35,1.84.11.12.29-.06.18-.18-.72-.76-1.78-.84-2.67-1.3-.63-.33-.95-.86-1.11-1.55-.17-.74-.27-1.51-.39-2.26-.25-1.61-.45-3.23-.63-4.85-.09-.79-.17-1.58-.25-2.37-.08-.74-.24-1.54-.21-2.29.02-.59.46-.78.93-.99.44-.19.88-.37,1.33-.54.81-.31,1.63-.6,2.46-.86.15-.05.09-.29-.07-.24h0Z" style="fill: #231f20;"/>
      <path d="M75.75,74.28l2.43-1.66c.06-.04.08-.11.04-.17-.03-.06-.12-.08-.17-.04l-2.43,1.66c-.06.04-.08.11-.04.17.03.06.12.08.17.04h0Z" style="fill: #231f20;"/>
      <path d="M109.63,118.31c2.11,1.53,3.93,3.43,5.37,5.61s2.6,4.73,2.3,7.49c-.16,1.48-.69,2.9-1.53,4.13-.09.13.13.26.22.13,1.47-2.15,1.98-4.9,1.35-7.43-.34-1.39-1.03-2.68-1.77-3.89-.69-1.12-1.49-2.19-2.38-3.17-1.03-1.14-2.18-2.17-3.43-3.07-.13-.09-.26.12-.13.22h0Z" style="fill: #231f20;"/>
      <path d="M.1,7.06c.94,2.48,1.88,4.96,3.07,7.34.59,1.18,1.24,2.32,1.97,3.42s1.56,2.23,2.16,3.47c1.23,2.54,2.19,5.24,3.31,7.83s2.31,5.23,3.52,7.82c1.38,2.95,2.82,5.88,4.3,8.78.07.14.29.02.22-.13-2.58-5.05-5.02-10.18-7.29-15.38-1.14-2.61-2.2-5.25-3.31-7.87-1.05-2.48-2.75-4.52-4.03-6.87C2.53,12.77,1.43,9.87.34,6.99c-.06-.15-.3-.08-.24.07H.1Z" style="fill: #231f20;"/>
      <path d="M7.31,6.31c1.6,2.53,3,5.18,4.19,7.92s2.15,5.8,3.14,8.73,2.1,5.53,3.45,8.2,2.27,5.68,3.48,8.51c1.29,3.02,2.96,5.85,4.96,8.44.1.13.31,0,.22-.13-1.78-2.3-3.3-4.78-4.51-7.42-1.28-2.77-2.08-5.73-3.41-8.48-.66-1.37-1.39-2.7-2.01-4.09s-1.2-2.94-1.71-4.44c-.99-2.87-1.86-5.77-3.02-8.58-1.26-3.06-2.79-6-4.56-8.8-.09-.14-.3-.01-.22.13h0Z" style="fill: #231f20;"/>
      <path d="M1.63,6.58l3.2-1.72,1.59-.85c.08-.04.17-.11.25-.03.04.04.06.11.09.16.07.14.13.27.19.41.12.27.24.53.35.8.24.6.45,1.21.63,1.83.04.15.29.09.24-.07-.17-.6-.37-1.19-.61-1.77-.11-.28-.23-.56-.36-.84-.06-.14-.13-.27-.19-.41-.06-.12-.11-.25-.2-.34-.21-.19-.49.03-.68.13l-.88.47-1.76.95-1.98,1.07c-.14.08-.02.29.13.22h0Z" style="fill: #231f20;"/>
      <path d="M17.99.25c.16,0,.16-.25,0-.25s-.16.25,0,.25h0Z" style="fill: #231f20;"/>
      <path d="M3.63,5.25c-1.1.74-2.29,1.34-3.54,1.78-.15.05-.09.3.07.24,1.27-.45,2.48-1.06,3.6-1.81.13-.09,0-.31-.13-.22h0Z" style="fill: #231f20;"/>
      <path d="M30.5,39.64c-2.84.11-5.67.4-8.48.86-.16.03-.09.27.07.24,2.78-.46,5.59-.74,8.41-.85.16,0,.16-.26,0-.25h0Z" style="fill: #231f20;"/>
      <path d="M28.59,48.42c-2.32-.3-4.64-.6-6.91-1.15-1.1-.26-2.2-.59-3.26-.99-.97-.37-2.09-.77-2.79-1.57-.38-.44-.57-1-.34-1.56s.76-.93,1.24-1.26c.13-.09,0-.31-.13-.22-.73.51-1.59,1.19-1.45,2.19s1.11,1.63,1.93,2.03c2.31,1.11,4.85,1.72,7.37,2.15,1.44.25,2.89.43,4.34.62.16.02.16-.23,0-.25h0Z" style="fill: #231f20;"/>
    </g>
  </g>
</svg>