<?xml version="1.0" encoding="UTF-8"?>
<svg id="Layer_2" data-name="Layer 2" xmlns="http://www.w3.org/2000/svg" viewBox="0 0 181.59 137.31">
  <g id="Sandwich">
    <path d="M10.51,17.84c-.29,7.31,1.1,14.65,4.02,21.36,3,6.9,7.66,12.79,13.16,17.87,2.73,2.52,5.63,4.85,8.59,7.11,3.11,2.37,6.25,4.71,9.51,6.87s6.68,4.08,10.32,5.54,7.71,2.59,11.59,3.79,7.54,2.64,11.25,4.12,7.39,2.94,11.23,3.94c.96.25,1.93.47,2.9.66.16.03.22-.21.07-.24-7.69-1.5-14.71-5.1-22.07-7.65-3.77-1.3-7.63-2.32-11.42-3.6s-7.41-2.9-10.84-4.95-6.5-4.29-9.62-6.61-6.02-4.54-8.88-6.99c-5.66-4.86-10.73-10.42-14.18-17.08s-5.28-13.95-5.41-21.35c-.02-.93,0-1.86.04-2.79,0-.16-.24-.16-.25,0h0Z" style="fill: #231f20;"/>
    <path d="M10.98,16.66c2.52-5.41,6.71-9.97,11.87-12.96,2.84-1.65,6.03-2.92,9.3-3.32,3.6-.45,6.99.59,10.29,1.91,3.74,1.5,7.32,3.37,10.71,5.55.14.09.26-.13.13-.22-3.08-1.99-6.32-3.71-9.69-5.14S36.75-.22,33.08.03c-6.2.42-12.24,3.89-16.55,8.23-2.38,2.4-4.34,5.2-5.77,8.27-.07.14.15.27.22.13h0Z" style="fill: #231f20;"/>
    <path d="M60.62,92.81c6.43,1.84,10.79,7.5,17,9.77s12.61,1.53,18.69.22c.91-.19,1.89-.58,2.82-.55s1.91.31,2.79.64c1.74.66,3.33,1.66,4.94,2.57.14.08.27-.14.13-.22-1.38-.79-2.73-1.62-4.19-2.27-1.22-.54-2.85-1.2-4.21-.97-1.62.27-3.21.75-4.84,1.03-1.72.3-3.46.52-5.21.62-3.26.19-6.58,0-9.72-.95s-6.02-2.94-8.78-4.92c-2.91-2.09-5.88-4.23-9.37-5.23-.15-.04-.22.2-.07.24h0Z" style="fill: #231f20;"/>
    <path d="M10.12,18.11c-1.99,5.41-2.66,11.2-1.84,16.91s2.87,10.73,5.62,15.53c5.71,9.94,14.11,18.18,22.91,25.4,6.05,4.96,12.23,9.86,18.86,14.03.14.09.26-.13.13-.22-6.08-3.82-11.71-8.29-17.31-12.77-4.32-3.45-8.48-7.12-12.34-11.07-7.79-7.97-14.9-17.55-17.23-28.66-1.34-6.39-.83-12.96,1.43-19.09.06-.15-.19-.22-.24-.07h0Z" style="fill: #231f20;"/>
    <path d="M106.7,107.7c1.35,4.79,2.86,9.54,4.53,14.23.6,1.69,1.22,3.55,2.69,4.69,1.62,1.25,3.81,1.3,5.49,2.45.07.05.16,0,.18-.07,1.14-2.94,2.87-5.63,5.09-7.86,1.1-1.11,2.32-2.17,3.75-2.83.78-.36,1.58-.53,2.44-.63.68-.08,1.37-.17,1.99-.47,1.23-.6,1.97-1.82,2.91-2.76,1.09-1.1,2.43-1.92,3.81-2.61s2.97-1.42,4.51-1.87c1.73-.51,3.56-.04,5.33-.22s3.57-.4,5.19-1.03c.71-.28,1.32-.68,1.93-1.13.72-.53,1.46-1.08,2.4-.97.16.02.16-.23,0-.25-1.4-.17-2.37,1.01-3.47,1.67-1.48.88-3.31,1.08-4.98,1.33-.95.14-1.91.25-2.88.21-.89-.03-1.78-.18-2.67-.05-1.57.23-3.11,1.02-4.54,1.66s-2.71,1.32-3.89,2.27-2.01,2.38-3.28,3.25-3.05.63-4.5,1.21c-1.37.54-2.55,1.47-3.61,2.47-2.54,2.37-4.5,5.31-5.75,8.54l.18-.07c-1.58-1.08-3.59-1.18-5.18-2.22-1.82-1.2-2.45-3.51-3.14-5.46-1.57-4.46-3-8.98-4.28-13.54-.04-.15-.28-.09-.24.07h0Z" style="fill: #231f20;"/>
    <path d="M110.27,97.14c.75,1.8-.02,3.81.88,5.6.44.88,1.1,1.65,1.71,2.42.7.89,1.39,1.77,2.09,2.66.35.44.7.89,1.04,1.33.3.38.61.92,1.01,1.19.7.47,1.42-.08,1.99-.49,1.7-1.25,3.46-2.41,5.29-3.45,3.77-2.16,7.75-3.73,11.87-5.06,2-.65,4-1.3,5.91-2.19s3.66-2.15,5.56-3.11c4.08-2.07,8.9-1.87,12.96-4,.14-.07.02-.29-.13-.22-3.48,1.82-7.5,1.91-11.16,3.22-1.82.65-3.42,1.7-5.08,2.68-1.86,1.1-3.83,1.92-5.86,2.62-3.78,1.3-7.57,2.46-11.18,4.23-1.83.9-3.6,1.9-5.31,2.99-.84.54-1.67,1.1-2.48,1.68-.38.27-.75.6-1.16.82-.45.24-.97.19-1.36-.18-.19-.18-.34-.42-.5-.63-1.51-1.93-3.16-3.81-4.54-5.84-.72-1.05-.97-2.11-.98-3.37,0-1.01.04-2.02-.36-2.97-.06-.15-.3-.08-.24.07h0Z" style="fill: #231f20;"/>
    <path d="M126.23,43.9c5.94,2.03,11.88,4.06,17.82,6.08,2.91.99,5.83,1.94,8.71,3.02s5.48,2.39,8.06,3.95,5.09,3.21,7.63,4.82,5.23,3.22,7.75,4.96c1.35.93,2.04,2.11,2.03,3.77,0,1.38-.29,2.78-.64,4.1-.69,2.62-1.86,5.11-3.31,7.4-1.63,2.57-3.63,5.22-6.15,6.97s-5.73,2.46-8.76,3.1c-.16.03-.09.27.07.24,2.71-.57,5.49-1.17,7.92-2.56s4.22-3.53,5.83-5.72,2.96-4.55,3.91-7.08c.49-1.3.87-2.65,1.12-4.02.22-1.21.41-2.5.15-3.72s-1.05-2.02-2.03-2.7c-1.3-.9-2.66-1.71-4-2.56-2.77-1.77-5.55-3.54-8.32-5.31-2.62-1.67-5.25-3.32-8.08-4.61s-5.73-2.22-8.63-3.21c-6.99-2.39-13.99-4.78-20.98-7.16-.15-.05-.22.19-.07.24h0Z" style="fill: #231f20;"/>
    <path d="M159.9,105.89c2.15-2.21,4.37-4.36,6.65-6.43s4.52-3.9,6.6-6.04c1.93-1.98,3.59-4.2,4.89-6.64s2.4-5.01,2.64-7.66c.13-1.47-.2-2.83-.77-4.18-.62-1.48-1.41-2.9-1.58-4.52-.02-.16-.27-.16-.25,0,.28,2.61,2.15,4.73,2.36,7.35.12,1.5-.25,2.98-.71,4.39s-.98,2.65-1.61,3.92c-1.24,2.47-2.85,4.74-4.75,6.75s-4.16,3.91-6.29,5.82c-2.53,2.27-4.98,4.63-7.36,7.07-.11.12.06.29.18.18h0Z" style="fill: #231f20;"/>
    <path d="M8.3,20.12c-3.04,2.24-5.4,5.53-6.11,9.28-.66,3.51.32,7.16,2.74,9.8,1.33,1.45,3.06,2.5,4.99,2.92.16.03.22-.21.07-.24-3.38-.72-6.01-3.43-7.15-6.64-1.21-3.43-.52-7.17,1.32-10.24,1.09-1.82,2.56-3.4,4.27-4.66.13-.09,0-.31-.13-.22h0Z" style="fill: #231f20;"/>
    <path d="M18.55,60.45c-.53,2.81-.02,5.77,1.37,8.27s3.77,4.88,6.7,5.03c1.9.1,3.64-.84,5.44-1.28.16-.04.09-.28-.07-.24-1.55.37-3.01,1.12-4.61,1.26s-2.96-.44-4.16-1.33c-2.25-1.66-3.76-4.24-4.35-6.95-.33-1.54-.36-3.14-.07-4.69.03-.16-.21-.22-.24-.07h0Z" style="fill: #231f20;"/>
    <path d="M41.42,83.63c-2.71,2.07-4.33,4.98-4.27,8.43s1.41,6.56,2.93,9.49c1.78,3.43,3.9,6.7,5.94,9.98,2.35,3.79,4.77,7.54,7.45,11.11,2.98,3.97,6.28,7.7,10.07,10.92.07.06.19.04.21-.06.92-4.22.47-8.55-.46-12.73-.03-.16-.28-.09-.24.07.91,4.14,1.36,8.42.46,12.6l.21-.06c-6.6-5.61-11.63-12.71-16.23-19.98-2.05-3.24-4.1-6.48-6-9.81-1.69-2.94-3.28-6.08-3.87-9.45-.32-1.78-.31-3.65.26-5.38.65-2.01,2.02-3.65,3.68-4.92.13-.1,0-.31-.13-.22h0Z" style="fill: #231f20;"/>
    <path d="M65.4,113.28c1.36-.54,2.19-1.76,2.68-3.09.54-1.47.72-3.05.83-4.6.05-.78.07-1.57.1-2.35,0-.16-.24-.16-.25,0-.05,1.41-.09,2.82-.29,4.22s-.54,2.92-1.37,4.13c-.44.64-1.04,1.17-1.77,1.46-.15.06-.08.3.07.24h0Z" style="fill: #231f20;"/>
    <path d="M62.12,101.4c2.54,1.99,5.91,3.03,8,5.57.58.7,1.02,1.51,1.29,2.38.22.72.2,1.45.31,2.19.21,1.44.65,2.85,1.28,4.16,1.19,2.46,3.39,4.96,6.39,4.58.67-.09,1.32-.49,1.95-.74.74-.3,1.49-.6,2.2-.95,1.03-.52,2.3-1.26,2.31-2.56.02-2.19-.82-4.38-1.57-6.41-.83-2.27-1.77-4.54-2.21-6.93-.03-.16-.27-.09-.24.07.72,3.94,2.81,7.47,3.57,11.39.15.76.41,1.84.06,2.58-.3.63-.95,1.05-1.54,1.38-1.29.73-2.72,1.26-4.09,1.81s-3.08-.15-4.14-1.02c-1.13-.92-1.95-2.19-2.56-3.51s-1.05-2.78-1.21-4.25c-.08-.7-.08-1.33-.31-2.01s-.58-1.38-1.03-1.99c-2.06-2.79-5.63-3.85-8.28-5.93-.13-.1-.3.08-.18.18h0Z" style="fill: #231f20;"/>
    <path d="M86.52,115.07c5.22-.07,9.68,3.1,13.18,6.69,1.74,1.78,3.31,3.73,4.99,5.56,1.26,1.37,2.98,2.79,4.98,2.24s3.22-2.64,3.21-4.61c0-.16-.25-.16-.25,0,.02,2.04-1.46,4.33-3.64,4.48-2.35.16-4.02-2.15-5.38-3.72-3-3.45-6.08-7.02-10.21-9.15-2.13-1.1-4.46-1.76-6.87-1.73-.16,0-.16.25,0,.25h0Z" style="fill: #231f20;"/>
    <path d="M91.84,105.55c5.19,1.92,10.64,4.07,14.18,8.54.93,1.17,1.68,2.47,2.19,3.88.05.15.3.09.24-.07-1.92-5.27-6.82-8.55-11.75-10.7-1.58-.69-3.19-1.29-4.8-1.89-.15-.06-.22.19-.07.24h0Z" style="fill: #231f20;"/>
    <path d="M80.43,120.78c1.06,2.01,2.2,4.12,4.14,5.41,1.04.69,2.22,1.1,3.4,1.48,1.28.41,2.54.84,3.78,1.35,2.53,1.03,4.95,2.32,7.23,3.82,1.78,1.17,3.96,3.04,6.23,2.05,2.41-1.05,2.85-3.92,3.05-6.23.01-.16-.24-.16-.25,0-.2,2.23-.62,5.16-3.04,6.06s-4.68-1.36-6.52-2.53c-1.98-1.25-4.06-2.34-6.22-3.24-1.11-.47-2.23-.88-3.37-1.25s-2.34-.72-3.42-1.29c-2.33-1.22-3.61-3.51-4.8-5.76-.08-.14-.29-.02-.22.13h0Z" style="fill: #231f20;"/>
    <path d="M82.73,119.98c1.38.97,2,2.6,3.06,3.86s2.58,1.74,4.21,1.86c1.99.14,3.91.1,5.83.72,1.03.33,1.97.82,2.92,1.32.77.41,1.58.81,2.45.95,1.35.21,3.05-.44,3.29-1.93.03-.16-.22-.23-.24-.07-.29,1.78-2.45,2.02-3.85,1.54-.88-.3-1.67-.8-2.49-1.22-.77-.39-1.57-.71-2.4-.95-1.71-.5-3.42-.5-5.17-.59s-3.33-.51-4.48-1.92c-1.02-1.26-1.65-2.82-3.01-3.78-.13-.09-.26.12-.13.22h0Z" style="fill: #231f20;"/>
    <path d="M10.19,46.52c-.93,4.28-1.37,8.67-1.28,13.05.04,2.18.21,4.35.51,6.5.26,1.88.59,3.77,1.26,5.56.63,1.65,1.57,3.17,2.94,4.31,1.53,1.27,3.38,2.14,5.14,3.03,3.6,1.83,7.41,3.47,11.47,3.85,2.35.22,4.54-.16,6.83-.63,2.71-.55,5.29-.33,8,.06.16.02.23-.22.07-.24-2.06-.3-4.15-.6-6.23-.38s-4.04.89-6.12.99c-4.17.22-8.22-1.18-11.94-2.92-1.79-.84-3.58-1.73-5.29-2.74s-3.11-2.3-4.04-4.08c-.86-1.65-1.3-3.49-1.61-5.32-.36-2.13-.59-4.28-.69-6.44-.23-4.88.18-9.77,1.22-14.55.03-.16-.21-.22-.24-.07h0Z" style="fill: #231f20;"/>
    <path d="M18.73,60.47c-.04-.89-.09-1.79-.13-2.68,0-.16-.26-.16-.25,0,.04.89.09,1.79.13,2.68,0,.16.26.16.25,0h0Z" style="fill: #231f20;"/>
    <path d="M7.27,48.57c-1.1-.53-2.39-.5-3.46.09-.51.28-.95.67-1.35,1.09s-.82.91-1.13,1.43-.49,1.05-.41,1.63c.06.49.3.93.63,1.3.75.85,1.85,1.32,2.9,1.69,1.44.5,2.95.76,4.47.78.16,0,.16-.25,0-.25-1.24-.02-2.48-.2-3.67-.54-1.05-.3-2.15-.7-3.02-1.39-.37-.29-.7-.65-.9-1.08-.22-.5-.21-1.04-.01-1.54.21-.54.59-1.01.96-1.44s.74-.82,1.19-1.15c1.08-.79,2.48-.99,3.7-.4.14.07.27-.15.13-.22h0Z" style="fill: #231f20;"/>
    <path d="M6.74,57.06c-1.59.11-3.04.92-4.13,2.07-1.14,1.21-2.01,2.82-2.44,4.43-.37,1.4-.21,3.16,1.12,4.02s3.02.38,4.33-.12c1.39-.53,2.77-1.47,3.13-3,.04-.16-.2-.22-.24-.07-.3,1.27-1.36,2.11-2.5,2.63-.59.27-1.22.47-1.86.61-.72.15-1.5.22-2.21-.02-1.53-.52-1.9-2.29-1.59-3.71.17-.78.48-1.53.84-2.25s.75-1.36,1.25-1.96c1.08-1.3,2.59-2.27,4.3-2.39.16-.01.16-.26,0-.25h0Z" style="fill: #231f20;"/>
    <path d="M2.13,38.47c-1.58,3.91-1.81,8.29-.68,12.35.04.15.28.09.24-.07-1.13-4.02-.88-8.35.68-12.22.06-.15-.18-.21-.24-.07h0Z" style="fill: #231f20;"/>
    <path d="M1.64,56.67l.64,1.53c.03.06.08.11.15.09.06-.02.11-.09.09-.15l-.64-1.53c-.03-.06-.08-.11-.15-.09-.06.02-.11.09-.09.15h0Z" style="fill: #231f20;"/>
    <path d="M2.15,55.4l.89,3.45c.04.16.28.09.24-.07l-.89-3.45c-.04-.16-.28-.09-.24.07h0Z" style="fill: #231f20;"/>
    <path d="M6.55,68.06c2.47,6.27,6.51,11.71,10.81,16.84s8.94,10.75,14.69,14.76c3.15,2.2,6.54,4.04,10.06,5.6.15.06.27-.15.13-.22-6.21-2.75-12-6.4-16.75-11.29-2.44-2.5-4.69-5.2-6.95-7.86s-4.28-5.14-6.2-7.88c-2.2-3.13-4.12-6.46-5.53-10.02-.06-.15-.3-.08-.24.07h0Z" style="fill: #231f20;"/>
    <path d="M65.52,117.66c5.21,3.61,11.17,6.08,17.42,7.19.16.03.22-.21.07-.24-6.22-1.1-12.16-3.56-17.36-7.16-.13-.09-.26.12-.13.22h0Z" style="fill: #231f20;"/>
    <path d="M112.26,128.89c1.33-.4,2.7.32,3.44,1.44s.88,2.39.91,3.65c.02.76.06,1.73.78,2.18.93.58,2.1-.16,3.07-.18,2.03-.04,4.13,1.48,6.05.17,1.64-1.11,2.12-3.26,3.52-4.59.55-.52,1.2-.92,1.9-1.18.48-.18,1-.29,1.38-.66.79-.74.87-3.33,2.4-2.89.15.04.22-.2.07-.24-.83-.24-1.48.45-1.78,1.15-.24.54-.33,1.16-.71,1.63-.44.55-1.18.64-1.79.91-.97.42-1.77,1.11-2.39,1.96-.59.8-1.02,1.71-1.6,2.51-.69.96-1.59,1.68-2.82,1.68s-2.33-.51-3.51-.67c-.5-.07-.98-.06-1.48.04-.68.14-1.53.55-2.19.12-.56-.36-.62-1.12-.65-1.72-.02-.57-.04-1.13-.12-1.69-.18-1.17-.63-2.37-1.55-3.16-.83-.71-1.94-1.05-3.01-.73-.15.05-.09.29.07.24h0Z" style="fill: #231f20;"/>
    <path d="M135.55,127.36c.16,0,.16-.25,0-.25s-.16.25,0,.25h0Z" style="fill: #231f20;"/>
    <path d="M136.76,126.7c8.79-3.71,17.29-8.1,25.39-13.14,2.03-1.26,4.03-2.56,6-3.89,1.85-1.26,3.72-2.52,5.44-3.96,3.34-2.79,5.71-6.38,6.95-10.56,1.51-5.1,1.26-10.53.11-15.68-.04-.16-.28-.09-.24.07,1.05,4.69,1.35,9.62.22,14.32-1.04,4.3-3.24,8.15-6.55,11.09-1.71,1.52-3.6,2.82-5.48,4.11s-3.84,2.57-5.79,3.79c-3.91,2.46-7.91,4.76-11.99,6.92-4.63,2.44-9.36,4.68-14.18,6.71-.15.06-.02.28.13.22h0Z" style="fill: #231f20;"/>
    <path d="M127.32,120.98c0,.9,0,1.81,0,2.71,0,.42,0,.84.01,1.26s-.02.86.08,1.27c.13.54.57,1.11,1.18,1.04s.97-.73,1.23-1.2c1.48-2.62,1.45-6.11,4.27-7.82.34-.21.67-.42.92-.73s.42-.69.6-1.06c.44-.91.89-1.82,1.33-2.73.07-.14-.15-.27-.22-.13-.36.73-.72,1.46-1.07,2.19-.33.68-.6,1.47-1.23,1.93-.51.37-1.06.64-1.51,1.08s-.8.96-1.1,1.51c-.63,1.18-.97,2.48-1.4,3.73-.24.68-.5,1.36-.87,1.99-.18.3-.37.66-.67.85-.44.29-.92.01-1.12-.42s-.17-.92-.18-1.38,0-.88-.01-1.32c0-.93,0-1.85,0-2.78,0-.16-.25-.16-.25,0h0Z" style="fill: #231f20;"/>
    <path d="M100.31,133.49c.16,0,.16-.25,0-.25s-.16.25,0,.25h0Z" style="fill: #231f20;"/>
    <path d="M30.94,83.98c1.95.79,3.45,2.33,4.76,3.93.38.46.75.94,1.12,1.41.1.13.31,0,.22-.13-1.31-1.69-2.66-3.42-4.45-4.62-.5-.33-1.02-.61-1.58-.83-.15-.06-.21.18-.07.24h0Z" style="fill: #231f20;"/>
    <path d="M6.65,42.6c-.29,2.59,0,5.23.85,7.69.05.15.29.09.24-.07-.84-2.45-1.12-5.06-.84-7.63.02-.16-.23-.16-.25,0h0Z" style="fill: #231f20;"/>
    <path d="M50.46,13.74c.11-2.59,1.48-4.91,3.43-6.56,2.13-1.79,4.8-2.68,7.56-2.79,6.41-.25,12.11,3.18,17.65,5.94,2.66,1.32,5.38,2.4,8.19,3.36s5.49,1.81,8.08,3.09,4.95,3.08,7,5.22,3.8,4.39,5.82,6.49c3.99,4.15,8.6,7.64,12.71,11.66,2.07,2.02,3.99,4.19,5.65,6.57s3.13,4.93,4.71,7.39c1.49,2.32,3.09,4.58,5.02,6.56s3.95,3.55,5.54,5.68c.76,1.03,1.39,2.16,1.73,3.4.39,1.41.41,2.89.51,4.34.09,1.29.24,2.6.77,3.79s1.51,2.19,2.47,3.11c1.05,1.01,2.12,2.04,2.64,3.43.58,1.55.13,2.87-1,4.01-.85.86-1.68,1.67-2.39,2.66s-1.4,2.12-2.11,3.17c-1.55,2.28-3.48,4.12-6.31,4.56s-5.76-.45-8.37-1.5c-1.34-.54-2.65-1.33-4.05-1.67-1.24-.3-2.43.03-3.6.48-1.32.51-2.61,1.08-4.06.95s-2.82-.8-4.15-1.35-2.74-.94-4.21-1.08-2.95-.09-4.43-.06c-2.93.06-5.9,0-8.5-1.51-2.29-1.33-4.01-3.43-5.45-5.61-1.57-2.38-2.89-4.93-4.28-7.41-3.27-5.84-6.54-11.69-9.8-17.53-1.27-2.27-2.55-4.67-4.67-6.27s-4.92-1.96-7.34-3.05c-2.62-1.18-4.1-3.46-5.5-5.85-1.25-2.13-2.6-4.36-4.8-5.63-.99-.57-2.12-.89-3.27-.79-1.49.12-2.91.77-4.4.25-2.92-1.01-3.9-4.32-4.7-6.96s-1.85-4.8-3.81-6.62c-.91-.85-1.95-1.56-3.07-2.1s-2.38-.83-3.45-1.5c-1.22-.77-1.57-1.93-1.9-3.25-.24-.96-.57-1.91-1.42-2.49-.99-.67-2.74-.97-2.47-2.54s1.8-2.22,3.18-2.13c1.56.11,3.02.87,4.51,1.26,1.41.37,2.86.58,4.32.62s2.99-.09,4.45-.4c.83-.18.76-1,.22-1.51-.77-.75-1.82-.82-2.83-.93-1.65-.17-3.3-.34-4.95-.51-.06,0-.1.04-.12.09-.48,1.17-.59,2.41-.33,3.65l.18-.14c-2.49-1.33-2.48-4.55-1.35-6.79s3.27-4.93,5.87-5.06,4.01,2.68,6.03,3.87c.85.5,1.89.84,2.87.54.53-.16.95-.61,1.49-.73.7-.15,1.06.39,1.08,1.01.03,1.17-.79,1.96-1.2,2.98-.31.78-.43,1.72.38,2.22.14.09.26-.13.13-.22-1.29-.81.12-2.53.57-3.42.33-.66.58-1.64.2-2.33-.45-.81-1.35-.49-1.99-.11-1.49.89-3.02.26-4.27-.76-1.86-1.52-3.47-3.95-6.24-3.12-1.15.34-2.13,1.13-2.95,1.99-.95.99-1.8,2.15-2.37,3.4-1.03,2.29-.83,5.44,1.62,6.75.1.05.21-.03.18-.14-.17-.83-.19-1.66,0-2.49.08-.34.11-.78.46-.9.16-.06.57.06.74.08l.74.08c.83.09,1.65.17,2.48.26s1.71.07,2.49.37c.5.2,1.94,1.11.91,1.63-.29.14-.81.16-1.12.21-.51.08-1.03.14-1.55.17-1.66.11-3.33,0-4.96-.31s-3.02-.97-4.57-1.34c-1.13-.28-2.38-.34-3.36.37-.7.5-1.28,1.35-1.22,2.24.07,1.06,1.02,1.54,1.87,1.94.6.29,1.14.61,1.49,1.2s.49,1.24.65,1.88c.27,1.07.61,2.06,1.5,2.76.97.76,2.19,1.08,3.3,1.54,1.3.54,2.49,1.31,3.53,2.26s1.85,1.98,2.49,3.17c.77,1.41,1.18,2.97,1.66,4.49.73,2.35,1.85,4.94,4.29,5.95,1.29.53,2.55.22,3.87-.03,1.55-.29,2.98-.03,4.31.83,2.37,1.54,3.62,4.11,5.04,6.44.67,1.1,1.41,2.19,2.34,3.09s2,1.52,3.18,2c2.71,1.09,5.62,1.53,7.77,3.69s3.41,4.99,4.85,7.57c1.67,2.99,3.35,5.99,5.02,8.98s3.39,6.06,5.08,9.09c1.3,2.33,2.6,4.68,4.28,6.77,1.51,1.87,3.37,3.49,5.65,4.33,2.86,1.06,5.97.73,8.95.72,1.6,0,3.22.08,4.76.51,1.44.41,2.76,1.13,4.18,1.6,1.24.41,2.51.57,3.79.24s2.53-1.06,3.89-1.31c1.72-.31,3.2.59,4.72,1.25,1.29.56,2.61,1.07,3.97,1.45,2.5.7,5.26.98,7.7-.09s3.77-3.1,5.1-5.16c.72-1.1,1.42-2.23,2.29-3.22.82-.94,1.94-1.69,2.5-2.84,1.19-2.48-1.04-4.85-2.68-6.43-1.12-1.08-2.18-2.19-2.67-3.7s-.48-2.99-.59-4.5c-.09-1.33-.25-2.66-.75-3.9-.43-1.08-1.06-2.06-1.79-2.96-1.67-2.09-3.8-3.75-5.62-5.69-4.13-4.39-6.62-9.98-10.22-14.76-3.54-4.7-8.14-8.42-12.52-12.29-2.21-1.96-4.36-3.98-6.33-6.18s-3.84-4.56-6.04-6.57c-4.41-4.03-10.11-5.53-15.6-7.5-2.98-1.07-5.79-2.45-8.6-3.89s-5.62-2.86-8.64-3.77c-5.2-1.55-11.25-1.44-15.23,2.71-1.56,1.62-2.57,3.69-2.66,5.95,0,.16.24.16.25,0h0Z" style="fill: #231f20;"/>
    <path d="M50,19.53c.17.63.22,1.29.11,1.94-.1.61-.38,1.14-.58,1.72-.17.49-.25,1.02-.02,1.51.21.46.61.79,1.03,1.06,1.72,1.11,3.86,1.11,5.81,1.38,1.15.16,2.29.43,3.29,1.05.14.09.26-.13.13-.22-1.68-1.05-3.72-1.1-5.63-1.35-1-.13-2.03-.33-2.94-.78-.45-.22-.91-.5-1.23-.9-.42-.5-.39-1.1-.19-1.69.22-.64.51-1.22.6-1.9.09-.63.04-1.27-.13-1.89-.04-.15-.28-.09-.24.07h0Z" style="fill: #231f20;"/>
    <path d="M57.23,33.7c.69,1.02,1.78,1.61,2.87,2.12.57.27,1.15.52,1.71.81.62.33,1.2.73,1.71,1.21.63.59,1.18,1.25,1.72,1.92.1.12.28-.05.18-.18-.92-1.12-1.86-2.23-3.13-2.97-1.07-.62-2.25-1.02-3.31-1.65-.6-.36-1.14-.8-1.54-1.38-.09-.13-.31,0-.22.13h0Z" style="fill: #231f20;"/>
    <path d="M66.95,36.86c1.28.51,2.47,1.25,3.49,2.17.29.26.56.54.83.83.11.12.28-.06.18-.18-.95-1.04-2.08-1.92-3.33-2.56-.36-.18-.72-.35-1.09-.5-.15-.06-.21.18-.07.24h0Z" style="fill: #231f20;"/>
    <path d="M41.25,22.74c.52,1.09,1.04,2.19,1.73,3.19s1.55,1.84,2.55,2.54c.58.4,1.19.77,1.79,1.13.14.08.26-.13.13-.22-1.05-.63-2.12-1.26-3.01-2.11s-1.52-1.82-2.08-2.87c-.31-.59-.6-1.19-.89-1.79-.07-.15-.28-.02-.22.13h0Z" style="fill: #231f20;"/>
    <path d="M86.02,61.44c1,2.22,1.17,5.04,3.17,6.67,1.06.86,2.39,1.27,3.68,1.64,1.53.44,3.09.79,4.65,1.1,1.81.35,3.62.63,5.44.92.16.02.23-.22.07-.24-3.04-.47-6.09-.95-9.08-1.73-1.39-.37-2.88-.73-4.11-1.51-1.14-.73-1.82-1.86-2.28-3.11s-.77-2.61-1.33-3.85c-.07-.15-.28-.02-.22.13h0Z" style="fill: #231f20;"/>
    <path d="M93.46,71.53l1.6,1.59.45.45c.11.11.29-.06.18-.18l-1.6-1.59-.45-.45c-.11-.11-.29.06-.18.18h0Z" style="fill: #231f20;"/>
    <path d="M93.38,70.8l2.32.96c.13.05.23-.17.1-.23-1.15-.5-2.31-.99-3.46-1.49l-.1.23c1.09.46,2.3.64,3.48.52.16-.02.16-.27,0-.25-1.16.11-2.33-.06-3.41-.51-.13-.05-.23.17-.1.23,1.15.5,2.31.99,3.46,1.49l.1-.23-2.32-.96c-.06-.03-.14.03-.15.09-.02.07.03.13.09.15h0Z" style="fill: #231f20;"/>
    <path d="M112.36,74.34c1.2.97,2.52,1.78,3.93,2.39.4.17.81.33,1.22.47.15.05.22-.19.07-.24-1.42-.49-2.77-1.18-4.01-2.03-.35-.24-.7-.5-1.03-.77-.12-.1-.3.08-.18.18h0Z" style="fill: #231f20;"/>
    <path d="M121.98,67.62c3.2,1.5,7.11.97,10.04,3.13.73.54,1.33,1.24,1.69,2.08.06.15.28.02.22-.13-1.42-3.3-5.5-3.73-8.57-4.33-1.11-.21-2.22-.49-3.25-.97-.14-.07-.27.15-.13.22h0Z" style="fill: #231f20;"/>
    <path d="M137.74,88.74c.76,1.04,1.62,2.07,2.99,2.21s2.87-.53,4.06-1.23c.73-.42,1.43-.91,2.12-1.39.13-.09,0-.31-.13-.22-1.12.78-2.26,1.56-3.53,2.09s-2.7.81-3.87-.03c-.58-.42-1.02-1-1.43-1.57-.09-.13-.31,0-.22.13h0Z" style="fill: #231f20;"/>
    <path d="M96,79.65c.19,1.16.43,2.41,1.42,3.17.86.66,1.98.79,3,1.05.57.15,1.14.34,1.62.69.58.42.99,1.01,1.39,1.6.9,1.32,1.79,2.64,2.69,3.96.49.73.99,1.45,1.48,2.18.47.69,1.05,1.5.78,2.37-.05.15.19.22.24.07.18-.58.03-1.15-.25-1.67-.36-.68-.84-1.31-1.28-1.95-.92-1.35-1.83-2.7-2.75-4.05-.71-1.05-1.39-2.32-2.55-2.95-1.01-.55-2.19-.61-3.27-.99-.69-.24-1.28-.65-1.65-1.29-.39-.68-.52-1.48-.64-2.25-.03-.16-.27-.09-.24.07h0Z" style="fill: #231f20;"/>
    <path d="M106.86,94.71c-1.32,1.06-3.09,1.14-4.71,1.02-1.74-.13-3.65-.36-5.12-1.37-.76-.53-1.37-1.26-1.64-2.16-.05-.15-.29-.09-.24.07.5,1.69,2.07,2.73,3.69,3.19.95.27,1.95.4,2.93.49.89.08,1.78.11,2.67,0,.94-.13,1.83-.46,2.58-1.06.13-.1-.05-.28-.18-.18h0Z" style="fill: #231f20;"/>
    <path d="M71.72,46.26c6.57-.66,11.68-5.34,17.44-8.07.13-.06.04-.27-.1-.23-3.19,1.02-6.02,2.83-9.04,4.25-3.22,1.52-6.64,2.58-10.03,3.63l.15.15c.41-1.42,2.63-1.48,3.8-1.77,1.69-.42,3.34-.99,4.95-1.66,3.17-1.32,6.18-2.99,9.17-4.67.14-.08.01-.29-.13-.22-3.22,1.8-6.46,3.61-9.91,4.96-1.68.66-3.4,1.2-5.16,1.57-1.1.23-2.6.45-2.97,1.71-.03.09.06.18.15.15,3.3-1.03,6.62-2.06,9.77-3.5s6.02-3.33,9.31-4.38l-.1-.23c-5.71,2.71-10.8,7.38-17.31,8.03-.16.02-.16.27,0,.25h0Z" style="fill: #231f20;"/>
    <path d="M92.78,37.99c1,.09,1.95-.19,2.86-.57s1.85-.86,2.77-1.31c1.75-.87,3.47-1.81,5.02-3.01.37-.29.8-.58,1.09-.95.17-.22.27-.53.06-.76-.19-.21-.51-.19-.76-.13-.48.12-.94.37-1.4.56-1.97.82-3.91,1.7-5.83,2.63-1.04.51-2.11,1-3.11,1.58-.75.44-1.45,1-1.74,1.85-.03.08.04.15.12.16.6.03,1.21.07,1.81.1.16,0,.16-.24,0-.25-.6-.03-1.21-.07-1.81-.1l.12.16c.26-.77.91-1.27,1.58-1.67.75-.44,1.55-.82,2.33-1.21,1.72-.85,3.46-1.66,5.23-2.43.86-.37,1.73-.79,2.61-1.09.15-.05.37-.12.53-.07.35.13.11.47-.05.63-.34.36-.76.66-1.16.96-1.39,1.05-2.92,1.9-4.47,2.68-.87.44-1.75.87-2.64,1.27-1,.45-2.05.83-3.17.73-.16-.01-.16.24,0,.25h0Z" style="fill: #231f20;"/>
    <path d="M115,59.52c.24.33.33.73.47,1.1s.33.69.65.92c.3.21.69.27,1.01.07.3-.19.48-.53.57-.86.16-.63.01-1.33-.38-1.84s-1-.79-1.65-.71c-.69.09-1.34.54-1.54,1.22-.05.15.2.22.24.07.15-.52.61-.88,1.12-1.01.54-.13,1.1.01,1.48.41s.58,1,.52,1.56c-.03.29-.14.6-.34.81-.21.23-.52.28-.79.13-.34-.18-.53-.52-.66-.87-.14-.39-.25-.79-.49-1.13-.09-.13-.31,0-.22.13h0Z" style="fill: #231f20;"/>
    <path d="M112.77,61.03c-.67.35-1.22.91-1.56,1.58-.05.1.03.21.14.18,1.13-.25,2.57-.66,2.75-2.01.07-.48-.07-1.01-.48-1.31-.56-.4-1.27-.18-1.81.13-.29.17-.57.38-.83.6-.23.2-.46.44-.53.75-.15.67.43,1.22.86,1.64.23.23.46.47.61.77.12.26.19.54.3.81.21.51.68.86,1.23.6.75-.34.76-1.23.67-1.93-.06-.48-.3-1.34-.96-1.17l.16.12c.03-.28.46-.26.62-.12.27.24.22.65.18.96-.02.23-.01.55.17.73.21.21.47.05.65-.11.49-.46.98-1.01,1.05-1.71.05-.55-.2-1.21-.77-1.38-.54-.16-1.21.18-1.24.77,0,.15.2.16.25.03.15-.41.53-.82.99-.87.56-.06.61.74.53,1.11-.09.46-.35.86-.57,1.27-.1.19-.2.38-.27.58-.06.17-.1.36.04.5.23.23.7.12.98.09.36-.05.73-.13,1.03-.32.34-.22.54-.55.62-.94s.12-.82,0-1.19c-.11-.35-.38-.62-.76-.61-.32,0-.6.19-.63.52-.01.16.24.16.25,0,.02-.29.44-.33.64-.21.31.18.33.64.32.96-.02.38-.09.81-.37,1.09-.25.25-.6.36-.94.42-.17.03-.34.05-.52.06-.13,0-.41.06-.47-.09s.13-.45.19-.58c.1-.2.21-.4.32-.59.33-.6.65-1.48.15-2.09-.27-.33-.7-.27-1.04-.08s-.61.52-.75.89l.25.03c.03-.51.72-.7,1.1-.45.51.34.51,1.08.27,1.58-.14.3-.35.55-.58.78-.1.11-.21.22-.32.31-.14.11-.23.06-.28-.09-.08-.25,0-.51,0-.77s-.06-.55-.25-.75c-.32-.35-1.02-.25-1.08.26,0,.08.09.14.16.12.49-.13.62.74.66,1.06.07.56.07,1.26-.5,1.56-.23.12-.49.11-.69-.06-.17-.15-.25-.38-.32-.59s-.14-.43-.24-.64c-.11-.23-.27-.43-.44-.61-.36-.39-.88-.76-1-1.31-.13-.6.55-1.03.97-1.32.45-.31,1.05-.64,1.61-.43.44.17.61.62.59,1.06-.06,1.32-1.53,1.69-2.58,1.93l.14.18c.33-.64.84-1.16,1.47-1.49.14-.07.02-.29-.13-.22h0Z" style="fill: #231f20;"/>
    <path d="M115.56,65.77l1.58-1.63c.41-.42.82-.99,1.37-1.25.16-.08.35-.15.52-.1.42.13.18.6-.01.8-.25.27-.59.48-.89.7-.54.4-1.08.8-1.62,1.19-2.23,1.59-4.56,3.07-7.16,3.99-.12.04-.12.2,0,.24.75.28,1.54.42,2.34.36.38-.03.75-.11,1.12-.2.34-.08.63-.16.97-.02.14.06.26.16.41.21.49.16.89-.16,1.07-.61.26-.66-.11-1.36-.08-2.03l-.21.09c1.6,1.37-.03,4.18,1.7,5.47.3.22.69.29.88-.1.25-.53-.07-1.33-.16-1.86-.16-.85-.31-1.69-.47-2.54-.12-.67-.16-1.47-.47-2.08-.23-.44-.7-.69-1.16-.4-.59.38-.5,1.14-.33,1.71l.24-.07c-.37-1.1.86-1.68,1.71-1.92.89-.25,1.79-.48,2.68-.72l-.14-.18c-.63,1.35-1.84,2.24-3.02,3.09-.1.07-.07.23.06.23,1.05.03,2.1-.1,3.1-.41.7-.22,1.49-.55,1.79-1.27.23-.57.09-1.26-.5-1.54-.68-.32-1.51.1-2.09.45-.12.07-.04.28.1.23.84-.29,1.68-.58,2.52-.87.39-.14.79-.27,1.18-.41.21-.07.43-.16.65-.22.13-.05.27-.07.41-.07l.18.6c-.05.1-.47.22-.57.26-.2.09-.4.18-.6.27-.32.15-.67.27-.98.46-.33.2-.66.56-.44.96s.78.4,1.18.37c.64-.06,1.28-.21,1.88-.44,1.24-.46,2.34-1.23,3.19-2.24.05-.06.05-.15-.03-.2-1.22-.74-2.86-.51-3.83.54-.11.12.07.3.18.18.9-.97,2.4-1.18,3.53-.5l-.03-.2c-.91,1.06-2.09,1.86-3.42,2.29-.61.2-1.4.44-2.05.3-.34-.07-.53-.41-.24-.72.11-.12.27-.19.42-.26.35-.17.7-.32,1.05-.48.37-.17,1.22-.36,1.22-.88,0-.44-.48-.62-.84-.57s-.75.23-1.11.35c-.39.14-.79.27-1.18.41-.79.27-1.57.54-2.36.81l.1.23c.49-.3,1.2-.69,1.79-.47.95.35.45,1.51-.14,1.91-1.12.76-2.77.9-4.08.86l.06.23c1.21-.87,2.46-1.79,3.11-3.18.04-.1-.03-.21-.14-.18-1.13.3-2.37.51-3.44.98-.76.34-1.42,1.09-1.13,1.97.05.15.29.09.24-.07-.13-.44-.26-1.03.14-1.37.5-.43.87.12,1,.54.2.67.28,1.4.4,2.08.15.82.3,1.63.46,2.45.07.37.21.79.18,1.17-.02.32-.37.4-.62.21-.09-.07-.17-.17-.24-.26-.58-.78-.46-1.91-.51-2.83-.05-.84-.18-1.73-.86-2.31-.08-.07-.21-.02-.21.09-.02.63.33,1.31.1,1.92-.07.18-.17.36-.34.45-.23.13-.44,0-.66-.09s-.38-.19-.63-.19c-.63,0-1.24.29-1.87.31-.73.03-1.44-.1-2.11-.36v.24c2.49-.89,4.74-2.27,6.89-3.78.55-.39,1.09-.78,1.63-1.18.46-.34,1.08-.68,1.42-1.15.49-.69-.15-1.26-.85-.98-.56.23-.94.73-1.35,1.15l-1.77,1.82c-.11.12.06.29.18.18h0Z" style="fill: #231f20;"/>
    <path d="M111.42,83.06c.16,0,.16-.25,0-.25s-.16.25,0,.25h0Z" style="fill: #231f20;"/>
    <path d="M112.44,88.17c.16,0,.16-.25,0-.25s-.16.25,0,.25h0Z" style="fill: #231f20;"/>
    <path d="M119.02,73.21c.78.34,1.56.69,2.34,1.02.3.13.62.23.94.11.29-.1.51-.33.74-.53.5-.46,1.12-.73,1.81-.71.33,0,.67.08.97.23.25.12.52.33.8.16.25-.15.35-.51.43-.76.12-.36.2-.73.23-1.1.06-.54.07-1.31-.67-1.3-.84.02-1.69.13-2.52.23s-1.65.21-2.47.34c-.76.12-1.6.22-2.21.74-.49.42-.74,1.15-.41,1.74.08.14.29.01.22-.13-.3-.54.03-1.21.5-1.53.52-.36,1.17-.45,1.78-.55,1.46-.24,2.93-.42,4.41-.54.17-.01.34-.03.51-.04s.39-.06.51.09c.18.21.12.58.1.83-.03.35-.1.7-.2,1.04-.07.23-.19.81-.53.74-.15-.03-.28-.14-.42-.2-.12-.05-.24-.1-.36-.14-.26-.07-.53-.11-.8-.1-.53.01-1.06.17-1.49.47-.26.18-.47.43-.72.62-.34.25-.66.23-1.04.07-.78-.33-1.55-.68-2.33-1.01-.15-.06-.27.15-.13.22h0Z" style="fill: #231f20;"/>
    <path d="M118.62,69.02c.34.25.65.53.93.84.2.22.74.74.53,1.07-.18.28-.63.36-.94.32-.32-.04-.63-.19-.88-.38-.51-.39-.84-1.04-.73-1.69.06-.32.24-.61.56-.69.36-.09.73.05,1.01.26.84.62,1.27,1.93,2.43,2.06.63.07,1.24-.34,1.52-.89s.2-1.22-.19-1.71c-.45-.57-1.18-.86-1.89-.72s-1.37.68-1.67,1.36l.23.06c.05-.56.43-1.03.92-1.29.58-.3,1.29-.28,1.9-.1.58.16,1.24.48,1.4,1.12.08.33-.03.57-.19.85-.11.18-.19.39-.09.6.18.37.68.26.97.11.24-.13.46-.33.66-.52.23-.22.44-.45.64-.69.33-.42.64-.96.49-1.51-.11-.4-.46-.66-.85-.75-1.19-.28-1.9.86-2.17,1.85-.04.16.2.22.24.07.24-.86.87-1.97,1.94-1.65.52.15.73.64.56,1.15-.19.55-.66,1.03-1.08,1.42-.18.17-.37.35-.6.45-.16.07-.51.18-.58-.06-.07-.22.21-.48.28-.67.09-.22.09-.47.03-.7-.25-.99-1.52-1.4-2.42-1.43-1.07-.04-2.19.62-2.28,1.76-.01.12.18.17.23.06.31-.68.97-1.23,1.74-1.27.72-.04,1.46.44,1.67,1.15s-.28,1.53-1.01,1.69c-.64.14-1.16-.32-1.54-.78s-.7-.93-1.18-1.26-1.25-.46-1.67.07c-.36.45-.32,1.12-.11,1.62.24.57.76,1.03,1.35,1.23.31.1.66.12.98.02s.64-.33.63-.69c-.01-.39-.36-.74-.6-1.02-.31-.35-.66-.66-1.03-.94-.13-.09-.26.12-.13.22h0Z" style="fill: #231f20;"/>
    <path d="M42.58,47.22c-.23.68-.5,1.48-.2,2.18.21.5.71.94,1.28.86s.97-.61,1.08-1.15c.17-.8-.05-1.7-.14-2.5-.06-.51-.12-1.15-.57-1.48s-1-.14-1.34.24c-.51.57-.44,1.3-.38,2.01.04.44.01.84-.05,1.27-.05.32-.08.65.05.96.29.68.99.59,1.5.22.58-.41.94-1.05,1.02-1.75l-.21.09c.32.29.3.77.6,1.07.22.22.53.28.82.21.83-.19,1.06-1.05.98-1.79-.05-.49-.17-.98-.27-1.47-.08-.42-.11-.95-.45-1.26-.56-.5-1.45-.07-1.97.26l.19.11c-.01-.68.1-1.35.36-1.99.13-.33.3-.64.51-.93.28-.39.68-.51,1.11-.29.93.48,1.04,1.85.3,2.53-.3.27-.55.59-.28.98.12.18.32.3.5.4.34.19.7.35,1.04.53,1.32.67,2.63,1.39,3.97,2,.95.44,2.4.63,2.87-.58.02-.05-.01-.11-.06-.14-2.41-1.43-4.89-2.76-7.41-3.98l.04.17c.22-.42.82-.2,1.15-.04.48.24.95.51,1.43.76.95.5,1.89,1.01,2.84,1.51.46.25.92.49,1.39.74.41.22.82.46,1.28.52.61.08,1.33-.32,1.27-1.01,0-.05-.04-.11-.09-.12-1.33-.21-2.57-.88-3.45-1.9s-1.2-2.35-2.21-3.21c-.08-.07-.22-.03-.21.09.03,1.23.31,2.42.81,3.54l.14-.18c-1.17-.49-2.34-.99-3.51-1.48-.15-.06-.21.18-.07.24,1.17.49,2.34.99,3.51,1.48.11.05.18-.1.14-.18-.49-1.08-.75-2.23-.78-3.41l-.21.09c1.06.9,1.41,2.36,2.36,3.37s2.12,1.6,3.42,1.8l-.09-.12c.06.66-.68.85-1.19.72s-.97-.44-1.42-.68c-.9-.48-1.81-.96-2.71-1.45s-1.72-.99-2.62-1.39c-.44-.19-1.1-.33-1.37.19-.03.06-.02.14.04.17,2.53,1.22,5,2.55,7.41,3.98l-.06-.14c-.26.66-1.05.85-1.68.72-.74-.15-1.43-.59-2.1-.92s-1.34-.68-2-1.01c-.63-.32-1.36-.59-1.94-1-.17-.12-.29-.25-.26-.47.03-.21.19-.3.33-.43.16-.15.29-.32.38-.52.16-.35.18-.76.1-1.13-.15-.74-.95-1.68-1.8-1.34-.52.21-.84.94-1.03,1.42-.28.67-.4,1.39-.39,2.11,0,.09.11.16.19.11.44-.27,1.29-.73,1.73-.24.24.27.27.8.34,1.15.08.38.16.75.22,1.13.1.69.03,1.66-.83,1.77-.73.09-.69-.85-1.1-1.23-.09-.08-.2-.02-.21.09-.08.66-.45,1.28-1.03,1.62-.41.24-.87.25-1.04-.27-.12-.36,0-.74.04-1.1.09-.71-.15-1.42-.02-2.12.11-.6.87-1.45,1.45-.79.4.45.37,1.27.43,1.84.08.68.27,1.51-.06,2.15-.39.75-1.27.75-1.69.03-.4-.67-.1-1.5.13-2.18.05-.15-.19-.22-.24-.07h0Z" style="fill: #231f20;"/>
    <path d="M48.4,47.5l.62,1.29c.18.36.55.89.62,1.29.1.62-.23.63-.61.79-.26.11-.51.21-.77.32-.45.19-.89.37-1.34.56-.07.03-.1.08-.09.15.24,1.27,1.75.91,2.54.48,1.48-.8,2.87-1.75,4.43-2.38s3.16-.74,4.76-1.07,2.98-1.02,4.35-1.84c1.74-1.04,3.46-2.1,5.19-3.15.1-.06.07-.19-.03-.23-1.47-.56-3.21.28-4.61.72-1.64.52-3.26,1.11-4.83,1.82-3.07,1.39-6.09,3.08-9.5,3.47l.12.12c.08-.95.05-1.88-.11-2.82l-.18.14,2.11.93c.15.06.27-.15.13-.22l-2.11-.93c-.1-.05-.2.03-.18.14.15.92.18,1.83.1,2.76,0,.06.06.13.12.12,3.14-.37,5.96-1.81,8.79-3.12,1.57-.73,3.17-1.39,4.82-1.93.84-.28,1.69-.54,2.54-.8s1.8-.52,2.71-.18l-.03-.23c-1.76,1.07-3.51,2.15-5.28,3.2-.82.49-1.65.95-2.54,1.29s-1.85.52-2.8.68-1.91.29-2.83.58c-.78.25-1.53.59-2.26.97-.83.44-1.64.93-2.45,1.4-.71.41-2.48,1.41-2.75,0l-.09.15c.64-.27,1.28-.53,1.92-.8.31-.13.91-.26,1.05-.62.16-.4-.25-.94-.4-1.27l-.93-1.93c-.07-.14-.29-.02-.22.13h0Z" style="fill: #231f20;"/>
    <path d="M50.29,53.38c.31.53.63,1.05.94,1.58.05.08.14.23.08.33-.05.09-.2.1-.28.13-.3.08-.59.16-.89.25-.34.09-.68.19-1.02.28l.16.12c-.08-.98,0-1.97.24-2.93.04-.16-.2-.22-.24-.07-.24.98-.33,1.99-.25,2.99,0,.08.07.14.16.12.65-.18,1.3-.36,1.95-.54.12-.03.26-.07.35-.17.1-.11.11-.27.07-.41-.05-.15-.14-.28-.21-.41l-.25-.43-.58-.98c-.08-.14-.3-.01-.22.13h0Z" style="fill: #231f20;"/>
    <path d="M48.01,53.81l-.43,2.08-.1.5c-.03.15-.07.3-.05.45.03.23.21.39.44.42s.46-.02.67-.1c.23-.09.47-.19.66-.34.22-.18.33-.42.35-.7.02-.32,0-.66-.02-.99-.02-.79-.04-1.58-.07-2.38,0-.09-.08-.14-.16-.12-.78.15-1.43.77-1.64,1.53-.04.16.2.22.24.07.19-.69.77-1.22,1.46-1.36l-.16-.12c.02.63.04,1.26.05,1.89,0,.32.02.64.03.95,0,.26.06.58-.08.82-.11.19-.32.31-.52.4-.19.09-.39.17-.59.19-.16.02-.38.01-.43-.17-.04-.13.02-.29.05-.41l.1-.48.43-2.08c.03-.16-.21-.22-.24-.07h0Z" style="fill: #231f20;"/>
    <path d="M49.66,57.13c1.24-.18,2.44-.54,3.56-1.08.13-.06.27-.13.4-.2.11-.06.28-.11.37-.21.13-.15.08-.46.02-.63-.16-.43-.61-.74-1.06-.78-.66-.06-1.27.33-1.79.68l.17.04-.92-1.48c-.08-.13-.16-.26-.24-.39-.07-.11-.15-.22-.17-.35-.03-.2.11-.35.27-.44s.35-.15.53-.19c.11-.02.26-.06.37-.02.14.05.17.25.21.37.19.54.37,1.08.56,1.62.04.1.17.12.23.03.19-.29.42-.65.28-1-.1-.27-.39-.47-.68-.36-.12.05-.12.25.03.25.61-.02,1.06-.43,1.49-.81.52-.46,1.11-.78,1.76-1.02.32-.12.64-.23.97-.34.3-.1.63-.19.9-.35.23-.14.26-.39.07-.59-.12-.12-.27-.21-.41-.3-.17-.11-.33-.23-.5-.34-.13-.09-.26.13-.13.22.15.1.29.2.44.3.11.08.36.19.42.31s.03.17-.07.22c-.07.04-.15.06-.22.09-.13.05-.26.1-.39.14-.53.19-1.07.35-1.59.58s-.96.5-1.38.87c-.39.34-.8.76-1.36.78l.03.25c.23-.09.41.15.4.36,0,.23-.16.44-.29.63l.23.03c-.12-.35-.24-.7-.36-1.06-.06-.16-.11-.33-.17-.49-.05-.14-.09-.3-.17-.43-.26-.4-.96-.15-1.28.03-.18.1-.35.24-.42.45-.07.23.02.45.14.65.39.65.8,1.29,1.19,1.93.03.05.11.08.17.04.5-.34,1.15-.79,1.79-.63.28.07.54.27.67.53.05.1.1.28.06.39s-.25.18-.37.24c-1.2.62-2.5,1.03-3.84,1.22-.16.02-.09.26.07.24h0Z" style="fill: #231f20;"/>
    <path d="M55.02,53.51c1.25,1.79,2.49,3.58,3.74,5.36l.14-.18c-.39-.15-.77-.02-1.16.07-.47.1-.93.04-1.4-.05-.95-.19-1.9-.4-2.85-.6l.06.21c.2-.25.4-.49.61-.73.11-.13.23-.26.35-.39.14-.15.23-.33.46-.14s.42.47.56.72c.16.29.23.6.11.92-.04.11.1.19.18.14.4-.22.27-.71.32-1.08.08-.54.54-.98,1.08-1.04.09-.01.16-.1.11-.19-.18-.32-.52-.51-.88-.53-.43-.02-.7.22-.97.52-.16.17-.38.43-.6.19s-.38-.57-.56-.85c-.12-.18-.5-.58-.29-.79.17-.17.46-.16.68-.19.3-.04.72-.19.74-.55s-.33-.49-.63-.45c-.47.07-.65.56-1.08.69-.29.09-.54-.14-.72-.34-.21-.23-.41-.48-.62-.72-.19-.22-.66-.59-.44-.91.2-.29.57-.26.84-.08.51.36.65,1.04,1.11,1.45.07.07.17.03.21-.06.2-.52-.38-.86-.46-1.32-.12-.65.78-.91,1.26-.91.39,0,.78.09,1.15.18.12.03.48.05.45.23-.02.14-.35.26-.45.3-.7.34-1.41.68-2.11,1.02-.05.02-.08.09-.06.14.19.53.77.67,1.27.73.61.08,1.27.05,1.74-.39.51-.48.36-1.1.22-1.71-.09-.38-.18-.75-.26-1.13-.08-.4-.02-.73.27-1.02.13-.13.28-.24.44-.34.09-.06.15-.12.26-.09.13.04.1.14.11.27.03.47.05.93.07,1.4,0,.06.06.13.12.12l.4-.05-.12-.16c-.15.77-.92,1.35-1.71,1.22-.12-.02-.22.11-.12.21.27.28.54.58.83.84.2.18.41.17.63.03.33-.21.63-.47.95-.7.27-.2.57-.39.81-.63.32-.33.51-.94.09-1.28-.47-.38-1.05.11-1.36.47-.1.12.07.3.18.18.22-.25.84-.85,1.12-.33.25.46-.27.88-.59,1.12-.41.3-.82.61-1.23.91-.14.1-.26.2-.42.08-.09-.06-.17-.17-.24-.24-.19-.2-.39-.4-.58-.59l-.12.21c.91.14,1.84-.48,2.02-1.4.01-.07-.03-.17-.12-.16l-.4.05.12.12c-.02-.4-.04-.81-.06-1.21-.01-.22.02-.57-.2-.71s-.49.08-.67.21c-.22.15-.44.33-.59.56-.73,1.12,1.27,3.25-.45,3.86-.41.15-.87.11-1.29.03-.33-.06-.74-.17-.86-.52l-.06.14c.7-.34,1.41-.68,2.11-1.02.22-.1.49-.22.57-.47.07-.21-.07-.35-.26-.41-.61-.2-1.37-.37-2.01-.25-.43.08-.93.34-1.08.79-.08.26,0,.52.13.75.15.25.44.53.32.85l.21-.06c-.43-.39-.58-1-1.02-1.38-.34-.31-.84-.41-1.2-.07-.14.13-.23.32-.21.52.04.27.29.49.46.69.21.25.42.5.64.75.17.19.35.4.6.49.56.22.84-.3,1.24-.56.14-.09.49-.2.6,0,.16.29-.42.4-.59.42-.34.04-.86.13-.88.56-.01.26.21.5.34.7.19.3.38.61.59.9.13.17.32.29.55.24.24-.06.4-.28.56-.45.19-.21.4-.37.71-.35.28.02.53.16.67.4l.11-.19c-.48.06-.9.33-1.15.75-.12.2-.18.43-.19.66s.06.61-.19.75l.18.14c.13-.34.08-.69-.08-1.01s-.44-.72-.74-.95-.54.03-.75.26c-.32.35-.63.72-.93,1.09-.05.07-.05.19.06.21.95.2,1.9.4,2.85.6.41.08.83.15,1.25.1s.87-.29,1.31-.12c.1.04.2-.1.14-.18-1.25-1.79-2.49-3.58-3.74-5.36-.09-.13-.31,0-.22.13h0Z" style="fill: #231f20;"/>
    <path d="M18.74,35.14l1.19-1.69c.4-.57.78-1.18,1.22-1.72.19-.23.48-.53.81-.45.31.08.52.49.68.75.31.5.53,1.05.69,1.62.32,1.11.4,2.27.41,3.41.02,1.34-.04,2.68-.12,4.01s-.2,2.69-.33,4.04c-.03.34-.07.69-.1,1.03-.02.16-.03.32-.05.47,0,.09,0,.21-.03.29.02.14-.04.2-.2.17-.09.07-.17.07-.24.02-.2-.06-.42-.35-.57-.5-.19-.19-.38-.4-.55-.6-1.34-1.57-2.25-3.5-2.68-5.52-.48-2.28-.33-4.67.5-6.85.06-.15-.18-.22-.24-.07-1.63,4.31-.63,9.46,2.47,12.88.31.34.69.85,1.17.97.5.13.58-.32.62-.71.16-1.61.31-3.21.43-4.82s.19-3.11.17-4.67c0-1.27-.1-2.57-.48-3.8-.21-.66-.5-1.31-.91-1.87-.3-.4-.7-.66-1.19-.38-.57.32-.93,1.08-1.3,1.6l-1.6,2.27c-.09.13.12.26.22.13h0Z" style="fill: #231f20;"/>
    <path d="M25.58,7.6c-.52.47-1.05.97-1.29,1.65s-.09,1.32.4,1.8,1.2.66,1.86.79c.79.16,1.59.3,2.39.42.39.06.78.11,1.17.16.19.02.38.05.57.07.16.02.32.03.47-.04.24-.12.32-.39.33-.64,0-.33-.06-.68-.14-1.01-.18-.72-.51-1.39-.86-2.03-.32-.57-.63-1.19-1.07-1.69s-1.07-.73-1.73-.54c-.7.21-1.27.71-1.96.96-.15.05-.09.29.07.24.54-.19,1-.52,1.51-.78s1.08-.36,1.58-.02c.47.32.75.86,1.03,1.33.33.57.66,1.14.91,1.75.12.3.23.61.3.93.07.29.14.62.11.92-.01.12-.05.26-.15.33-.14.1-.36.04-.52.02-.37-.04-.74-.09-1.11-.15-.7-.1-1.41-.22-2.11-.34-.64-.12-1.32-.21-1.91-.49-.67-.32-1.13-.94-.96-1.71s.75-1.27,1.29-1.76c.12-.11-.06-.28-.18-.18h0Z" style="fill: #231f20;"/>
    <path d="M59.4,68.49c.54.28,1.1.51,1.68.71.27.09.57.16.82-.03.18-.14.26-.37.3-.58.06-.29.07-.59.08-.88,0-.16,0-.32,0-.47,0-.13-.02-.26-.06-.38-.2-.53-.88-.43-1.31-.26-.51.2-.94.59-1.18,1.09-.03.06-.02.13.04.17.05.03.14.02.17-.04.18-.39.49-.7.86-.9.18-.1.38-.16.59-.19.18-.03.42-.04.54.12.06.08.08.19.09.29.01.13.02.27.02.4,0,.28-.01.56-.05.84-.02.18-.06.39-.18.54-.15.19-.39.14-.59.07-.58-.19-1.15-.43-1.69-.7-.14-.07-.27.14-.13.22h0Z" style="fill: #231f20;"/>
    <path d="M157.14,68.8c.54,1.64,1.66,2.98,2.34,4.55.34.78.51,1.58.47,2.43-.03.69-.15,1.52.3,2.1.49.63,1.33.56,1.97.21.73-.4,1.25-1.15,1.59-1.9.36-.79.56-1.65.71-2.51s.26-1.79-.36-2.52c-.31-.37-.74-.64-1.17-.86-.47-.25-.97-.46-1.49-.61-1.05-.31-2.15-.41-3.24-.3-.16.02-.16.27,0,.25,1.76-.19,3.67.19,5.14,1.2.35.24.68.54.84.94.19.46.16.97.08,1.45-.12.81-.29,1.62-.57,2.39s-.7,1.52-1.33,2.03c-.58.47-1.61.75-2.07-.04-.35-.61-.18-1.43-.16-2.09.01-.74-.17-1.47-.45-2.15-.67-1.61-1.84-2.98-2.38-4.64-.05-.15-.29-.09-.24.07h0Z" style="fill: #231f20;"/>
    <path d="M64.71,28.4c-.15.41-.28.82-.41,1.23s-.25.82-.34,1.24c-.07.31,0,.63.29.8.23.13.53.13.77.03.66-.27.77-1.18.92-1.79.11-.43.21-.86.32-1.29.05-.22.11-.43.16-.65.04-.17.11-.36.06-.53-.06-.2-.25-.26-.43-.28-.17-.02-.34-.02-.51,0-.32.03-.66.14-.81.46-.07.14.15.27.22.13.11-.22.33-.31.57-.33.13-.01.26-.01.4,0,.1,0,.31,0,.33.12.01.06,0,.14-.02.2-.02.09-.05.19-.07.28-.05.19-.09.38-.14.57-.09.37-.18.74-.27,1.11-.08.33-.15.67-.25,1-.08.27-.21.55-.44.72-.17.12-.41.15-.6.08-.27-.1-.29-.35-.23-.6.2-.82.46-1.63.74-2.42.05-.15-.19-.22-.24-.07h0Z" style="fill: #231f20;"/>
    <path d="M70.07,16.01c-.86,2.41-1.56,4.88-2.09,7.39-.02.08.06.19.15.15,1.07-.44,1.37-1.67,1.68-2.67.45-1.48.93-2.95,1.46-4.4.3-.83.61-1.65.94-2.47.03-.07-.03-.13-.09-.15-.5-.2-1.06.03-1.4.43-.42.48-.5,1.15-.57,1.75-.02.16.23.16.25,0,.06-.51.13-1.08.45-1.51.27-.37.76-.61,1.21-.43l-.09-.15c-.69,1.73-1.32,3.49-1.89,5.26-.26.82-.49,1.65-.77,2.46-.22.65-.56,1.36-1.24,1.64l.15.15c.53-2.51,1.23-4.97,2.09-7.39.05-.15-.19-.22-.24-.07h0Z" style="fill: #231f20;"/>
    <path d="M70.71,17.67c-.39,1.25-.77,2.51-1.14,3.76-.02.06.01.11.06.14.32.23.74.21,1.08.04.39-.19.64-.57.81-.95.19-.45.33-.93.47-1.4.16-.52.3-1.04.42-1.57.14-.59.26-1.18.37-1.77.02-.1-.08-.2-.18-.14-.61.39-1.16.87-1.61,1.44-.1.12.08.3.18.18.44-.55.96-1.02,1.56-1.4l-.18-.14c-.17.96-.39,1.91-.65,2.85-.13.47-.27.93-.43,1.39-.13.39-.28.79-.57,1.08s-.78.42-1.13.17l.06.14c.37-1.26.75-2.51,1.14-3.76.05-.15-.19-.22-.24-.07h0Z" style="fill: #231f20;"/>
    <path d="M67.34,13.64c1.12.28,2.18.78,3.1,1.48l.03-.23c-.43.08-.86.16-1.29.24l-.65.12c-.21.04-.43.09-.64.12s-.33-.05-.47-.21-.28-.33-.41-.49c-.29-.34-.57-.68-.86-1.02v.18c.22-.2.47-.45.78-.47.23-.02.51.13.5.38,0,.16.25.16.25,0,.01-.36-.33-.61-.66-.63-.42-.03-.77.28-1.05.55-.05.05-.04.13,0,.18.3.36.61.72.91,1.08.25.29.49.72.92.71.22,0,.44-.07.66-.11l.69-.13c.46-.09.92-.17,1.38-.26.12-.02.11-.17.03-.23-.94-.71-2.02-1.22-3.16-1.5-.16-.04-.22.2-.07.24h0Z" style="fill: #231f20;"/>
    <path d="M67.05,13.09l2.51,1.41c.1.06.2-.04.18-.14l-.28-1.61-.13-.77c-.02-.13-.04-.26-.07-.39-.02-.1-.05-.2-.12-.27-.08-.08-.19-.1-.3-.09-.14.01-.27.03-.41.05-.25.03-.51.06-.76.09-.46.05-.97.07-1.37.34-.36.24-.6.74-.37,1.15.08.14.29.02.22-.13-.17-.3.05-.67.32-.83.35-.22.8-.23,1.2-.28.23-.03.46-.06.7-.08.12-.01.23-.03.35-.04.07,0,.21-.05.26,0s.05.19.06.26l.06.35.12.7.28,1.61.18-.14-2.51-1.41c-.14-.08-.27.14-.13.22h0Z" style="fill: #231f20;"/>
    <path d="M67.09,8.63c.59.16,1.17.34,1.76.49.25.07.53.09.73-.1.16-.15.19-.38.19-.58s-.04-.42-.09-.62-.12-.4-.23-.57-.25-.3-.44-.37c-.25-.09-.51-.01-.73.1-.31.15-.6.32-.9.48s-.61.33-.92.49c-.14.08-.02.29.13.22.49-.26.97-.52,1.46-.78.22-.12.46-.29.71-.29.16,0,.3.07.41.19.23.25.31.64.35.97.02.16.04.36-.04.52-.1.2-.33.17-.52.13-.6-.15-1.19-.33-1.79-.5-.16-.04-.22.2-.07.24h0Z" style="fill: #231f20;"/>
    <path d="M72.5,19.24c.05.88.13,1.75.24,2.63.01.09.1.17.19.11.42-.28.86-.55,1.27-.85.17-.13.31-.28.35-.49.04-.23-.04-.46-.1-.67-.13-.49-.27-.99-.42-1.47-.12-.38-.22-.9-.67-1s-.9.24-1.2.53c-.12.11.06.29.18.18.23-.22.56-.51.91-.48.17.02.29.14.36.29.09.18.14.39.2.59.13.42.25.85.37,1.28.05.2.13.4.14.61s-.09.33-.24.44c-.4.3-.84.56-1.25.84l.19.11c-.11-.87-.19-1.75-.24-2.63,0-.16-.26-.16-.25,0h0Z" style="fill: #231f20;"/>
    <path d="M71.29,13.34l1.88,2.51.04-.17c-.28.18-.63.16-.9-.03l.03.2c.13-.12.36-.06.51-.05.19,0,.38-.01.52-.15.15-.15.16-.38.14-.58-.03-.27-.08-.53-.12-.79-.09-.56-.18-1.13-.26-1.69-.02-.13-.04-.27-.06-.4-.02-.11-.03-.23-.08-.34-.1-.22-.31-.28-.53-.28-.48,0-.97.02-1.44.15-.5.15-.88.46-1.24.82-.3.3-.69.7-.61,1.16.06.36.45.73.83.55.21-.1.29-.32.41-.51.14-.22.4-.31.63-.42.59-.28,1.18-.55,1.78-.83.15-.07.02-.28-.13-.22-.47.22-.94.44-1.41.65-.22.1-.45.2-.67.31-.18.09-.33.21-.43.39-.08.13-.14.32-.29.39s-.3-.04-.38-.16c-.25-.35.06-.74.3-1,.31-.33.63-.66,1.05-.84s.84-.2,1.27-.22c.11,0,.22,0,.33,0,.09,0,.2,0,.27.07.05.06.07.16.08.24.02.12.04.24.06.36.08.51.16,1.02.24,1.53.04.28.09.56.13.85.03.18.1.44-.03.6-.12.14-.36.09-.51.08-.19-.01-.38,0-.53.14-.07.06-.04.15.03.2.33.24.8.25,1.15.03.05-.03.09-.12.04-.17l-1.88-2.51c-.1-.13-.31,0-.22.13h0Z" style="fill: #231f20;"/>
    <path d="M80.56,20.18l4.4,1.97c.09.04.18,0,.19-.11l.14-1.11.07-.54c.02-.18.07-.36.06-.54-.01-.28-.2-.46-.44-.57-.29-.14-.59-.26-.89-.38-.64-.25-1.3-.46-1.98-.62-.33-.08-.66-.14-.99-.2-.3-.05-.63-.13-.94-.11-.36.02-.48.29-.58.6-.11.38-.19.78-.24,1.17,0,.05.04.11.09.12.52.1,1.02.27,1.5.5.14.07.27-.14.13-.22-.5-.24-1.02-.42-1.56-.53l.09.12c.04-.32.1-.64.18-.95.03-.13.07-.27.12-.4.07-.15.19-.19.34-.18.3.01.6.07.89.12s.59.11.88.18c.59.14,1.16.31,1.73.52.28.1.56.22.83.34.23.1.55.2.55.5,0,.17-.04.35-.06.52l-.07.54-.14,1.11.19-.11-4.4-1.97c-.15-.07-.27.15-.13.22h0Z" style="fill: #231f20;"/>
    <path d="M78.77,16.89c-.38,2.14-1.26,4.17-2.56,5.9-.08.1.07.23.17.17.19-.11.39-.23.6-.3.23-.07.42-.05.66-.04.38.02.59-.23.72-.56.38-.9.74-1.81,1.11-2.71.18-.45.37-.9.55-1.35.12-.28.26-.69-.1-.85-.15-.07-.31-.05-.46-.09-.19-.05-.37-.18-.49-.34-.23-.3-.23-.71.03-.99.23-.25.63-.37.92-.15.26.19.38.58.22.87-.09.16-.25.27-.32.45-.05.13-.06.27-.03.41.06.27.28.51.54.6.55.17.91-.42.77-.9-.07-.25-.26-.43-.51-.46-.2-.03-.4.03-.59.08-.22.06-.43.08-.66.06-.71-.06-1.69-.37-2.05.49-.31.73.33,1.47,1.09,1.33.16-.03.09-.27-.07-.24-.33.06-.7-.13-.82-.45-.11-.3,0-.66.26-.84.3-.21.69-.16,1.03-.11s.65.11.97.07c.29-.04.78-.3,1.02-.02.14.17.14.45.02.63-.18.25-.51.13-.67-.08-.08-.11-.13-.25-.1-.38.03-.18.19-.29.29-.43.3-.43.1-1.06-.33-1.31-.5-.3-1.15.02-1.37.52-.24.54.09,1.16.61,1.4.12.05.24.08.36.09.09.01.2,0,.27.09.07.09.03.2,0,.3-.14.4-.32.79-.48,1.18-.37.9-.74,1.8-1.11,2.7-.08.2-.15.43-.27.6-.16.22-.39.15-.63.14-.41-.01-.79.19-1.13.39l.17.17c1.32-1.75,2.21-3.81,2.59-5.96.03-.16-.21-.22-.24-.07h0Z" style="fill: #231f20;"/>
    <path d="M78.14,22.63c-.5.98-.82,2.03-.94,3.13-.01.12.18.17.23.06.21-.41.5-.78.86-1.08.17-.14.38-.25.53-.41s.21-.38.27-.59c.26-1.09.52-2.19.78-3.28.03-.11-.09-.19-.18-.14-.38.2-.76.4-1.14.61-.14.08-.02.29.13.22.38-.2.76-.4,1.14-.61l-.18-.14c-.26,1.08-.51,2.16-.77,3.23-.06.24-.11.45-.3.61-.16.13-.35.24-.51.38-.35.3-.63.67-.84,1.07l.23.06c.12-1.05.43-2.07.91-3,.07-.14-.14-.27-.22-.13h0Z" style="fill: #231f20;"/>
    <path d="M94.95,16.42c.16,0,.16-.25,0-.25s-.16.25,0,.25h0Z" style="fill: #231f20;"/>
    <path d="M118.01,117.02c-.02,2.04-.04,4.09-.06,6.13,0,.16.25.16.25,0,.02-2.04.04-4.09.06-6.13,0-.16-.25-.16-.25,0h0Z" style="fill: #231f20;"/>
    <path d="M118.31,119.45c-.13,2.64-.26,5.28-.38,7.91,0,.16.24.16.25,0,.13-2.64.26-5.28.38-7.91,0-.16-.24-.16-.25,0h0Z" style="fill: #231f20;"/>
    <path d="M124.44,128.13c-.22,1.71-.3,3.43-.23,5.16,0,.14.21.18.25.03.2-.95.32-1.92.35-2.89,0-.16-.25-.16-.25,0-.03.95-.14,1.89-.34,2.82l.25.03c-.07-1.72.01-3.45.23-5.16.02-.16-.23-.16-.25,0h0Z" style="fill: #231f20;"/>
    <path d="M124.95,128.39c-.17,1.4-.17,2.81,0,4.21.02.16.27.16.25,0-.17-1.4-.17-2.81,0-4.21.02-.16-.23-.16-.25,0h0Z" style="fill: #231f20;"/>
    <path d="M125.07,125.32c.16,3.32.31,6.64.47,9.96,0,.16.26.16.25,0-.16-3.32-.31-6.64-.47-9.96,0-.16-.26-.16-.25,0h0Z" style="fill: #231f20;"/>
    <path d="M95.71,99.88c-.15-.86-.18-1.74-.07-2.61.02-.2.05-.41.09-.61.02-.08.03-.19.09-.25.09-.09.2-.03.28.03.14.1.24.25.34.39s.21.28.32.41c.92,1.09,2.11,1.92,3.34,2.62.72.41,1.46.78,2.19,1.14.14.07.27-.14.13-.22-1.41-.7-2.84-1.41-4.08-2.38-.61-.48-1.18-1.03-1.65-1.65-.19-.25-.41-.63-.76-.63-.39,0-.44.45-.49.74-.17,1.03-.16,2.07.02,3.09.03.16.27.09.24-.07h0Z" style="fill: #231f20;"/>
    <path d="M76.09,78.4c.2.4.47.77.8,1.08s.73.64,1.19.66c.41.02.8-.28.75-.71-.03-.22-.14-.43-.23-.63-.09-.18-.2-.36-.31-.53-.46-.68-1.08-1.25-1.8-1.65-.36-.2-.74-.36-1.14-.46-.31-.08-.79-.22-1.05.05-.19.19-.12.46-.01.67s.26.42.42.61c.32.39.72.72,1.17.97.14.08.27-.14.13-.22-.34-.19-.65-.43-.93-.72-.14-.14-.26-.29-.37-.46-.1-.15-.26-.35-.28-.54-.04-.58,1.57.12,1.78.22.63.32,1.19.78,1.64,1.33.22.28.42.58.57.9.08.17.2.38.17.58-.02.16-.17.27-.32.31-.21.06-.43-.03-.62-.14-.2-.11-.38-.26-.55-.42-.32-.3-.59-.66-.78-1.05-.07-.14-.29-.02-.22.13h0Z" style="fill: #231f20;"/>
    <path d="M44.49,57.69c-.27.66-.56,1.49-.1,2.14.18.24.43.44.74.48s.59-.09.78-.31c.43-.48.5-1.24.44-1.86-.07-.68-.32-1.36-.76-1.89-.12-.14-.27-.25-.46-.24-.18.01-.33.12-.44.26-.25.31-.18.74-.4,1.06-.09.13.13.26.22.13.17-.25.17-.56.28-.84.08-.23.34-.49.57-.26.21.2.36.49.48.75s.2.55.25.84c.09.54.07,1.18-.2,1.67-.12.21-.29.4-.54.44s-.5-.1-.66-.28c-.52-.58-.19-1.41.06-2.03.06-.15-.18-.21-.24-.07h0Z" style="fill: #231f20;"/>
    <path d="M33.57,27.25c-.15.62-.29,1.36.06,1.94.29.47.88.78,1.41.52.25-.12.43-.36.56-.6.14-.26.26-.55.33-.84.13-.52.09-1.2-.44-1.48-.41-.21-1.05-.16-1.19.35-.04.16.2.22.24.07.04-.14.14-.23.28-.27.08-.02.14-.03.24-.02.04,0,.05,0,.1.01s.1.02.14.04c.06.02.15.08.19.12.07.07.12.13.16.23.1.23.1.5.05.75-.05.26-.14.52-.26.76-.1.21-.22.42-.41.57-.17.13-.39.18-.6.12s-.4-.2-.53-.37c-.41-.52-.25-1.26-.11-1.85.04-.16-.2-.22-.24-.07h0Z" style="fill: #231f20;"/>
    <path d="M37.19,36.8c-.58.61-1.31,1.46-1.01,2.37.26.77,1.15,1.15,1.91.97.87-.21,1.47-.99,1.71-1.82.13-.44.19-.92.19-1.38,0-.37-.06-.76-.26-1.08-.22-.36-.62-.53-1.03-.43-.47.11-.81.48-1.25.66-.15.06-.08.3.07.24.35-.14.63-.38.97-.55.3-.15.65-.19.9.06.22.22.31.55.34.85.04.39,0,.8-.07,1.19-.15.78-.55,1.54-1.29,1.9-.62.31-1.46.17-1.85-.45-.52-.84.28-1.77.84-2.35.11-.12-.07-.29-.18-.18h0Z" style="fill: #231f20;"/>
    <path d="M18.66,15.52c-.26.71-.11,1.53.36,2.12.03.03.08.04.12.03.79-.26,1.39-1,1.52-1.82.04-.24.04-.48,0-.72,0-.05-.07-.09-.12-.09-.65,0-1.23.51-1.39,1.13-.05.18-.05.36-.03.55,0,.07.09.1.15.09.07-.02.1-.09.09-.15-.08-.53.28-1.06.76-1.27.13-.06.28-.09.42-.09l-.12-.09c.12.72-.22,1.49-.79,1.94-.17.13-.35.23-.55.3l.12.03c-.41-.52-.52-1.25-.3-1.88.02-.06-.03-.14-.09-.15-.07-.02-.13.02-.15.09h0Z" style="fill: #231f20;"/>
    <path d="M142.32,56.8c.26.75.19,1.58.52,2.3.27.58.82,1.09,1.5.97s1.12-.79,1.13-1.43c.01-.72-.43-1.39-.98-1.82s-1.46-.76-2.11-.29c-.05.04-.08.11-.04.17.03.05.12.08.17.04.5-.37,1.17-.18,1.65.14.52.34.97.91,1.05,1.54.07.56-.23,1.19-.79,1.37s-1.08-.26-1.33-.75c-.36-.72-.27-1.57-.53-2.32-.05-.15-.29-.09-.24.07h0Z" style="fill: #231f20;"/>
    <path d="M153.3,59.61c.51,1.28,1.22,2.52,2.26,3.45.93.84,2.08,1.34,3.14,1.98.56.34,1.1.71,1.54,1.2.4.44.62,1.04,1.07,1.43,1.04.91,2.25-.43,2.84-1.24.37-.51.61-1.12.43-1.75-.16-.55-.58-.98-1.05-1.3-.55-.37-1.19-.57-1.8-.82-.66-.28-1.24-.65-1.67-1.23-.74-.99-1.07-2.22-1.78-3.23-.76-1.08-1.93-1.65-3.17-2.03-.66-.2-1.44-.44-2.12-.18-.55.21-.86.72-.94,1.29-.19,1.42.75,2.88,1.76,3.78.12.11.3-.07.18-.18-.9-.81-1.71-2.03-1.7-3.28,0-.57.22-1.15.79-1.37.6-.23,1.29-.02,1.88.16,1.21.36,2.39.91,3.14,1.98.61.89.94,1.94,1.52,2.85.27.42.58.81.98,1.11.48.36,1.04.57,1.58.78,1.07.42,2.63,1.24,2.11,2.66-.21.59-.7,1.12-1.15,1.53-.51.47-1.22.77-1.77.18-.37-.4-.59-.91-.95-1.32s-.78-.72-1.22-1c-1.04-.68-2.22-1.16-3.2-1.95-1.14-.92-1.92-2.21-2.46-3.57-.06-.15-.3-.08-.24.07h0Z" style="fill: #231f20;"/>
    <path d="M170.04,74.96c-.47.85-.79,1.78-.93,2.74-.06.43-.12.88-.08,1.31.04.33.15.69.47.84.4.19.81-.08,1.07-.38.29-.34.52-.74.7-1.14.38-.82.61-1.75.58-2.66-.01-.41-.11-.92-.52-1.13-.32-.17-.78-.13-.96.22-.07.14.14.27.22.13.13-.25.49-.23.69-.08.28.21.32.64.32.96,0,.79-.18,1.59-.5,2.32-.16.36-.35.7-.57,1.02-.18.26-.52.67-.89.54-.28-.1-.36-.47-.37-.73-.02-.39.02-.79.08-1.17.14-.93.45-1.83.9-2.65.08-.14-.14-.27-.22-.13h0Z" style="fill: #231f20;"/>
    <path d="M128.53,111.63c-.26,1.1-.43,2.22-.52,3.35-.01.16.24.16.25,0,.08-1.11.25-2.21.51-3.29.04-.16-.2-.22-.24-.07h0Z" style="fill: #231f20;"/>
    <path d="M128.42,112.53c-.34,1.12-.44,2.32-.29,3.48,0,.07.05.12.12.12.06,0,.13-.06.12-.12-.15-1.14-.05-2.31.28-3.41.05-.15-.19-.22-.24-.07h0Z" style="fill: #231f20;"/>
    <path d="M130.05,112.33c.51-1.32,1.02-2.64,1.53-3.96.06-.15-.18-.22-.24-.07-.51,1.32-1.02,2.64-1.53,3.96-.06.15.18.22.24.07h0Z" style="fill: #231f20;"/>
    <path d="M131.45,110.2c.72-1.2,1.47-2.39,2.25-3.55l-.23-.06c0,.95-.1,1.9-.31,2.84-.03.14.15.22.23.1.49-.82,1.05-1.6,1.68-2.32l-.2-.03c.11.24.22.48.33.72.03.06.12.08.17.04.47-.31.87-.72,1.16-1.2.08-.14-.13-.26-.22-.13-.27.45-.63.83-1.07,1.11l.17.04c-.11-.24-.22-.48-.33-.72-.03-.07-.15-.08-.2-.03-.64.74-1.21,1.53-1.72,2.37l.23.1c.21-.95.32-1.93.31-2.9,0-.13-.17-.16-.23-.06-.79,1.16-1.54,2.34-2.25,3.55-.08.14.13.26.22.13h0Z" style="fill: #231f20;"/>
    <path d="M76.52,92.81c-1.11.75-2.03,1.74-2.71,2.9-.06.1.06.24.17.17,1.02-.68,2.13-1.23,3.29-1.63.51-.18,1.05-.36,1.6-.42.45-.05,1-.01,1.25.43l.02-.15c-1.64,1.77-4.02,2.52-5.91,3.96-.12.09-.02.3.13.22,3.15-1.84,6.26-3.76,9.31-5.76.13-.09,0-.3-.13-.22-3.05,2-6.16,3.92-9.31,5.76l.13.22c1.9-1.45,4.3-2.22,5.96-4,.04-.04.05-.1.02-.15-.55-.96-1.99-.48-2.8-.23-1.3.41-2.54,1.01-3.68,1.76l.17.17c.65-1.12,1.54-2.08,2.62-2.81.13-.09,0-.31-.13-.22h0Z" style="fill: #231f20;"/>
    <path d="M84.59,91.73l1.61-1.36c.11-.09-.03-.27-.15-.2-.42.26-.72.69-.8,1.17-.01.07.03.16.12.16.41-.03.81-.12,1.19-.27.06-.03.11-.08.09-.15-.02-.06-.09-.11-.15-.09-.36.15-.74.24-1.13.26l.12.16c.07-.42.32-.8.69-1.02l-.15-.2-1.61,1.36c-.05.04-.04.13,0,.18.05.05.13.04.18,0h0Z" style="fill: #231f20;"/>
    <path d="M11.71,18.09l-.38,5.11c-.01.16.24.16.25,0l.38-5.11c.01-.16-.24-.16-.25,0h0Z" style="fill: #231f20;"/>
    <path d="M11.59,18.85c-.06,3.2.11,6.4.52,9.57.02.16.27.16.25,0-.41-3.17-.58-6.37-.52-9.57,0-.16-.25-.16-.25,0h0Z" style="fill: #231f20;"/>
    <path d="M11.78,24.6c-.08,5.04,1.14,10.05,3.54,14.48.08.14.29.02.22-.13-2.37-4.39-3.59-9.36-3.5-14.36,0-.16-.25-.16-.25,0h0Z" style="fill: #231f20;"/>
    <path d="M13.49,31.91c1.24,3.36,2.66,6.64,4.26,9.85.07.14.29.02.22-.13-1.59-3.18-3-6.45-4.23-9.79-.06-.15-.3-.08-.24.07h0Z" style="fill: #231f20;"/>
    <path d="M16.98,41.25c1.24,2.59,2.47,5.19,3.71,7.78.07.15.28.02.22-.13-1.24-2.59-2.47-5.19-3.71-7.78-.07-.15-.28-.02-.22.13h0Z" style="fill: #231f20;"/>
    <path d="M18.08,42.81c2.29,4.25,5.05,8.24,8.23,11.88.91,1.04,1.86,2.06,2.83,3.04.11.11.29-.06.18-.18-3.4-3.43-6.41-7.23-8.97-11.33-.72-1.16-1.4-2.34-2.05-3.54-.08-.14-.29-.02-.22.13h0Z" style="fill: #231f20;"/>
    <path d="M24.9,52.26c1.47,1.57,3.04,3.06,4.69,4.44.47.4.95.78,1.44,1.16.13.1.3-.08.18-.18-1.7-1.33-3.32-2.76-4.85-4.28-.44-.44-.87-.88-1.29-1.33-.11-.12-.29.06-.18.18h0Z" style="fill: #231f20;"/>
    <path d="M30.77,57.89c1.95,1.59,3.97,3.1,6.04,4.53.59.41,1.19.81,1.79,1.21.13.09.26-.13.13-.22-2.1-1.38-4.14-2.84-6.12-4.38-.56-.43-1.11-.87-1.66-1.32-.12-.1-.3.08-.18.18h0Z" style="fill: #231f20;"/>
    <path d="M37.54,64.14c1.55,1.33,3.2,2.57,4.92,3.68.49.32.99.63,1.5.93.14.08.26-.13.13-.22-1.75-1.04-3.43-2.2-5.03-3.46-.45-.36-.9-.73-1.34-1.11-.12-.1-.3.07-.18.18h0Z" style="fill: #231f20;"/>
    <path d="M42.67,66.08c3.01,2.26,6.13,4.38,9.33,6.36.14.08.26-.13.13-.22-3.2-1.98-6.32-4.1-9.33-6.36-.13-.1-.25.12-.13.22h0Z" style="fill: #231f20;"/>
    <path d="M55.17,74.51c2.59,1.31,5.3,2.38,8.09,3.17.15.04.22-.2.07-.24-2.77-.79-5.46-1.84-8.03-3.15-.14-.07-.27.14-.13.22h0Z" style="fill: #231f20;"/>
    <path d="M64.92,78.97c1.51.55,3.04,1.02,4.6,1.4.16.04.22-.2.07-.24-1.56-.39-3.09-.86-4.6-1.4-.15-.05-.22.19-.07.24h0Z" style="fill: #231f20;"/>
    <path d="M13.37,16.59c.26-.94.51-1.87.77-2.81.04-.16-.2-.22-.24-.07-.26.94-.51,1.87-.77,2.81-.04.16.2.22.24.07h0Z" style="fill: #231f20;"/>
    <path d="M13.99,15.08c.7-1.41,1.52-2.75,2.46-4,.27-.36.56-.72.85-1.07.1-.12-.07-.3-.18-.18-1.02,1.22-1.94,2.54-2.72,3.93-.22.39-.43.79-.63,1.2-.07.14.14.27.22.13h0Z" style="fill: #231f20;"/>
    <path d="M17.7,10.11c.57-.93,1.18-1.83,1.84-2.69.19-.25.38-.49.57-.73.04-.05.05-.12,0-.18-.04-.04-.13-.05-.18,0-.69.86-1.34,1.75-1.94,2.68-.17.26-.34.53-.5.8-.08.14.13.26.22.13h0Z" style="fill: #231f20;"/>
    <path d="M33.99,85.09l2.3,1.53c.06.04.14.01.17-.04.04-.06.01-.13-.04-.17l-2.3-1.53c-.06-.04-.14-.01-.17.04-.04.06-.01.13.04.17h0Z" style="fill: #231f20;"/>
    <path d="M33.87,84.2c.72.55,1.45,1.11,2.17,1.66.05.04.14,0,.17-.04.04-.06,0-.13-.04-.17-.72-.55-1.45-1.11-2.17-1.66-.05-.04-.14,0-.17.04-.04.06,0,.13.04.17h0Z" style="fill: #231f20;"/>
    <path d="M30.29,84.58c1.31,1,2.68,1.94,4.09,2.81.14.08.26-.13.13-.22-1.41-.87-2.77-1.81-4.09-2.81-.13-.1-.25.12-.13.22h0Z" style="fill: #231f20;"/>
    <path d="M33.97,86.09l1.59,1.49.45.42c.12.11.29-.07.18-.18l-1.59-1.49-.45-.42c-.12-.11-.29.07-.18.18h0Z" style="fill: #231f20;"/>
    <path d="M84.9,108.94c1.27.98,2.55,1.97,3.82,2.95.05.04.12.05.18,0,.04-.04.05-.14,0-.18-1.27-.98-2.55-1.97-3.82-2.95-.05-.04-.12-.05-.18,0-.04.04-.05.14,0,.18h0Z" style="fill: #231f20;"/>
    <path d="M85.5,109.74c.16,0,.16-.25,0-.25s-.16.25,0,.25h0Z" style="fill: #231f20;"/>
    <path d="M112.57,100.42c.16,0,.16-.25,0-.25s-.16.25,0,.25h0Z" style="fill: #231f20;"/>
    <path d="M113.1,101.51c.47.64.94,1.28,1.4,1.91.04.05.11.08.17.04.05-.03.08-.12.04-.17l-1.4-1.91c-.04-.05-.11-.08-.17-.04-.05.03-.08.12-.04.17h0Z" style="fill: #231f20;"/>
    <path d="M114.74,104.51c.16,0,.16-.25,0-.25s-.16.25,0,.25h0Z" style="fill: #231f20;"/>
    <path d="M115.78,105.6l1.28,2.17c.08.14.3.01.22-.13l-1.28-2.17c-.08-.14-.3-.01-.22.13h0Z" style="fill: #231f20;"/>
    <path d="M119.4,106.54c1.53-1.15,3.16-2.17,4.85-3.06.14-.07.02-.29-.13-.22-1.69.89-3.32,1.92-4.85,3.06-.13.1,0,.31.13.22h0Z" style="fill: #231f20;"/>
    <path d="M121.43,106.01c2.72-1.5,5.58-2.72,8.54-3.66.15-.05.09-.29-.07-.24-2.98.95-5.86,2.18-8.6,3.69-.14.08-.02.29.13.22h0Z" style="fill: #231f20;"/>
    <path d="M127.57,103.35c1.64-1.02,3.38-1.88,5.2-2.55.15-.06.08-.3-.07-.24-1.83.68-3.6,1.54-5.26,2.58-.14.08-.01.3.13.22h0Z" style="fill: #231f20;"/>
    <path d="M144.41,95.41c2.17-1.1,4.49-1.9,6.88-2.38.16-.03.09-.27-.07-.24-2.41.48-4.74,1.29-6.94,2.4-.14.07-.02.29.13.22h0Z" style="fill: #231f20;"/>
    <path d="M157.79,91.48l8.04-2.56c.15-.05.09-.29-.07-.24l-8.04,2.56c-.15.05-.09.29.07.24h0Z" style="fill: #231f20;"/>
    <path d="M160.38,90.84c1.49-.68,2.98-1.36,4.47-2.04.15-.07.02-.28-.13-.22-1.49.68-2.98,1.36-4.47,2.04-.15.07-.02.28.13.22h0Z" style="fill: #231f20;"/>
    <path d="M168.7,85.96l2.43-1.91c.05-.04.04-.13,0-.18-.05-.05-.12-.04-.18,0l-2.43,1.91c-.05.04-.04.13,0,.18.05.05.12.04.18,0h0Z" style="fill: #231f20;"/>
    <path d="M169.97,83.54c1.12-.99,2.13-2.1,3-3.31.25-.34.49-.7.72-1.06.09-.14-.13-.26-.22-.13-.79,1.25-1.72,2.41-2.76,3.45-.3.3-.6.58-.92.86-.12.11.06.28.18.18h0Z" style="fill: #231f20;"/>
    <path d="M173.44,78.92c1.16-1.77,2.03-3.73,2.56-5.78.04-.16-.2-.22-.24-.07-.53,2.03-1.39,3.96-2.54,5.72-.09.13.13.26.22.13h0Z" style="fill: #231f20;"/>
    <path d="M128.46,46.02c2.06.89,4.16,1.71,6.29,2.44.15.05.22-.19.07-.24-2.1-.72-4.18-1.53-6.23-2.41-.15-.06-.27.15-.13.22h0Z" style="fill: #231f20;"/>
    <path d="M133.22,47.05c3.74.93,7.41,2.13,10.97,3.6.15.06.21-.18.07-.24-3.56-1.47-7.23-2.67-10.97-3.6-.16-.04-.22.2-.07.24h0Z" style="fill: #231f20;"/>
    <path d="M140.62,49.87c2.47.72,4.94,1.45,7.4,2.17.15.05.22-.2.07-.24-2.47-.72-4.94-1.45-7.4-2.17-.15-.05-.22.2-.07.24h0Z" style="fill: #231f20;"/>
    <path d="M150.42,53.17c1.54.78,3.13,1.47,4.75,2.06.15.06.22-.19.07-.24-1.6-.58-3.17-1.26-4.69-2.03-.14-.07-.27.14-.13.22h0Z" style="fill: #231f20;"/>
    <path d="M158.72,56.88l2.3,1.4c.14.08.26-.13.13-.22l-2.3-1.4c-.14-.08-.26.13-.13.22h0Z" style="fill: #231f20;"/>
    <path d="M164.33,60.32c1.89,1.09,3.73,2.28,5.49,3.57.13.1.25-.12.13-.22-1.76-1.29-3.6-2.48-5.49-3.57-.14-.08-.27.14-.13.22h0Z" style="fill: #231f20;"/>
    <path d="M169.31,63.39c1.27.85,2.5,1.75,3.69,2.71.34.28.68.56,1.01.84.12.1.3-.07.18-.18-1.18-1-2.4-1.96-3.67-2.85-.36-.25-.72-.5-1.08-.74-.13-.09-.26.13-.13.22h0Z" style="fill: #231f20;"/>
    <path d="M149.34,115.49c.09.81.17,1.62.26,2.43,0,.07.05.12.12.12.06,0,.13-.06.12-.12-.09-.81-.17-1.62-.26-2.43,0-.07-.05-.12-.12-.12-.06,0-.13.06-.12.12h0Z" style="fill: #231f20;"/>
    <path d="M159.93,114.6c.16,0,.16-.25,0-.25s-.16.25,0,.25h0Z" style="fill: #231f20;"/>
    <path d="M164.76,106.62l.77-1.15c.04-.05.01-.14-.04-.17-.06-.03-.13-.01-.17.04l-.77,1.15c-.04.05-.01.14.04.17.06.03.13.01.17-.04h0Z" style="fill: #231f20;"/>
    <path d="M170.01,102.21l1.4-.13c.06,0,.13-.05.12-.12,0-.06-.06-.13-.12-.12l-1.4.13c-.06,0-.13.05-.12.12,0,.06.06.13.12.12h0Z" style="fill: #231f20;"/>
    <path d="M174.23,101.57c.16,0,.16-.25,0-.25s-.16.25,0,.25h0Z" style="fill: #231f20;"/>
    <path d="M177.04,97.62c.16,0,.16-.25,0-.25s-.16.25,0,.25h0Z" style="fill: #231f20;"/>
    <path d="M179.33,92c.16,0,.16-.25,0-.25s-.16.25,0,.25h0Z" style="fill: #231f20;"/>
    <path d="M174.76,99.6c-1.11,1.79-2.21,3.57-3.32,5.36-.08.14.13.26.22.13,1.11-1.79,2.21-3.57,3.32-5.36.08-.14-.13-.26-.22-.13h0Z" style="fill: #231f20;"/>
    <path d="M176.14,99.15c.16,0,.16-.25,0-.25s-.16.25,0,.25h0Z" style="fill: #231f20;"/>
    <path d="M177.81,96.31c-.26.77-.51,1.53-.77,2.3-.05.15.19.22.24.07.26-.77.51-1.53.77-2.3.05-.15-.19-.22-.24-.07h0Z" style="fill: #231f20;"/>
    <path d="M32.14,89.45c.16,0,.16-.25,0-.25s-.16.25,0,.25h0Z" style="fill: #231f20;"/>
    <path d="M29.47,89.8l-.36,1.83c-.01.06.01.12.07.15s.12,0,.16-.05c.33-.45.58-.95.75-1.48.02-.06-.02-.14-.09-.15-.07-.02-.13.02-.15.09-.16.51-.4.99-.72,1.42l.23.1.36-1.83c.01-.07-.02-.13-.09-.15-.06-.02-.14.02-.15.09h0Z" style="fill: #231f20;"/>
    <path d="M30.61,90.6c-.09.64-.17,1.28-.26,1.91,0,.07.06.12.12.12.07,0,.12-.06.12-.12.09-.64.17-1.28.26-1.91,0-.07-.06-.12-.12-.12-.07,0-.12.06-.12.12h0Z" style="fill: #231f20;"/>
    <path d="M33.17,93.02l-.38,3.83c-.02.16.23.16.25,0l.38-3.83c.02-.16-.23-.16-.25,0h0Z" style="fill: #231f20;"/>
    <path d="M33.93,94.42c.16,0,.16-.25,0-.25s-.16.25,0,.25h0Z" style="fill: #231f20;"/>
    <path d="M31.5,90.85c.16,0,.16-.25,0-.25s-.16.25,0,.25h0Z" style="fill: #231f20;"/>
    <path d="M20.27,82.68c.16,0,.16-.25,0-.25s-.16.25,0,.25h0Z" style="fill: #231f20;"/>
    <path d="M32.21,67.6l1.91,1.15c.14.08.26-.13.13-.22l-1.91-1.15c-.14-.08-.26.13-.13.22h0Z" style="fill: #231f20;"/>
    <path d="M32.59,66.96l2.17,1.28c.14.08.26-.13.13-.22l-2.17-1.28c-.14-.08-.26.13-.13.22h0Z" style="fill: #231f20;"/>
    <path d="M42.27,72.18l1.49,1.79.42.51c.04.05.13.04.18,0,.05-.05.04-.12,0-.18-.5-.6-.99-1.19-1.49-1.79l-.42-.51c-.04-.05-.13-.04-.18,0-.05.05-.04.12,0,.18h0Z" style="fill: #231f20;"/>
    <path d="M43.54,76.39c1.12.93,2.25,1.85,3.37,2.78l.97.8c.12.1.3-.07.18-.18l-3.37-2.78-.97-.8c-.12-.1-.3.07-.18.18h0Z" style="fill: #231f20;"/>
    <path d="M47.59,78.85c.16,0,.16-.25,0-.25s-.16.25,0,.25h0Z" style="fill: #231f20;"/>
    <path d="M48.67,75.51l3.06,2.3c.05.04.14,0,.17-.04.04-.06,0-.13-.04-.17l-3.06-2.3c-.05-.04-.14,0-.17.04-.04.06,0,.13.04.17h0Z" style="fill: #231f20;"/>
    <path d="M51.28,91.52c.4-1.39,1-2.71,1.78-3.93.09-.14-.13-.26-.22-.13-.79,1.23-1.4,2.58-1.8,3.99-.04.15.2.22.24.07h0Z" style="fill: #231f20;"/>
    <path d="M50.91,97.2c-.82,2.21-1.17,4.58-1.01,6.93.01.16.26.16.25,0-.15-2.33.19-4.67,1-6.86.06-.15-.19-.22-.24-.07h0Z" style="fill: #231f20;"/>
    <path d="M50.02,102.5l.38,2.43c.01.07.09.1.15.09.07-.02.1-.09.09-.15l-.38-2.43c-.01-.07-.09-.1-.15-.09-.07.02-.1.09-.09.15h0Z" style="fill: #231f20;"/>
    <path d="M51.05,106.46c.51,1.65,1.2,3.25,2.05,4.76.08.14.29.01.22-.13-.84-1.49-1.52-3.06-2.02-4.7-.05-.15-.29-.09-.24.07h0Z" style="fill: #231f20;"/>
    <path d="M51.93,108.63c.41,1.09.95,2.13,1.61,3.09.19.27.39.54.6.8.1.13.28-.05.18-.18-.71-.88-1.3-1.85-1.77-2.88-.13-.29-.26-.59-.37-.89-.06-.15-.3-.08-.24.07h0Z" style="fill: #231f20;"/>
    <path d="M55.67,115.07c.98.96,2,1.88,3.06,2.74.3.24.61.49.92.72.13.1.25-.12.13-.22-1.08-.82-2.11-1.7-3.1-2.63-.28-.26-.56-.53-.83-.8-.11-.11-.29.06-.18.18h0Z" style="fill: #231f20;"/>
    <path d="M58.35,117.37c1.14,1.13,2.32,2.21,3.54,3.24.34.29.69.58,1.04.86.12.1.3-.08.18-.18-1.25-1-2.45-2.06-3.61-3.16-.33-.31-.65-.62-.97-.94-.11-.11-.29.06-.18.18h0Z" style="fill: #231f20;"/>
    <path d="M62.02,122.04c.13.81.26,1.62.38,2.43.01.07.09.1.15.09.07-.02.1-.09.09-.15-.13-.81-.26-1.62-.38-2.43-.01-.07-.09-.1-.15-.09-.07.02-.1.09-.09.15h0Z" style="fill: #231f20;"/>
    <path d="M50.39,96.76c.51-1.86,1.11-3.69,1.79-5.49.06-.15-.18-.22-.24-.07-.68,1.8-1.27,3.63-1.79,5.49-.04.16.2.22.24.07h0Z" style="fill: #231f20;"/>
    <path d="M51.55,92.13c.16,0,.16-.25,0-.25s-.16.25,0,.25h0Z" style="fill: #231f20;"/>
    <path d="M60.58,99.69c-1.09-1.3-1.77-2.93-1.91-4.62-.01-.16-.26-.16-.25,0,.11,1.37.56,2.71,1.29,3.87.21.33.44.64.69.93.1.12.28-.05.18-.18h0Z" style="fill: #231f20;"/>
    <path d="M58.44,94.56l.22-2.54c.01-.16-.24-.16-.25,0-.28,3.16.64,6.39,2.51,8.95.52.72,1.12,1.38,1.78,1.97.12.11.3-.07.18-.18-2.32-2.08-3.82-5.02-4.18-8.12-.1-.87-.11-1.75-.03-2.63h-.25l-.22,2.54c-.01.16.24.16.25,0h0Z" style="fill: #231f20;"/>
    <path d="M65.89,112.8c-1.01.64-2.3.76-3.43.37-.32-.11-.62-.27-.9-.46-.13-.09-.26.13-.13.22,1.04.71,2.41.9,3.61.53.34-.1.67-.25.97-.45.14-.09.01-.3-.13-.22h0Z" style="fill: #231f20;"/>
    <path d="M69.01,113.31c.41.61.83,1.23,1.41,1.68.53.41,1.19.63,1.85.53.35-.05.68-.2.94-.45.12-.11-.06-.29-.18-.18-.42.41-1.05.48-1.6.33-.63-.17-1.13-.61-1.53-1.11-.24-.3-.46-.62-.67-.93-.09-.13-.31,0-.22.13h0Z" style="fill: #231f20;"/>
    <path d="M55.94,90.55c.56.7,1.2,1.33,1.89,1.9s1.44,1.1,2.25,1.48c.43.21.92.34,1.38.12.15-.07.02-.29-.13-.22-.39.19-.85.02-1.21-.16s-.74-.42-1.09-.65c-.7-.46-1.35-1-1.95-1.59-.34-.34-.66-.69-.96-1.06-.1-.12-.28.05-.18.18h0Z" style="fill: #231f20;"/>
    <path d="M64.23,117.51c-3.44-1.42-6.65-3.4-9.47-5.82-.79-.67-1.54-1.39-2.27-2.13-.11-.12-.29.06-.18.18,2.62,2.68,5.67,4.95,9,6.69.93.48,1.88.92,2.85,1.32.15.06.21-.18.07-.24h0Z" style="fill: #231f20;"/>
    <path d="M52.28,98.37c4.17,2.4,8.05,5.3,12.32,7.55,1.19.63,2.41,1.2,3.66,1.69.15.06.21-.18.07-.24-4.46-1.76-8.41-4.52-12.43-7.08-1.15-.73-2.31-1.45-3.49-2.13-.14-.08-.27.14-.13.22h0Z" style="fill: #231f20;"/>
    <path d="M56.03,122.19l.51,1.02c.03.06.12.08.17.04.06-.04.08-.11.04-.17l-.51-1.02c-.03-.06-.12-.08-.17-.04-.06.04-.08.11-.04.17h0Z" style="fill: #231f20;"/>
    <path d="M56.91,122.17c.38.98.76,1.96,1.14,2.94.02.06.08.11.15.09.06-.02.11-.09.09-.15-.38-.98-.76-1.96-1.14-2.94-.02-.06-.08-.11-.15-.09-.06.02-.11.09-.09.15h0Z" style="fill: #231f20;"/>
    <path d="M58.32,124.08c.57,1.88,1.26,3.72,2.06,5.52.07.15.28.02.22-.13-.79-1.78-1.47-3.6-2.03-5.46-.05-.15-.29-.09-.24.07h0Z" style="fill: #231f20;"/>
    <path d="M59.6,124.33c.4,1.54.92,3.04,1.54,4.5.06.15.28.02.22-.13-.62-1.44-1.12-2.92-1.52-4.44-.04-.16-.28-.09-.24.07h0Z" style="fill: #231f20;"/>
    <path d="M60.49,125.23l.64,1.66c.02.06.08.11.15.09.06-.02.11-.09.09-.15l-.64-1.66c-.02-.06-.08-.11-.15-.09-.06.02-.11.09-.09.15h0Z" style="fill: #231f20;"/>
    <path d="M61.38,125.74c.16,1,.42,1.98.76,2.94.05.15.3.09.24-.07-.34-.95-.59-1.94-.76-2.94-.01-.07-.09-.1-.15-.09-.07.02-.1.09-.09.15h0Z" style="fill: #231f20;"/>
    <path d="M61.5,130.3c.16,0,.16-.25,0-.25s-.16.25,0,.25h0Z" style="fill: #231f20;"/>
    <path d="M61.89,124.59l.51,2.3c.03.16.28.09.24-.07l-.51-2.3c-.03-.16-.28-.09-.24.07h0Z" style="fill: #231f20;"/>
    <path d="M62.01,130.42c.16,0,.16-.25,0-.25s-.16.25,0,.25h0Z" style="fill: #231f20;"/>
    <path d="M61.64,129.69c.41,1.21.75,2.45,1.02,3.7.03.16.27.09.24-.07-.27-1.25-.61-2.49-1.02-3.7-.05-.15-.29-.09-.24.07h0Z" style="fill: #231f20;"/>
    <path d="M117.8,131.58c-.04,1.02-.09,2.04-.13,3.06,0,.16.24.16.25,0,.04-1.02.09-2.04.13-3.06,0-.16-.24-.16-.25,0h0Z" style="fill: #231f20;"/>
    <path d="M118.96,131.32c-.09,1.32-.17,2.64-.26,3.96-.01.16.24.16.25,0,.09-1.32.17-2.64.26-3.96.01-.16-.24-.16-.25,0h0Z" style="fill: #231f20;"/>
    <path d="M119.72,131.19c-.15,2-.15,4,0,6,.01.16.26.16.25,0-.15-2-.15-4,0-6,.01-.16-.24-.16-.25,0h0Z" style="fill: #231f20;"/>
    <path d="M120.61,128.26l-.26,3.96c-.01.16.24.16.25,0l.26-3.96c.01-.16-.24-.16-.25,0h0Z" style="fill: #231f20;"/>
    <path d="M121.89,125.58c-.17,2.64-.34,5.28-.51,7.91-.01.16.24.16.25,0,.17-2.64.34-5.28.51-7.91.01-.16-.24-.16-.25,0h0Z" style="fill: #231f20;"/>
    <path d="M122.91,125.58c-.3,2.72-.51,5.44-.65,8.17,0,.16.24.16.25,0,.13-2.73.35-5.45.65-8.17.02-.16-.23-.16-.25,0h0Z" style="fill: #231f20;"/>
    <path d="M124.04,125.32c-.3,3.45-.6,6.89-.9,10.34-.01.16.24.16.25,0,.3-3.45.6-6.89.9-10.34.01-.16-.24-.16-.25,0h0Z" style="fill: #231f20;"/>
    <path d="M123.92,125.7c-.04,1.66-.09,3.32-.13,4.98,0,.16.25.16.25,0,.04-1.66.09-3.32.13-4.98,0-.16-.25-.16-.25,0h0Z" style="fill: #231f20;"/>
    <path d="M124.06,118.68c.16,0,.16-.25,0-.25s-.16.25,0,.25h0Z" style="fill: #231f20;"/>
    <path d="M124.49,119.2c.3.21.39.59.41.93.04.45.02.9,0,1.35-.03.99-.1,1.97-.22,2.95-.02.16.23.16.25,0,.13-1.05.2-2.1.23-3.16,0-.45.03-.9-.03-1.35-.06-.37-.2-.72-.51-.94-.13-.09-.26.12-.13.22h0Z" style="fill: #231f20;"/>
    <path d="M124.32,123.12c-.38,1.19-.77,2.38-1.15,3.57-.05.15.19.22.24.07.38-1.19.77-2.38,1.15-3.57.05-.15-.19-.22-.24-.07h0Z" style="fill: #231f20;"/>
    <path d="M122.79,124.01c-.34,1.28-.68,2.55-1.02,3.83-.04.16.2.22.24.07.34-1.28.68-2.55,1.02-3.83.04-.16-.2-.22-.24-.07h0Z" style="fill: #231f20;"/>
    <path d="M116.78,131.45v1.53c0,.07.06.13.12.12s.12-.05.12-.12v-1.53c0-.07-.06-.13-.12-.12s-.12.05-.12.12h0Z" style="fill: #231f20;"/>
    <path d="M117.3,129.25l-.51,2.94c-.01.07.02.13.09.15.06.02.14-.02.15-.09l.51-2.94c.01-.07-.02-.13-.09-.15-.06-.02-.14.02-.15.09h0Z" style="fill: #231f20;"/>
    <path d="M116.27,129.02v1.15c0,.07.06.13.12.12s.12-.05.12-.12v-1.15c0-.07-.06-.13-.12-.12s-.12.05-.12.12h0Z" style="fill: #231f20;"/>
    <path d="M115.76,127.87c.16,0,.16-.25,0-.25s-.16.25,0,.25h0Z" style="fill: #231f20;"/>
    <path d="M112.44,111.28c-.04,1.4-.09,2.81-.13,4.21,0,.16.25.16.25,0,.04-1.4.09-2.81.13-4.21,0-.16-.25-.16-.25,0h0Z" style="fill: #231f20;"/>
    <path d="M113.97,114.85c-.09,1.45-.17,2.89-.26,4.34,0,.16.24.16.25,0,.09-1.45.17-2.89.26-4.34,0-.16-.24-.16-.25,0h0Z" style="fill: #231f20;"/>
    <path d="M114.36,114.47c-.38,4.46-.46,8.94-.25,13.4,0,.16.26.16.25,0-.21-4.47-.13-8.95.25-13.4.01-.16-.24-.16-.25,0h0Z" style="fill: #231f20;"/>
    <path d="M116.14,113.83v8.81c0,.16.25.16.25,0v-8.81c0-.16-.25-.16-.25,0h0Z" style="fill: #231f20;"/>
    <path d="M116.42,116.36c-.52,3.09-.7,6.22-.54,9.35,0,.16.26.16.25,0-.16-3.1.02-6.22.53-9.28.03-.16-.21-.23-.24-.07h0Z" style="fill: #231f20;"/>
    <path d="M116.65,113.7l-.13,3.06c0,.16.24.16.25,0l.13-3.06c0-.16-.24-.16-.25,0h0Z" style="fill: #231f20;"/>
    <path d="M113.97,112.04l-.26,4.09c-.01.16.24.16.25,0l.26-4.09c.01-.16-.24-.16-.25,0h0Z" style="fill: #231f20;"/>
    <path d="M115.12,112.81l-.26,6.13c0,.16.24.16.25,0l.26-6.13c0-.16-.24-.16-.25,0h0Z" style="fill: #231f20;"/>
    <path d="M117.3,115.87c-.29,3.74-.51,7.48-.65,11.23,0,.16.24.16.25,0,.14-3.75.35-7.49.65-11.23.01-.16-.24-.16-.25,0h0Z" style="fill: #231f20;"/>
    <path d="M117.68,119.96v3.57c0,.16.25.16.25,0v-3.57c0-.16-.25-.16-.25,0h0Z" style="fill: #231f20;"/>
    <path d="M24.61,88.17l.38,2.94c0,.07.05.12.12.12.06,0,.13-.06.12-.12l-.38-2.94c0-.07-.05-.12-.12-.12-.06,0-.13.06-.12.12h0Z" style="fill: #231f20;"/>
    <path d="M25.89,88.04c.04,1.53.09,3.06.13,4.6,0,.16.25.16.25,0-.04-1.53-.09-3.06-.13-4.6,0-.16-.25-.16-.25,0h0Z" style="fill: #231f20;"/>
    <path d="M26.9,87.53c.21,1.96.41,3.92.62,5.87.02.16.27.16.25,0-.21-1.96-.41-3.92-.62-5.87-.02-.16-.27-.16-.25,0h0Z" style="fill: #231f20;"/>
    <path d="M27.8,87.15c.17,2.28.43,4.54.77,6.8.02.16.26.09.24-.07-.34-2.23-.59-4.48-.76-6.73-.01-.16-.26-.16-.25,0h0Z" style="fill: #231f20;"/>
    <path d="M28.94,88.68c.09,2.9.53,5.79,1.3,8.58.04.15.28.09.24-.07-.77-2.78-1.2-5.64-1.29-8.52,0-.16-.25-.16-.25,0h0Z" style="fill: #231f20;"/>
    <path d="M30.23,90.47l.38,4.6c.01.16.26.16.25,0l-.38-4.6c-.01-.16-.26-.16-.25,0h0Z" style="fill: #231f20;"/>
    <path d="M63.04,115.24l.13,1.79c0,.07.05.12.12.12.06,0,.13-.06.12-.12l-.13-1.79c0-.07-.05-.12-.12-.12-.06,0-.13.06-.12.12h0Z" style="fill: #231f20;"/>
    <path d="M64.83,114.21l-.13,1.15c0,.07.06.13.12.12.07,0,.12-.06.12-.12l.13-1.15c0-.07-.06-.13-.12-.12-.07,0-.12.06-.12.12h0Z" style="fill: #231f20;"/>
    <path d="M65.46,113.7l-.13,2.04c0,.07.06.12.12.12.07,0,.12-.06.12-.12l.13-2.04c0-.07-.06-.12-.12-.12-.07,0-.12.06-.12.12h0Z" style="fill: #231f20;"/>
    <path d="M66.36,113.58l-.26,2.55c0,.07.06.12.12.12.07,0,.12-.06.12-.12l.26-2.55c0-.07-.06-.12-.12-.12-.07,0-.12.06-.12.12h0Z" style="fill: #231f20;"/>
    <path d="M66.86,114.09l.25,2.68c0,.07.05.12.12.12.06,0,.13-.06.12-.12l-.25-2.68c0-.07-.05-.12-.12-.12-.06,0-.13.06-.12.12h0Z" style="fill: #231f20;"/>
    <path d="M67.63,114.47c.04.98.09,1.96.13,2.94,0,.16.26.16.25,0-.04-.98-.09-1.96-.13-2.94,0-.16-.26-.16-.25,0h0Z" style="fill: #231f20;"/>
    <path d="M68.65,115.75c0,1.62,0,3.23,0,4.85,0,.16.25.16.25,0,0-1.62,0-3.23,0-4.85,0-.16-.25-.16-.25,0h0Z" style="fill: #231f20;"/>
    <path d="M69.55,116.51c.09,1.02.17,2.04.26,3.06.01.16.26.16.25,0-.09-1.02-.17-2.04-.26-3.06-.01-.16-.26-.16-.25,0h0Z" style="fill: #231f20;"/>
    <path d="M70.82,117.02c.08.98.17,1.96.25,2.94.01.16.26.16.25,0-.08-.98-.17-1.96-.25-2.94-.01-.16-.26-.16-.25,0h0Z" style="fill: #231f20;"/>
    <path d="M71.33,117.66c.16,0,.16-.25,0-.25s-.16.25,0,.25h0Z" style="fill: #231f20;"/>
    <path d="M67.25,114.6l-.13,1.28c0,.07.06.13.12.12.07,0,.12-.06.12-.12l.13-1.28c0-.07-.06-.13-.12-.12-.07,0-.12.06-.12.12h0Z" style="fill: #231f20;"/>
    <path d="M67.51,113.32l.13,2.68c0,.16.26.16.25,0l-.13-2.68c0-.16-.26-.16-.25,0h0Z" style="fill: #231f20;"/>
    <path d="M67.51,112.81c-.04.89-.09,1.79-.13,2.68,0,.16.24.16.25,0,.04-.89.09-1.79.13-2.68,0-.16-.24-.16-.25,0h0Z" style="fill: #231f20;"/>
    <path d="M68.14,112.43l.25,4.09c0,.16.26.16.25,0l-.25-4.09c0-.16-.26-.16-.25,0h0Z" style="fill: #231f20;"/>
    <path d="M69.16,114.21c.16,0,.16-.25,0-.25s-.16.25,0,.25h0Z" style="fill: #231f20;"/>
    <path d="M25.25,66.34c.16,0,.16-.25,0-.25s-.16.25,0,.25h0Z" style="fill: #231f20;"/>
    <path d="M25.25,66.04c.22.02.23-.29.08-.38-.09-.05-.2-.03-.28.04s-.11.16-.15.25c-.19.42-.35.84-.48,1.28-.07.25-.14.49-.19.74-.01.07.02.14.09.15.06.02.14-.02.15-.09.15-.7.37-1.38.67-2.03.02-.04.03-.08.06-.11,0,0,.02-.02.02-.02.01,0,.01,0,0,0-.01,0-.03,0-.04-.02-.01-.01,0,0,0,0,0-.01,0-.02,0,0,0,0,0,0,0,0,0,0,0,0,0,0,0,.02,0,0,0,0,0-.01,0-.02.02-.03,0-.01.02-.02.03-.02.02,0,.03,0,.01,0-.07,0-.12.06-.12.12,0,.07.06.12.12.12h0Z" style="fill: #231f20;"/>
    <path d="M25.1,66.17c-.12.66-.49,1.24-.63,1.89-.13.6-.05,1.26.47,1.65.24.18.55.27.85.19.16-.04.09-.28-.07-.24-.48.12-.91-.3-1.02-.74-.15-.59.11-1.18.32-1.72.13-.32.25-.63.31-.97.03-.16-.21-.22-.24-.07h0Z" style="fill: #231f20;"/>
    <path d="M26.01,70.42c.16,0,.16-.25,0-.25s-.16.25,0,.25h0Z" style="fill: #231f20;"/>
    <path d="M94.98,40.14l1.18,1.4.56.67c.17.2.34.41.54.59.33.3.79.56,1.25.38.37-.15.55-.52.58-.9.03-.45-.16-.84-.41-1.2-.14-.2-.3-.38-.45-.57s-.27-.39-.39-.59c-.21-.37-.4-.76-.75-1.02-.41-.31-.94-.29-1.42-.14-.27.08-.56.19-.81.34-.24.13-.35.37-.24.63s.35.45.55.63c.23.2.48.39.73.55.14.09.26-.13.13-.22-.2-.13-.4-.27-.58-.43s-.37-.31-.51-.49c-.05-.07-.12-.17-.11-.26,0-.11.1-.17.19-.21.2-.11.42-.19.63-.27.42-.14.89-.21,1.28.07.31.22.49.58.66.9.2.37.45.69.71,1.02.25.31.5.66.53,1.07.02.3-.06.66-.33.82-.38.23-.8-.04-1.08-.3-.19-.18-.36-.38-.53-.58l-.58-.68-1.17-1.38c-.1-.12-.28.05-.18.18h0Z" style="fill: #231f20;"/>
    <path d="M98.83,41.33c.9.52,1.65,1.28,2.18,2.18l.11-.19c-.25-.03-.51-.05-.76-.08s-.49-.04-.73-.08c-.37-.06-.87-.26-.83-.73l-.25.03c.1.43.19.86.29,1.28.05.21.1.42.14.63.04.19.07.41.17.59.14.25.43.34.7.29.29-.05.53-.24.65-.5.18-.38.14-.8.09-1.21,0-.07-.05-.12-.12-.12-.06,0-.13.06-.12.12.06.5.14,1.29-.49,1.45-.22.06-.44,0-.51-.23-.06-.17-.09-.35-.13-.53-.04-.19-.08-.37-.13-.56-.1-.43-.19-.86-.29-1.28-.03-.14-.24-.1-.25.03-.04.51.45.85.89.94.26.06.53.07.8.1.3.03.59.06.89.09.1,0,.15-.11.11-.19-.55-.94-1.33-1.72-2.27-2.27-.14-.08-.27.13-.13.22h0Z" style="fill: #231f20;"/>
    <path d="M98,45.28c-.03,1.05-.29,2.08-.75,3.03l.2-.03c-.46-.53-.94-1.27-.76-2.01.14-.57.76-1.1,1.36-.86l-.09-.12-.09.65c-.02.13.18.17.23.06.29-.55.59-1.1.88-1.65.2-.37.47-.87.22-1.28-.23-.38-.79-.4-1.17-.27-.43.15-.78.49-.98.9-.27.55-.31,1.18-.34,1.79h.25c-.05-.78-.1-1.56-.15-2.34,0-.08-.08-.14-.16-.12-.33.07-.67.09-1,.06-.17-.02-.34-.05-.51-.09-.13-.03-.39-.07-.4-.23,0-.14.15-.29.24-.38.1-.1.21-.19.33-.27.24-.15.51-.25.79-.29l-.12-.09c.14.4.37.76.66,1.06.11.12.29-.06.18-.18-.27-.27-.47-.59-.6-.95-.02-.05-.06-.1-.12-.09-.36.04-.7.17-1,.38-.25.18-.63.5-.61.85.03.39.63.45.92.5.44.07.88.05,1.31-.04l-.16-.12c.05.78.1,1.56.15,2.34.01.16.24.16.25,0,.03-.59.06-1.21.35-1.74.23-.42.68-.79,1.17-.77.28,0,.56.14.56.46,0,.25-.13.49-.24.7-.31.58-.62,1.16-.93,1.74l.23.06.09-.65c0-.06-.05-.1-.09-.12-.7-.28-1.43.29-1.64.95-.28.85.26,1.72.8,2.34.05.06.16.04.2-.03.48-.99.75-2.06.78-3.15,0-.16-.24-.16-.25,0h0Z" style="fill: #231f20;"/>
    <path d="M95.62,45.48c-.44.97-.69,2.01-.73,3.07,0,.09.11.16.19.11.35-.26.71-.51,1.06-.77.14-.11.28-.21.38-.36.11-.16.15-.34.17-.53.06-.43.1-.86.14-1.29.04-.38.11-.77.1-1.15,0-.35-.09-.69-.39-.9-.03-.02-.09-.02-.13,0-.17.12-.35.24-.52.36-.13.09,0,.31.13.22.17-.12.35-.24.52-.36h-.13c.29.21.28.63.25.95-.04.48-.1.97-.16,1.45-.03.24-.04.49-.08.74-.04.23-.12.41-.3.56s-.39.29-.58.43c-.2.15-.4.3-.61.44l.19.11c.04-1.02.27-2.02.7-2.94.07-.15-.15-.27-.22-.13h0Z" style="fill: #231f20;"/>
    <path d="M95.84,43.87c.16,0,.16-.25,0-.25s-.16.25,0,.25h0Z" style="fill: #231f20;"/>
    <path d="M98.03,46.91c-.12.65-.21,1.31-.25,1.97,0,.08.08.15.16.12.33-.13.65-.25.98-.38l.48-.18c.15-.06.31-.11.46-.18.12-.06.22-.16.26-.29.04-.15,0-.32-.02-.47-.04-.34-.1-.68-.17-1.01-.08-.38-.17-.76-.28-1.13-.05-.15-.29-.09-.24.07.18.6.32,1.22.41,1.84.02.16.04.31.06.47.01.13.01.23-.12.3s-.27.11-.4.16l-.45.17c-.34.13-.69.26-1.03.39l.16.12c.04-.64.12-1.27.24-1.9.03-.16-.21-.22-.24-.07h0Z" style="fill: #231f20;"/>
    <path d="M101.02,46.66c.75.51,1.58.91,2.45,1.17.15.05.22-.19.07-.24-.85-.26-1.66-.65-2.39-1.15-.06-.04-.14-.01-.17.04-.04.06-.01.13.04.17h0Z" style="fill: #231f20;"/>
    <path d="M103.75,46.37l.84-1.66c.08-.15-.12-.25-.22-.13-.42.54-.84,1.09-1.26,1.63l-.31.41c-.08.11-.2.31-.34.36-.16.05-.31-.12-.41-.22-.12-.12-.24-.23-.36-.35s-.24-.23-.36-.35c-.07-.07-.32-.24-.28-.35.02-.05.11-.11.14-.14.07-.06.14-.12.21-.18.12-.11.25-.21.38-.32.51-.43,1.04-.84,1.58-1.24l-.18-.07c.1.36.21.72.31,1.08.05.17.13.36.14.55,0,.17-.08.29-.18.41-.39.46-.89.96-1.47,1.16-.28.1-.58.11-.86,0-.3-.12-.55-.33-.86-.42-.54-.16-1.12-.03-1.56.31l.21.12c.1-.66.29-1.3.6-1.89s.74-1.11,1.18-1.62c.4-.47.79-.97.91-1.59.11-.56-.03-1.12-.45-1.51-.45-.41-1.07-.57-1.65-.71-.1-.02-.2.09-.14.18.13.21.33.34.53.47s.44.24.56.45c.31.56-.37,1.15-.76,1.46-.13.1.05.27.18.18.44-.35,1.03-.91.88-1.54s-.87-.66-1.18-1.14l-.14.18c.49.11,1.02.24,1.43.55.49.37.62.96.46,1.54-.17.61-.6,1.08-1.01,1.55s-.75.92-1.02,1.46c-.31.6-.51,1.25-.61,1.93-.02.13.11.2.21.12.41-.32.99-.4,1.46-.19.24.1.44.26.68.36.22.09.45.12.68.09.47-.06.89-.32,1.24-.62.2-.17.39-.36.57-.55.14-.16.3-.32.35-.53.07-.29-.07-.59-.15-.86-.1-.34-.2-.68-.29-1.01-.02-.07-.12-.12-.18-.07-.5.37-.99.75-1.47,1.14-.24.2-.49.41-.72.61-.16.14-.34.31-.21.53.06.1.16.18.24.26.12.12.24.23.36.35.21.2.41.43.65.6.51.37.84-.25,1.11-.6.46-.6.93-1.2,1.39-1.8l-.22-.13-.84,1.66c-.07.14.14.27.22.13h0Z" style="fill: #231f20;"/>
    <path d="M106.82,36.34c.16,0,.16-.25,0-.25s-.16.25,0,.25h0Z" style="fill: #231f20;"/>
    <path d="M102.27,39.74c1.85-1.22,3.48-2.75,4.82-4.51h-.22c.29.51.52,1.03.71,1.58l.06-.14c-.36.23-.73.45-1.12.65-.22.11-.42.25-.62.05-.09-.09-.16-.2-.28-.26-.29-.15-.69-.01-.99.03-.44.07-.88.14-1.32.21l.16.12c0-.34-.13-.64-.39-.86-.06-.05-.16-.05-.2.03-.29.59-.58,1.19-.88,1.78-.03.06-.01.13.04.17,1.26.88,2.74.05,3.83-.68l-.17-.04c.17.27.35.54.5.81.08.14.09.16.05.32-.04.17-.06.15-.21.21s-.32.09-.47.13c-.3.08-.59.17-.89.25-.13.04-.25.08-.38.11-.24.05-.44.06-.42-.27,0-.17.06-.3-.01-.46-.07-.15-.2-.25-.34-.32-.37-.17-.74-.09-1.12-.05-.21.03-.46.04-.67-.04-.3-.12-.24-.36-.33-.61-.12-.35-.49-.32-.75-.14-.55.38-.53,1.27-.1,1.73.67.72,1.82.27,2.31-.42h-.22c.3.46.41,1.13-.08,1.51-.22.17-.51.23-.75.07s-.32-.43-.21-.69l-.24-.07c-.27.65-.52,1.66.35,1.98.29.11.58.03.77-.21.23-.29.21-.7.46-.98l-.21-.06c.17.66.36,1.39.14,2.06-.18.55-.67,1.02-1.28.97l.12.09c-.14-.44-.3-.87-.51-1.29-.03-.07-.15-.08-.2-.03-.53.62-.9,1.34-1.1,2.14-.01.06.02.14.09.15.46.08.92.17,1.38.23.35.05.53-.07.71-.36.31-.49.82-.76,1.32-1.01.46-.23.96-.46,1.31-.84.27-.3.58-.95.19-1.27-.21-.17-.52-.13-.75-.04-.37.15-.68.65-1.12.56l.06.21c.69-.7,1.52-1.22,2.46-1.51.07-.02.1-.08.09-.15-.08-.51-.36-.94-.79-1.22l-.13.22c.41.22.56.66.66,1.08.11.49.18.99.26,1.48.04.26.09.52.13.78.03.21-.03.39-.27.42-.15.02-.3.03-.46.04-.27.02-.53.04-.8.07-.16.01-.39,0-.53.11-.12.1-.12.23-.11.38.03.25.08.5.13.75.07.44.08.98.3,1.38.31.57,1.06.51,1.53.17.79-.58.56-1.69.36-2.5l-.18.14c.76.33,1.42-.37,1.49-1.09.03-.34.03-.97-.23-1.23-.22-.22-.51-.07-.76-.02-.23.05-.39-.14-.28-.37.15-.3.52-.25.79-.19.42.09.8.17,1.22.03.68-.22,1.12-.9.83-1.6-.16-.38-.51-.59-.92-.59-.6.01-1.23.19-1.81.3l.15.09c-.08-.48.07-1.1.55-1.34s1.25.25.98.81c-.04.09.03.23.14.18.39-.16.77-.32,1.16-.49l.58-.24c.19-.08.46-.24.68-.14.15.08.26.27.35.41.11.17.22.34.32.52.19.34.36.7.51,1.07l.15-.15c-.89-.2-1.79-.28-2.71-.26-.13,0-.16.16-.06.23.63.45,1.04,1.15,1.14,1.93l.09-.12c-.45.18-.91.27-1.4.27l.12.09-.34-.99c-.05-.15-.29-.09-.24.07l.34.99c.02.05.06.09.12.09.51,0,1-.09,1.47-.28.05-.02.1-.06.09-.12-.11-.87-.55-1.63-1.26-2.14l-.06.23c.89-.02,1.77.06,2.64.25.08.02.19-.06.15-.15-.16-.42-.36-.83-.58-1.21-.17-.3-.39-.76-.71-.93-.36-.19-.8.08-1.13.22-.49.21-.98.41-1.47.62l.14.18c.3-.64-.36-1.33-1.02-1.25-.79.1-1.08,1.04-.97,1.72.01.07.09.1.15.09.46-.08.93-.17,1.39-.24.43-.07.86-.06,1.05.4.36.89-.66,1.42-1.41,1.29-.34-.06-.72-.22-1.07-.09-.21.08-.39.29-.42.52-.03.2.07.41.24.51.19.11.41,0,.6-.04.14-.04.21-.06.31.05.09.1.1.21.12.34.05.25.07.52.02.78-.09.48-.57,1-1.1.77-.1-.04-.21.03-.18.14.18.73.44,1.86-.39,2.31-.28.15-.68.22-.93-.03-.29-.29-.29-.92-.35-1.3-.04-.24-.08-.48-.12-.72,0-.05-.05-.17-.03-.22.02-.07.17-.12.22-.14.12-.03.27-.02.4-.03.25-.02.49-.04.74-.06.18-.01.38,0,.55-.07.3-.12.29-.41.24-.68-.08-.48-.17-.96-.25-1.44-.13-.72-.2-1.66-.92-2.05-.14-.08-.26.13-.13.22.38.25.61.62.68,1.07l.09-.15c-.98.3-1.86.84-2.57,1.57-.06.06-.04.19.06.21.34.07.6-.09.87-.3.21-.16.97-.67.99-.06s-.61.98-1.06,1.23c-.49.27-1.01.48-1.45.84-.11.09-.22.2-.31.31-.08.1-.13.23-.21.32-.23.26-.67.09-.97.04l-.78-.13.09.15c.18-.75.53-1.44,1.03-2.03l-.2-.03c.19.4.35.81.48,1.23.02.06.06.09.12.09.65.05,1.2-.4,1.45-.97.33-.75.12-1.61-.07-2.38-.02-.09-.15-.12-.21-.06-.15.17-.23.36-.3.57-.09.26-.19.62-.54.59s-.56-.36-.59-.67c-.03-.36.13-.71.26-1.04.06-.15-.18-.21-.24-.07-.29.68.49,1.29,1.12,1.03.82-.34.8-1.33.39-1.98-.05-.08-.16-.08-.22,0-.5.7-1.9,1.02-2.14-.08-.07-.32.01-.83.37-.96.31-.11.28.22.34.41.04.14.13.27.26.35.29.18.67.16.99.12s.93-.16,1.14.2c.12.21-.08.44,0,.66.04.12.14.2.26.24.39.13.91-.13,1.27-.23.31-.09.63-.17.94-.27.17-.05.35-.12.42-.3.07-.17,0-.35-.07-.51-.15-.31-.36-.6-.55-.9-.03-.06-.11-.08-.17-.04-1.02.67-2.4,1.51-3.58.68l.04.17c.29-.59.58-1.19.88-1.78l-.2.03c.22.18.32.4.32.68,0,.09.08.13.16.12.44-.07.88-.14,1.32-.21.22-.03.54-.15.75-.07.17.06.24.24.37.34.27.2.56.02.82-.11.38-.2.75-.42,1.12-.65.04-.03.08-.09.06-.14-.19-.57-.44-1.12-.74-1.64-.05-.09-.16-.07-.22,0-1.31,1.73-2.91,3.23-4.73,4.42-.13.09,0,.3.13.22h0Z" style="fill: #231f20;"/>
    <path d="M100.53,36.21c.89.14,1.8.18,2.7.11.06,0,.13-.05.12-.12-.04-.32-.09-.65-.24-.94-.14-.26-.39-.48-.69-.53-.32-.06-.57.1-.79.32s-.46.42-.75.54c-.15.06-.31.11-.47.13-.13.02-.27.02-.39.07s-.24.12-.29.25c-.07.16-.02.34.01.51.03.19.06.38.1.56.03.15.03.34.14.45s.28.1.43.08.31-.04.46-.08c.31-.09.59-.27.69-.58.09-.27.03-.59-.22-.75-.14-.09-.26.13-.13.22.16.1.16.31.11.47-.07.21-.28.33-.48.39-.12.04-.24.06-.37.08-.08.01-.27.07-.33-.01-.03-.04-.03-.12-.04-.17-.01-.08-.03-.17-.04-.25-.03-.15-.05-.31-.08-.46-.02-.11-.08-.3,0-.4.06-.07.17-.09.25-.1.12-.02.23-.03.35-.05.13-.03.26-.07.39-.12.25-.1.48-.25.68-.43.17-.16.34-.39.59-.42s.5.15.63.36c.16.26.21.58.24.88l.12-.12c-.88.06-1.76.03-2.63-.1-.07-.01-.13.02-.15.09-.02.06.02.14.09.15h0Z" style="fill: #231f20;"/>
    <path d="M102.63,36.72l.18,1.63c.03.25.05.49.08.74.03.19.07.4.18.56.21.32.59.38.93.22.37-.18.56-.54.61-.93.03-.24.01-.48-.01-.72s-.04-.5-.04-.75c0-.49,0-1.01-.18-1.47-.26-.67-1.08-1.3-1.79-.85-.66.42-.61,1.4-.31,2.02.07.15.28.02.22-.13-.22-.46-.29-1.17.09-1.57.51-.53,1.25-.02,1.51.5.18.37.2.81.21,1.22,0,.22,0,.44.02.65s.04.42.05.62c.02.37,0,.78-.28,1.05-.21.19-.56.3-.77.05-.12-.14-.16-.34-.18-.52-.03-.25-.06-.5-.08-.76l-.17-1.56c-.02-.16-.27-.16-.25,0h0Z" style="fill: #231f20;"/>
    <path d="M105.67,34.92c1.02-.13,2.01-.45,2.92-.93l-.17-.17c-.11.2-.4.13-.54,0-.2-.18-.25-.49-.32-.74-.07-.23-.17-.47-.36-.63-.2-.17-.45-.19-.7-.13-.46.12-1.01.34-1.32.73s-.3.92,0,1.29c.34.41,1.01.42,1.37.02h-.18c.49.42.23,1.18-.15,1.58-.26.26-.59.44-.91.62s-.65.35-.94.58l.21.06c-.25-1.18.41-2.45,1.5-2.95l-.13-.22c-.2.1-.41-.13-.55-.25-.18-.15-.38-.32-.63-.32-.15,0-.28.08-.4.17-.18.14-.36.3-.53.45-.35.3-.7.59-1.06.89-.12.1.05.28.18.18.34-.29.69-.58,1.03-.87.17-.15.34-.3.52-.44.12-.09.24-.15.38-.1.4.14.7.76,1.18.51.14-.08.02-.28-.13-.22-1.19.55-1.88,1.95-1.61,3.23.02.1.14.11.21.06.63-.5,1.5-.71,1.99-1.37.37-.5.54-1.31.01-1.76-.05-.04-.13-.05-.18,0-.3.34-.86.27-1.08-.13-.23-.43,0-.88.37-1.12.19-.13.41-.21.62-.29.23-.08.51-.2.72-.03.37.3.32.88.58,1.25.23.32.8.47,1.03.06.06-.11-.06-.23-.17-.17-.87.46-1.81.77-2.79.89-.16.02-.16.27,0,.25h0Z" style="fill: #231f20;"/>
    <path d="M99.3,31.32l-1.05-2.53-.23.1,1.77,3.44.22-.13-1.08-1.74c-.17-.27-.36-.54-.5-.83-.11-.22-.23-.59.04-.75s.57.04.73.25c.18.24.27.54.39.82.27.66.54,1.31.8,1.97.04.09.19.38.08.46-.07.05-.2-.03-.27-.06-.19-.09-.37-.18-.57-.08l.17.17c.28-.64.71-1.2,1.28-1.61.05-.04.14-.12.2-.13.12-.02.21.13.26.21.1.15.16.32.17.49.02.35-.23.7-.6.72l.03.25c.41-.13.88-.3,1.09-.71.18-.35.13-.78-.21-1.01-.08-.05-.2-.1-.26-.18-.07-.12,0-.26.08-.35.17-.19.45-.24.69-.24.5.01.98.22,1.49.26.38.03,1.05-.11,1.24.32l.07-.18c-1.15.46-2.32.84-3.52,1.13-.16.04-.09.28.07.24,1.2-.29,2.38-.67,3.52-1.13.08-.03.11-.1.07-.18-.17-.39-.63-.43-1-.44-.25,0-.49,0-.74-.05-.26-.05-.52-.12-.78-.17-.45-.08-1.01-.09-1.32.3-.12.15-.2.36-.12.55.1.22.34.25.48.42.18.22.07.56-.11.75-.22.22-.53.32-.82.42-.13.04-.11.25.03.25.41-.02.76-.33.83-.74.04-.22,0-.44-.08-.64-.08-.18-.21-.42-.4-.51s-.38.04-.53.15c-.19.14-.36.29-.53.46-.34.36-.62.77-.82,1.22-.05.12.05.23.17.17.18-.08.44.17.62.19.26.02.4-.21.37-.45-.03-.17-.11-.32-.17-.47-.09-.21-.17-.42-.26-.63-.16-.4-.33-.8-.49-1.2-.22-.54-.49-1.36-1.22-1.3-.27.02-.49.22-.54.48-.05.29.08.59.22.84.47.82,1.01,1.62,1.51,2.42.09.14.29.02.22-.13l-1.77-3.44c-.06-.12-.28-.04-.23.1l1.05,2.53c.06.15.3.08.24-.07h0Z" style="fill: #231f20;"/>
    <path d="M93.3,39.37c-.2.57-.44,1.13-.72,1.67-.14.27-.29.54-.46.79-.1.16-.28.4-.5.32-.15-.06-.23-.24-.25-.39-.03-.21.03-.39.16-.55.15-.19.36-.34.54-.5.2-.17.37-.37.51-.59s.29-.5.55-.61c.18-.08.45-.09.56.1l.17-.17c-.89-.49-1.89-.76-2.91-.77-.08,0-.14.08-.12.16.13.51.25,1.02.4,1.52.06.21.2.33.42.29.17-.03.35-.09.51-.15.31-.12.65-.3.81-.61.18-.35.08-.74-.15-1.04-.15-.19-.33-.35-.51-.5-.22-.19-.45-.38-.67-.58v.18c.36-.4,1.01-.58,1.48-.27.42.27.57.88.3,1.3-.07.1.04.2.14.18s.13.18.14.24c.03.16,0,.33,0,.5-.01.4-.02.81-.03,1.21,0,.06.04.1.09.12.55.18,1.16-.19,1.32-.73.18-.59-.21-1.23-.76-1.47-.17-.07-.64-.16-.54-.44.05-.13.2-.21.31-.26.15-.07.32-.11.48-.15.33-.08.73-.12.98.14.17.18.26.49.02.65-.22.15-.55.08-.8.07-.29-.01-.58,0-.82.19-.13.1.05.27.18.18.21-.16.52-.13.77-.11s.54.03.77-.09.35-.41.29-.68c-.07-.29-.31-.52-.58-.61-.38-.12-.81-.01-1.18.11-.26.08-.59.23-.66.52-.08.31.18.51.44.61.14.06.29.1.42.19s.25.21.33.35c.18.3.21.69-.02.98-.2.27-.56.41-.88.3l.09.12c.01-.51.03-1.03.04-1.54,0-.29-.1-.7-.47-.64l.14.18c.35-.52.15-1.27-.36-1.62-.56-.39-1.38-.19-1.81.3-.04.05-.05.13,0,.18.31.26.63.52.93.8.24.22.5.53.42.88-.07.28-.32.45-.56.57-.14.07-.28.12-.43.16-.07.02-.14.05-.21.06-.11.01-.12-.07-.15-.16-.13-.49-.26-.98-.39-1.47l-.12.16c.97.01,1.93.27,2.78.74.11.06.24-.06.17-.17-.13-.22-.37-.3-.61-.27-.27.03-.49.18-.66.39-.2.24-.33.53-.55.76s-.48.39-.68.62c-.17.19-.29.4-.29.66,0,.22.07.46.23.62s.4.2.6.1c.28-.14.44-.47.59-.73.4-.69.74-1.43,1-2.19.05-.15-.19-.22-.24-.07h0Z" style="fill: #231f20;"/>
    <path d="M94.02,32.79c.46-1.3.72-2.67.8-4.04l-.25.03.7,1.71c.11.28.23.56.34.85.12.31.13.56-.03.85-.29.54-.63,1.06-.94,1.59s-.64,1.08-.96,1.62l.17-.04c-.52-.37-.33-1.09-.12-1.58.27-.6.56-1.18.84-1.77.07-.14-.15-.27-.22-.13-.17.35-.34.7-.5,1.06s-.34.68-.47,1.03c-.2.55-.19,1.24.34,1.61.06.04.14,0,.17-.04.34-.58.68-1.15,1.03-1.73.16-.27.32-.54.48-.81s.35-.54.47-.82c.24-.55-.11-1.11-.31-1.62l-.75-1.83c-.05-.13-.24-.12-.25.03-.07,1.36-.34,2.69-.79,3.98-.05.15.19.22.24.07h0Z" style="fill: #231f20;"/>
    <path d="M91.63,30.6c.16,0,.16-.25,0-.25s-.16.25,0,.25h0Z" style="fill: #231f20;"/>
    <path d="M93.02,30.66c-.5-.72-.87-1.51-1.14-2.34-.18-.57-.29-1.37-.89-1.67-.44-.22-1.08-.08-1.15.47-.04.34.16.66.32.95.23.43.46.86.69,1.29.03.05.09.07.14.06.41-.08.76-.25,1.09-.51l-.2-.03c.54.83.96,1.71,1.25,2.65l.12-.16c-.62-.05-1.22.06-1.78.31l.18.07c-.19-.66-.22-1.33-.06-2,.03-.14-.15-.22-.23-.1-.38.61-.74,1.23-1.08,1.86-.2.38-.55.97-.11,1.32.3.24.74.08,1-.14.42-.36.45-.98.86-1.34l-.21-.09c-.06.44-.11.89-.17,1.33-.04.36-.14.75-.07,1.1.1.53.63.76,1.12.59.55-.19.77-.76.76-1.3-.02-.7-.33-1.4-.75-1.95v.13c.18-.27.54-.09.68.12.11.17.15.37.18.56.07.37.08.77.01,1.15-.06.35-.19.71-.44.98-.13.14-.34.31-.53.33-.34.03-.35-.27-.39-.52-.12-.69-.85-1.06-1.45-.61-.73.56-.49,1.53-.23,2.27.02.06.09.11.15.09.39-.16.79-.33,1.18-.49.06-.02.11-.08.09-.15l-.38-.96c-.06-.15-.28-.09-.24.07l.56,2.58.06-.14c-.78.33-1.63-.32-1.5-1.16l-.25-.03.11,1.32.06.69c.02.21.11.41-.15.47-.92.23-.93-1.49-.04-1.57.09,0,.16-.1.11-.19-.36-.6-.49-1.29-.36-1.98.01-.06,0-.11-.06-.14-.52-.37-1.21-.05-1.52.44-.45.72-.03,1.63.39,2.25l.2-.15c-.27-.22-.56-.38-.89-.47-.28-.08-.68-.16-.97-.06-.21.07-.22.37-.19.56.04.27.2.51.4.68.25.2.57.27.89.27.28,0,.67-.03.91-.2s.22-.56.24-.82c.03-.46.02-.91-.02-1.36l-.19.11c.29.21.67.17.93-.07.12-.11-.06-.29-.18-.18-.19.17-.42.17-.62.03-.07-.05-.2.02-.19.11.06.56.06,1.12,0,1.68-.04.31-.23.36-.5.41s-.56.06-.82-.03c-.23-.08-.43-.24-.53-.46-.04-.08-.07-.18-.07-.27,0-.17.04-.21.2-.23.49-.07,1.06.18,1.44.49.1.08.28-.02.2-.15-.35-.52-.74-1.25-.46-1.88.2-.45.8-.78,1.24-.47l-.06-.14c-.14.75-.01,1.51.38,2.17l.11-.19c-.93.08-1.34,1.65-.39,2.02.18.07.38.08.56.02.23-.08.31-.2.29-.43l-.19-2.28c-.01-.13-.22-.18-.25-.03-.16,1.07.87,1.87,1.87,1.45.05-.02.07-.09.06-.14l-.56-2.58-.24.07.38.96.09-.15c-.39.16-.79.33-1.18.49l.15.09c-.16-.44-.33-.92-.23-1.4.08-.4.46-.85.91-.75.49.11.46.56.57.94.08.27.29.43.59.39.55-.08.94-.63,1.1-1.12.19-.58.18-1.25.04-1.84-.08-.31-.23-.64-.55-.76-.27-.1-.56-.04-.73.21-.02.03-.02.09,0,.13.34.44.58.94.68,1.49.09.5.03,1.18-.52,1.39-.21.08-.47.08-.65-.07-.23-.2-.2-.55-.17-.82.07-.63.16-1.26.24-1.89.01-.12-.14-.15-.21-.09-.3.26-.42.62-.59.96-.14.27-.56.76-.92.51-.42-.29.27-1.23.43-1.52.26-.46.52-.91.8-1.35l-.23-.1c-.17.71-.15,1.43.06,2.13.02.08.11.11.18.07.52-.23,1.08-.32,1.66-.27.08,0,.14-.09.12-.16-.3-.96-.73-1.87-1.28-2.71-.05-.07-.13-.08-.2-.03-.29.23-.61.37-.98.44l.14.06c-.16-.31-.33-.62-.49-.92s-.42-.66-.47-1.01.23-.55.56-.5c.31.05.51.29.64.57.26.55.37,1.17.59,1.73.24.6.54,1.16.91,1.69.09.13.31,0,.22-.13h0Z" style="fill: #231f20;"/>
    <path d="M151.92,73.08l1.69,1.76c.06.06.19.04.21-.06.08-.44.17-.89.25-1.33.03-.17.08-.36,0-.53s-.25-.23-.4-.3c-.37-.16-.77-.3-1.17-.23-.3.05-.59.26-.71.54-.14.34.02.65.24.9.26.3.49.59.64.96.07.17.12.35.17.54.04.14.09.29.21.38.26.19.67.04.9-.13.3-.21.5-.55.48-.92s-.2-.7-.51-.88l-.06.23c.6.07,1.4.07,1.7-.56.11-.23.15-.51.03-.75-.14-.28-.45-.38-.74-.38s-.61.08-.88-.06-.17-.45-.1-.69c.06-.22.14-.49-.03-.68-.21-.24-.65-.17-.93-.13-.36.05-.73.23-.86.59-.06.17-.04.34.01.51.04.13.17.35.05.46h.18c-.32-.27-.67-.57-1.1-.62-.37-.05-.78.09-.95.44s-.14.79-.1,1.16.21.73.59.87c.42.15.89-.05,1.27-.23.15-.07.02-.28-.13-.22-.33.16-.8.37-1.15.17s-.35-.71-.35-1.06c0-.2,0-.43.12-.61.1-.16.27-.25.46-.27.46-.05.85.27,1.18.56.05.04.13.05.18,0,.21-.21.08-.48,0-.72-.04-.14-.06-.26.01-.39.07-.12.18-.22.3-.28.15-.07.33-.1.5-.11.14-.01.36-.05.49.02.19.1.06.39.01.54-.06.22-.12.47,0,.69s.36.31.58.34c.29.04.58-.05.87.01.25.06.38.25.36.51-.08.75-.99.74-1.55.67-.13-.02-.16.17-.06.23.49.28.5.96.09,1.32-.14.12-.55.36-.71.16-.07-.09-.09-.22-.11-.33-.04-.15-.09-.3-.15-.45-.11-.27-.26-.52-.44-.75-.17-.22-.47-.44-.48-.74,0-.26.22-.46.45-.54.3-.11.64-.01.93.1.09.04.19.07.28.11.07.03.16.06.2.12.09.14,0,.39-.03.54-.08.39-.15.79-.23,1.18l.21-.06-1.69-1.76c-.11-.12-.29.06-.18.18h0Z" style="fill: #231f20;"/>
    <path d="M147.86,65.57c.62.38,1.16.85,1.62,1.41l.06-.21c-.53.16-1.06.31-1.6.47l-.84.24c-.13.04-.25.07-.38.11-.16.05-.3.11-.39-.09-.11-.23-.16-.53-.24-.78-.04-.13-.08-.25-.11-.38-.05-.17-.09-.34.1-.44.47-.26,1.02-.38,1.55-.41l-.11-.06c.26.55.72.95,1.23,1.26.26.16.53.3.81.43.31.15.53.22.84.03.34-.21.67-.43,1.01-.65.25-.16.43-.33.32-.64-.12-.36-.32-.71-.47-1.05-.11-.24-.23-.49-.54-.38-.18.06-.35.2-.52.3-.19.12-.38.24-.58.35-.41.25-.81.5-1.22.75l.19.11c.05-.39.1-.78.15-1.17.03-.21.05-.41.08-.62.02-.16,0-.4.17-.47s.42-.06.6-.08c.13-.02.27-.03.4-.03.32,0,.63.15.65.51.03.73-.78.94-1.35,1.01s-1.23.1-1.67.55l.21.09c-.06-1.2-.18-2.39-.35-3.58l-.09.15c.58-.18,1.15-.4,1.74-.54.18-.04.31,0,.35.2.03.15.03.31.05.46.03.3.06.6.09.9l.25-.03c-.1-.57-.21-1.13-.33-1.69-.04-.2-.07-.45-.22-.61-.13-.14-.32-.19-.51-.19-.53-.01-1.07.06-1.59.14-.58.09-1.15.21-1.71.38-.08.02-.11.11-.07.18.6,1.22.96,2.55,1.04,3.91,0,.11.13.16.21.09.2-.17.44-.27.7-.31.06,0,.13-.05.12-.12-.04-.44-.08-.87-.11-1.31-.03-.3-.02-.64-.29-.84s-.69-.21-1.02-.25c-.4-.04-.8-.05-1.2-.02-.35.02-.76.04-1.08.19-.3.14-.32.4-.25.69.09.41.19.81.29,1.22.06.26.16.54.44.65.35.13.78-.05,1.12-.13.47-.12.95-.23,1.42-.35.16-.04.09-.28-.07-.24-.62.15-1.24.31-1.87.46-.31.07-.62.1-.75-.25-.1-.28-.14-.57-.21-.86l-.1-.44c-.04-.18-.13-.4.08-.5.27-.13.65-.14.95-.16.62-.05,1.28-.02,1.88.13.19.05.32.14.37.34.04.18.04.36.06.54.03.38.07.77.1,1.15l.12-.12c-.33.04-.62.16-.88.38l.21.09c-.09-1.4-.45-2.77-1.08-4.03l-.07.18c.96-.28,1.96-.45,2.96-.5.21-.01.5-.06.63.15.11.18.13.44.17.64.11.5.2,1,.29,1.5.02.14.26.11.25-.03-.04-.37-.07-.75-.11-1.12-.02-.25-.03-.58-.32-.68s-.67.1-.94.19l-1.16.36c-.07.02-.1.08-.09.15.17,1.16.28,2.34.35,3.51,0,.11.13.17.21.09.81-.82,2.58-.08,3.04-1.39.16-.46-.05-.94-.53-1.07-.26-.07-.54-.04-.8,0-.18.02-.35.04-.53.07-.11.02-.21.05-.28.15-.08.12-.08.28-.1.42-.03.21-.05.41-.08.62-.06.44-.11.88-.17,1.32-.01.1.11.15.19.11.7-.43,1.4-.86,2.1-1.29.1-.06.2-.14.31-.03.05.04.07.16.1.21.09.19.17.38.26.57.06.14.27.45.2.61-.06.14-.35.26-.48.34-.17.11-.35.22-.52.33-.16.1-.34.27-.54.23-.16-.03-.34-.15-.49-.22-.13-.06-.25-.13-.38-.2-.55-.31-1.07-.7-1.35-1.29-.02-.04-.07-.06-.11-.06-.32.02-.64.06-.95.15-.28.08-.63.18-.85.37s-.14.46-.07.71c.1.34.2.68.3,1.02.07.23.18.41.45.39.32-.02.65-.17.96-.26.71-.21,1.42-.41,2.13-.62.1-.03.11-.14.06-.21-.47-.58-1.03-1.06-1.67-1.45-.14-.08-.26.13-.13.22h0Z" style="fill: #231f20;"/>
  </g>
</svg>